{
copyright = "Copyright (c) 2015, Cadson Demak (info@cadsondemak.com)";
customParameters = (
{
name = vendorID;
value = CDK;
},
{
name = description;
value = "Copyright (c) 2015, Cadson Demak (info@cadsondemak.com)";
},
{
name = license;

glyphs = (
{
glyphname = A;
lastChange = "2015-11-28 05:20:19 +0000";
layers = (
{
layerId = "55230DDF-46DB-445B-B73A-3B2EF2AFB87A";
name = Light;
paths = (
{
closed = 1;
nodes = (
"212 0 LINE",
"212 9 LINE",
"192 17 OFFCURVE",
"167 23 OFFCURVE",
"129 27 CURVE",
"341 618 LINE",
"551 27 LINE",
"517 24 OFFCURVE",
"492 19 OFFCURVE",
"469 10 CURVE",
"469 0 LINE",
"698 0 LINE",
"698 10 LINE",
"674 19 OFFCURVE",
"647 25 OFFCURVE",
"620 28 CURVE",
"376 704 LINE",
"329 704 LINE",
"85 29 LINE",
"64 27 OFFCURVE",
"31 20 OFFCURVE",
"7 11 CURVE",
"7 0 LINE"
);
},
{
closed = 1;
nodes = (
"515 183 LINE",
"515 214 LINE",
"170 214 LINE",
"170 183 LINE"
);
}
);
width = 705;
}
);
leftKerningGroup = A;
note = A;
rightKerningGroup = A;
unicode = 0041;
},
{
glyphname = Aacute;
lastChange = "2015-11-28 05:20:20 +0000";
layers = (
{
layerId = "55230DDF-46DB-445B-B73A-3B2EF2AFB87A";
name = Light;
paths = (
{
closed = 1;
nodes = (
"212 0 LINE",
"212 9 LINE",
"192 17 OFFCURVE",
"167 23 OFFCURVE",
"129 27 CURVE",
"341 618 LINE",
"551 27 LINE",
"517 24 OFFCURVE",
"492 19 OFFCURVE",
"469 10 CURVE",
"469 0 LINE",
"698 0 LINE",
"698 10 LINE",
"674 19 OFFCURVE",
"647 25 OFFCURVE",
"620 28 CURVE",
"376 704 LINE",
"329 704 LINE",
"85 29 LINE",
"64 27 OFFCURVE",
"31 20 OFFCURVE",
"7 11 CURVE",
"7 0 LINE"
);
},
{
closed = 1;
nodes = (
"515 183 LINE",
"515 214 LINE",
"170 214 LINE",
"170 183 LINE"
);
},
{
closed = 1;
nodes = (
"460 865 LINE SMOOTH",
"478 876 OFFCURVE",
"487 888 OFFCURVE",
"487 901 CURVE SMOOTH",
"487 913 OFFCURVE",
"478 924 OFFCURVE",
"462 924 CURVE SMOOTH",
"444 924 OFFCURVE",
"430 912 OFFCURVE",
"423 905 CURVE",
"311 805 LINE",
"324 786 LINE"
);
}
);
width = 705;
}
);
leftKerningGroup = A;
note = Aacute;
rightKerningGroup = A;
unicode = 00C1;
},
{
glyphname = Abreve;
lastChange = "2015-11-28 05:20:20 +0000";
layers = (
{
layerId = "55230DDF-46DB-445B-B73A-3B2EF2AFB87A";
name = Light;
paths = (
{
closed = 1;
nodes = (
"212 0 LINE",
"212 9 LINE",
"192 17 OFFCURVE",
"167 23 OFFCURVE",
"129 27 CURVE",
"341 618 LINE",
"551 27 LINE",
"517 24 OFFCURVE",
"492 19 OFFCURVE",
"469 10 CURVE",
"469 0 LINE",
"698 0 LINE",
"698 10 LINE",
"674 19 OFFCURVE",
"647 25 OFFCURVE",
"620 28 CURVE",
"376 704 LINE",
"329 704 LINE",
"85 29 LINE",
"64 27 OFFCURVE",
"31 20 OFFCURVE",
"7 11 CURVE",
"7 0 LINE"
);
},
{
closed = 1;
nodes = (
"515 183 LINE",
"515 214 LINE",
"170 214 LINE",
"170 183 LINE"
);
},
{
closed = 1;
nodes = (
"432 774 OFFCURVE",
"490 811 OFFCURVE",
"499 894 CURVE",
"453 894 LINE",
"444 817 OFFCURVE",
"393 806 OFFCURVE",
"352 806 CURVE SMOOTH",
"311 806 OFFCURVE",
"259 817 OFFCURVE",
"251 894 CURVE",
"205 894 LINE",
"214 811 OFFCURVE",
"272 774 OFFCURVE",
"352 774 CURVE SMOOTH"
);
}
);
width = 705;
}
);
leftKerningGroup = A;
note = Abreve;
rightKerningGroup = A;
unicode = 0102;
},
{
glyphname = Abreveacute;
lastChange = "2015-11-28 05:20:19 +0000";
layers = (
{
layerId = "55230DDF-46DB-445B-B73A-3B2EF2AFB87A";
name = Light;
paths = (
{
closed = 1;
nodes = (
"212 0 LINE",
"212 9 LINE",
"192 17 OFFCURVE",
"167 23 OFFCURVE",
"129 27 CURVE",
"341 618 LINE",
"551 27 LINE",
"517 24 OFFCURVE",
"492 19 OFFCURVE",
"469 10 CURVE",
"469 0 LINE",
"698 0 LINE",
"698 10 LINE",
"674 19 OFFCURVE",
"647 25 OFFCURVE",
"620 28 CURVE",
"376 704 LINE",
"329 704 LINE",
"85 29 LINE",
"64 27 OFFCURVE",
"31 20 OFFCURVE",
"7 11 CURVE",
"7 0 LINE"
);
},
{
closed = 1;
nodes = (
"515 183 LINE",
"515 214 LINE",
"170 214 LINE",
"170 183 LINE"
);
},
{
closed = 1;
nodes = (
"432 774 OFFCURVE",
"490 812 OFFCURVE",
"499 894 CURVE",
"453 894 LINE",
"445 817 OFFCURVE",
"393 806 OFFCURVE",
"352 806 CURVE SMOOTH",
"311 806 OFFCURVE",
"260 817 OFFCURVE",
"251 894 CURVE",
"205 894 LINE",
"214 812 OFFCURVE",
"272 774 OFFCURVE",
"352 774 CURVE SMOOTH"
);
},
{
closed = 1;
nodes = (
"443 946 LINE SMOOTH",
"468 959 OFFCURVE",
"479 976 OFFCURVE",
"479 989 CURVE SMOOTH",
"479 1001 OFFCURVE",
"470 1009 OFFCURVE",
"457 1009 CURVE SMOOTH",
"443 1009 OFFCURVE",
"426 1001 OFFCURVE",
"409 983 CURVE",
"320 901 LINE",
"332 884 LINE"
);
}
);
width = 705;
}
);
leftKerningGroup = A;
note = Abreveacute;
rightKerningGroup = A;
unicode = 1EAE;
},
{
glyphname = Abrevedotbelow;
lastChange = "2015-11-28 05:20:20 +0000";
layers = (
{
layerId = "55230DDF-46DB-445B-B73A-3B2EF2AFB87A";
name = Light;
paths = (
{
closed = 1;
nodes = (
"212 0 LINE",
"212 9 LINE",
"192 17 OFFCURVE",
"167 23 OFFCURVE",
"129 27 CURVE",
"341 618 LINE",
"551 27 LINE",
"517 24 OFFCURVE",
"492 19 OFFCURVE",
"469 10 CURVE",
"469 0 LINE",
"698 0 LINE",
"698 10 LINE",
"674 19 OFFCURVE",
"647 25 OFFCURVE",
"620 28 CURVE",
"376 704 LINE",
"329 704 LINE",
"85 29 LINE",
"64 27 OFFCURVE",
"31 20 OFFCURVE",
"7 11 CURVE",
"7 0 LINE"
);
},
{
closed = 1;
nodes = (
"373 -142 OFFCURVE",
"389 -126 OFFCURVE",
"389 -102 CURVE SMOOTH",
"389 -77 OFFCURVE",
"373 -61 OFFCURVE",
"350 -61 CURVE SMOOTH",
"327 -61 OFFCURVE",
"311 -77 OFFCURVE",
"311 -102 CURVE SMOOTH",
"311 -126 OFFCURVE",
"327 -142 OFFCURVE",
"350 -142 CURVE SMOOTH"
);
},
{
closed = 1;
nodes = (
"515 183 LINE",
"515 214 LINE",
"170 214 LINE",
"170 183 LINE"
);
},
{
closed = 1;
nodes = (
"431 774 OFFCURVE",
"489 811 OFFCURVE",
"498 894 CURVE",
"452 894 LINE",
"443 817 OFFCURVE",
"392 806 OFFCURVE",
"351 806 CURVE SMOOTH",
"310 806 OFFCURVE",
"258 817 OFFCURVE",
"250 894 CURVE",
"204 894 LINE",
"213 811 OFFCURVE",
"271 774 OFFCURVE",
"351 774 CURVE SMOOTH"
);
}
);
width = 705;
}
);
leftKerningGroup = A;
note = Abrevedotbelow;
rightKerningGroup = A;
unicode = 1EB6;
},
{
glyphname = Abrevegrave;
lastChange = "2015-11-28 05:20:20 +0000";
layers = (
{
layerId = "55230DDF-46DB-445B-B73A-3B2EF2AFB87A";
name = Light;
paths = (
{
closed = 1;
nodes = (
"212 0 LINE",
"212 9 LINE",
"192 17 OFFCURVE",
"167 23 OFFCURVE",
"129 27 CURVE",
"341 618 LINE",
"551 27 LINE",
"517 24 OFFCURVE",
"492 19 OFFCURVE",
"469 10 CURVE",
"469 0 LINE",
"698 0 LINE",
"698 10 LINE",
"674 19 OFFCURVE",
"647 25 OFFCURVE",
"620 28 CURVE",
"376 704 LINE",
"329 704 LINE",
"85 29 LINE",
"64 27 OFFCURVE",
"31 20 OFFCURVE",
"7 11 CURVE",
"7 0 LINE"
);
},
{
closed = 1;
nodes = (
"515 183 LINE",
"515 214 LINE",
"170 214 LINE",
"170 183 LINE"
);
},
{
closed = 1;
nodes = (
"432 774 OFFCURVE",
"490 812 OFFCURVE",
"499 894 CURVE",
"453 894 LINE",
"445 817 OFFCURVE",
"393 806 OFFCURVE",
"352 806 CURVE SMOOTH",
"311 806 OFFCURVE",
"260 817 OFFCURVE",
"251 894 CURVE",
"205 894 LINE",
"214 812 OFFCURVE",
"272 774 OFFCURVE",
"352 774 CURVE SMOOTH"
);
},
{
closed = 1;
nodes = (
"379 901 LINE",
"290 983 LINE",
"273 1001 OFFCURVE",
"256 1009 OFFCURVE",
"242 1009 CURVE SMOOTH",
"229 1009 OFFCURVE",
"220 1001 OFFCURVE",
"220 989 CURVE SMOOTH",
"220 976 OFFCURVE",
"231 960 OFFCURVE",
"256 946 CURVE SMOOTH",
"367 884 LINE"
);
}
);
width = 705;
}
);
leftKerningGroup = A;
note = Abrevegrave;
rightKerningGroup = A;
unicode = 1EB0;
},
{
glyphname = Abrevehookabove;
lastChange = "2015-11-28 05:20:20 +0000";
layers = (
{
layerId = "55230DDF-46DB-445B-B73A-3B2EF2AFB87A";
name = Light;
paths = (
{
closed = 1;
nodes = (
"212 0 LINE",
"212 9 LINE",
"192 17 OFFCURVE",
"167 23 OFFCURVE",
"129 27 CURVE",
"341 618 LINE",
"551 27 LINE",
"517 24 OFFCURVE",
"492 19 OFFCURVE",
"469 10 CURVE",
"469 0 LINE",
"698 0 LINE",
"698 10 LINE",
"674 19 OFFCURVE",
"647 25 OFFCURVE",
"620 28 CURVE",
"376 704 LINE",
"329 704 LINE",
"85 29 LINE",
"64 27 OFFCURVE",
"31 20 OFFCURVE",
"7 11 CURVE",
"7 0 LINE"
);
},
{
closed = 1;
nodes = (
"515 183 LINE",
"515 214 LINE",
"170 214 LINE",
"170 183 LINE"
);
},
{
closed = 1;
nodes = (
"432 774 OFFCURVE",
"490 812 OFFCURVE",
"499 894 CURVE",
"453 894 LINE",
"445 817 OFFCURVE",
"393 806 OFFCURVE",
"352 806 CURVE SMOOTH",
"311 806 OFFCURVE",
"260 817 OFFCURVE",
"251 894 CURVE",
"205 894 LINE",
"214 812 OFFCURVE",
"272 774 OFFCURVE",
"352 774 CURVE SMOOTH"
);
},
{
closed = 1;
nodes = (
"363 870 LINE",
"372 921 LINE",
"416 926 OFFCURVE",
"441 944 OFFCURVE",
"441 982 CURVE SMOOTH",
"441 1026 OFFCURVE",
"403 1044 OFFCURVE",
"363 1044 CURVE SMOOTH",
"339 1044 OFFCURVE",
"316 1037 OFFCURVE",
"301 1030 CURVE",
"306 1007 LINE",
"323 1016 OFFCURVE",
"340 1019 OFFCURVE",
"354 1019 CURVE SMOOTH",
"387 1019 OFFCURVE",
"403 1004 OFFCURVE",
"403 983 CURVE SMOOTH",
"403 959 OFFCURVE",
"386 941 OFFCURVE",
"348 941 CURVE SMOOTH",
"331 941 LINE",
"335 870 LINE"
);
}
);
width = 705;
}
);
leftKerningGroup = A;
note = Abrevehookabove;
rightKerningGroup = A;
unicode = 1EB2;
},
{
glyphname = Abrevetilde;
lastChange = "2015-11-28 05:20:19 +0000";
layers = (
{
layerId = "55230DDF-46DB-445B-B73A-3B2EF2AFB87A";
name = Light;
paths = (
{
closed = 1;
nodes = (
"212 0 LINE",
"212 9 LINE",
"192 17 OFFCURVE",
"167 23 OFFCURVE",
"129 27 CURVE",
"341 618 LINE",
"551 27 LINE",
"517 24 OFFCURVE",
"492 19 OFFCURVE",
"469 10 CURVE",
"469 0 LINE",
"698 0 LINE",
"698 10 LINE",
"674 19 OFFCURVE",
"647 25 OFFCURVE",
"620 28 CURVE",
"376 704 LINE",
"329 704 LINE",
"85 29 LINE",
"64 27 OFFCURVE",
"31 20 OFFCURVE",
"7 11 CURVE",
"7 0 LINE"
);
},
{
closed = 1;
nodes = (
"515 183 LINE",
"515 214 LINE",
"170 214 LINE",
"170 183 LINE"
);
},
{
closed = 1;
nodes = (
"432 774 OFFCURVE",
"490 812 OFFCURVE",
"499 894 CURVE",
"453 894 LINE",
"445 817 OFFCURVE",
"393 806 OFFCURVE",
"352 806 CURVE SMOOTH",
"311 806 OFFCURVE",
"260 817 OFFCURVE",
"251 894 CURVE",
"205 894 LINE",
"214 812 OFFCURVE",
"272 774 OFFCURVE",
"352 774 CURVE SMOOTH"
);
},
{
closed = 1;
nodes = (
"229 945 LINE",
"237 981 OFFCURVE",
"257 1004 OFFCURVE",
"285 1004 CURVE SMOOTH",
"322 1004 OFFCURVE",
"370 946 OFFCURVE",
"412 946 CURVE SMOOTH",
"460 946 OFFCURVE",
"486 985 OFFCURVE",
"494 1046 CURVE",
"471 1046 LINE",
"462 1004 OFFCURVE",
"442 984 OFFCURVE",
"414 984 CURVE SMOOTH",
"377 984 OFFCURVE",
"335 1040 OFFCURVE",
"287 1040 CURVE SMOOTH",
"245 1040 OFFCURVE",
"214 1011 OFFCURVE",
"206 945 CURVE"
);
}
);
width = 705;
}
);
leftKerningGroup = A;
note = Abrevetilde;
rightKerningGroup = A;
unicode = 1EB4;
},
{
glyphname = Acaron;
lastChange = "2015-11-28 05:20:21 +0000";
layers = (
{
layerId = "55230DDF-46DB-445B-B73A-3B2EF2AFB87A";
name = Light;
paths = (
{
closed = 1;
nodes = (
"212 0 LINE",
"212 9 LINE",
"192 17 OFFCURVE",
"167 23 OFFCURVE",
"129 27 CURVE",
"341 618 LINE",
"551 27 LINE",
"517 24 OFFCURVE",
"492 19 OFFCURVE",
"469 10 CURVE",
"469 0 LINE",
"698 0 LINE",
"698 10 LINE",
"674 19 OFFCURVE",
"647 25 OFFCURVE",
"620 28 CURVE",
"376 704 LINE",
"329 704 LINE",
"85 29 LINE",
"64 27 OFFCURVE",
"31 20 OFFCURVE",
"7 11 CURVE",
"7 0 LINE"
);
},
{
closed = 1;
nodes = (
"515 183 LINE",
"515 214 LINE",
"170 214 LINE",
"170 183 LINE"
);
},
{
closed = 1;
nodes = (
"369 786 LINE",
"400 829 OFFCURVE",
"453 876 OFFCURVE",
"492 903 CURVE",
"463 930 LINE",
"426 903 OFFCURVE",
"382 863 OFFCURVE",
"355 828 CURVE",
"350 828 LINE",
"323 863 OFFCURVE",
"279 903 OFFCURVE",
"242 930 CURVE",
"213 903 LINE",
"252 876 OFFCURVE",
"305 829 OFFCURVE",
"336 786 CURVE"
);
}
);
width = 705;
}
);
leftKerningGroup = A;
note = Acaron;
rightKerningGroup = A;
unicode = 01CD;
},
{
glyphname = Acircumflex;
lastChange = "2015-11-28 05:20:20 +0000";
layers = (
{
layerId = "55230DDF-46DB-445B-B73A-3B2EF2AFB87A";
name = Light;
paths = (
{
closed = 1;
nodes = (
"212 0 LINE",
"212 9 LINE",
"192 17 OFFCURVE",
"167 23 OFFCURVE",
"129 27 CURVE",
"341 618 LINE",
"551 27 LINE",
"517 24 OFFCURVE",
"492 19 OFFCURVE",
"469 10 CURVE",
"469 0 LINE",
"698 0 LINE",
"698 10 LINE",
"674 19 OFFCURVE",
"647 25 OFFCURVE",
"620 28 CURVE",
"376 704 LINE",
"329 704 LINE",
"85 29 LINE",
"64 27 OFFCURVE",
"31 20 OFFCURVE",
"7 11 CURVE",
"7 0 LINE"
);
},
{
closed = 1;
nodes = (
"515 183 LINE",
"515 214 LINE",
"170 214 LINE",
"170 183 LINE"
);
},
{
closed = 1;
nodes = (
"279 806 OFFCURVE",
"323 846 OFFCURVE",
"350 881 CURVE",
"355 881 LINE",
"382 846 OFFCURVE",
"426 806 OFFCURVE",
"463 779 CURVE",
"492 806 LINE",
"453 833 OFFCURVE",
"400 880 OFFCURVE",
"369 922 CURVE",
"336 922 LINE",
"305 880 OFFCURVE",
"252 833 OFFCURVE",
"213 806 CURVE",
"242 779 LINE"
);
}
);
width = 705;
}
);
leftKerningGroup = A;
note = Acircumflex;
rightKerningGroup = A;
unicode = 00C2;
},
{
glyphname = Acircumflexacute;
lastChange = "2015-11-28 05:20:20 +0000";
layers = (
{
layerId = "55230DDF-46DB-445B-B73A-3B2EF2AFB87A";
name = Light;
paths = (
{
closed = 1;
nodes = (
"212 0 LINE",
"212 9 LINE",
"192 17 OFFCURVE",
"167 23 OFFCURVE",
"129 27 CURVE",
"341 618 LINE",
"551 27 LINE",
"517 24 OFFCURVE",
"492 19 OFFCURVE",
"469 10 CURVE",
"469 0 LINE",
"698 0 LINE",
"698 10 LINE",
"674 19 OFFCURVE",
"647 25 OFFCURVE",
"620 28 CURVE",
"376 704 LINE",
"329 704 LINE",
"85 29 LINE",
"64 27 OFFCURVE",
"31 20 OFFCURVE",
"7 11 CURVE",
"7 0 LINE"
);
},
{
closed = 1;
nodes = (
"515 183 LINE",
"515 214 LINE",
"170 214 LINE",
"170 183 LINE"
);
},
{
closed = 1;
nodes = (
"279 806 OFFCURVE",
"323 846 OFFCURVE",
"350 881 CURVE",
"355 881 LINE",
"383 846 OFFCURVE",
"426 806 OFFCURVE",
"463 779 CURVE",
"492 806 LINE",
"454 833 OFFCURVE",
"400 880 OFFCURVE",
"369 922 CURVE",
"336 922 LINE",
"305 880 OFFCURVE",
"252 833 OFFCURVE",
"213 806 CURVE",
"243 779 LINE"
);
},
{
closed = 1;
nodes = (
"575 955 LINE SMOOTH",
"600 968 OFFCURVE",
"611 985 OFFCURVE",
"611 998 CURVE SMOOTH",
"611 1010 OFFCURVE",
"602 1018 OFFCURVE",
"589 1018 CURVE SMOOTH",
"575 1018 OFFCURVE",
"558 1010 OFFCURVE",
"541 992 CURVE",
"452 910 LINE",
"464 893 LINE"
);
}
);
width = 705;
}
);
leftKerningGroup = A;
note = Acircumflexacute;
rightKerningGroup = A;
unicode = 1EA4;
},
{
glyphname = Acircumflexdotbelow;
lastChange = "2015-11-28 05:20:20 +0000";
layers = (
{
layerId = "55230DDF-46DB-445B-B73A-3B2EF2AFB87A";
name = Light;
paths = (
{
closed = 1;
nodes = (
"212 0 LINE",
"212 9 LINE",
"192 17 OFFCURVE",
"167 23 OFFCURVE",
"129 27 CURVE",
"341 618 LINE",
"551 27 LINE",
"517 24 OFFCURVE",
"492 19 OFFCURVE",
"469 10 CURVE",
"469 0 LINE",
"698 0 LINE",
"698 10 LINE",
"674 19 OFFCURVE",
"647 25 OFFCURVE",
"620 28 CURVE",
"376 704 LINE",
"329 704 LINE",
"85 29 LINE",
"64 27 OFFCURVE",
"31 20 OFFCURVE",
"7 11 CURVE",
"7 0 LINE"
);
},
{
closed = 1;
nodes = (
"375 -142 OFFCURVE",
"391 -126 OFFCURVE",
"391 -102 CURVE SMOOTH",
"391 -77 OFFCURVE",
"375 -61 OFFCURVE",
"352 -61 CURVE SMOOTH",
"329 -61 OFFCURVE",
"313 -77 OFFCURVE",
"313 -102 CURVE SMOOTH",
"313 -126 OFFCURVE",
"329 -142 OFFCURVE",
"352 -142 CURVE SMOOTH"
);
},
{
closed = 1;
nodes = (
"515 183 LINE",
"515 214 LINE",
"170 214 LINE",
"170 183 LINE"
);
},
{
closed = 1;
nodes = (
"279 807 OFFCURVE",
"323 847 OFFCURVE",
"350 882 CURVE",
"355 882 LINE",
"382 847 OFFCURVE",
"426 807 OFFCURVE",
"463 780 CURVE",
"492 807 LINE",
"453 834 OFFCURVE",
"400 881 OFFCURVE",
"369 923 CURVE",
"336 923 LINE",
"305 881 OFFCURVE",
"252 834 OFFCURVE",
"213 807 CURVE",
"242 780 LINE"
);
}
);
width = 705;
}
);
leftKerningGroup = A;
note = Acircumflexdotbelow;
rightKerningGroup = A;
unicode = 1EAC;
},
{
glyphname = Acircumflexgrave;
lastChange = "2015-11-28 05:20:19 +0000";
layers = (
{
layerId = "55230DDF-46DB-445B-B73A-3B2EF2AFB87A";
name = Light;
paths = (
{
closed = 1;
nodes = (
"212 0 LINE",
"212 9 LINE",
"192 17 OFFCURVE",
"167 23 OFFCURVE",
"129 27 CURVE",
"341 618 LINE",
"551 27 LINE",
"517 24 OFFCURVE",
"492 19 OFFCURVE",
"469 10 CURVE",
"469 0 LINE",
"698 0 LINE",
"698 10 LINE",
"674 19 OFFCURVE",
"647 25 OFFCURVE",
"620 28 CURVE",
"376 704 LINE",
"329 704 LINE",
"85 29 LINE",
"64 27 OFFCURVE",
"31 20 OFFCURVE",
"7 11 CURVE",
"7 0 LINE"
);
},
{
closed = 1;
nodes = (
"515 183 LINE",
"515 214 LINE",
"170 214 LINE",
"170 183 LINE"
);
},
{
closed = 1;
nodes = (
"263 910 LINE",
"191 977 LINE SMOOTH",
"168 998 OFFCURVE",
"144 1018 OFFCURVE",
"125 1018 CURVE SMOOTH",
"113 1018 OFFCURVE",
"104 1010 OFFCURVE",
"104 998 CURVE SMOOTH",
"104 980 OFFCURVE",
"130 960 OFFCURVE",
"160 943 CURVE SMOOTH",
"250 893 LINE"
);
},
{
closed = 1;
nodes = (
"279 806 OFFCURVE",
"323 846 OFFCURVE",
"350 881 CURVE",
"355 881 LINE",
"383 846 OFFCURVE",
"426 806 OFFCURVE",
"463 779 CURVE",
"492 806 LINE",
"454 833 OFFCURVE",
"400 880 OFFCURVE",
"369 922 CURVE",
"336 922 LINE",
"305 880 OFFCURVE",
"252 833 OFFCURVE",
"213 806 CURVE",
"243 779 LINE"
);
}
);
width = 705;
}
);
leftKerningGroup = A;
note = Acircumflexgrave;
rightKerningGroup = A;
unicode = 1EA6;
},
{
glyphname = Acircumflexhookabove;
lastChange = "2015-11-28 05:20:19 +0000";
layers = (
{
layerId = "55230DDF-46DB-445B-B73A-3B2EF2AFB87A";
name = Light;
paths = (
{
closed = 1;
nodes = (
"212 0 LINE",
"212 9 LINE",
"192 17 OFFCURVE",
"167 23 OFFCURVE",
"129 27 CURVE",
"341 618 LINE",
"551 27 LINE",
"517 24 OFFCURVE",
"492 19 OFFCURVE",
"469 10 CURVE",
"469 0 LINE",
"698 0 LINE",
"698 10 LINE",
"674 19 OFFCURVE",
"647 25 OFFCURVE",
"620 28 CURVE",
"376 704 LINE",
"329 704 LINE",
"85 29 LINE",
"64 27 OFFCURVE",
"31 20 OFFCURVE",
"7 11 CURVE",
"7 0 LINE"
);
},
{
closed = 1;
nodes = (
"515 183 LINE",
"515 214 LINE",
"170 214 LINE",
"170 183 LINE"
);
},
{
closed = 1;
nodes = (
"279 806 OFFCURVE",
"323 846 OFFCURVE",
"350 881 CURVE",
"355 881 LINE",
"383 846 OFFCURVE",
"426 806 OFFCURVE",
"463 779 CURVE",
"492 806 LINE",
"454 833 OFFCURVE",
"400 880 OFFCURVE",
"369 922 CURVE",
"336 922 LINE",
"305 880 OFFCURVE",
"252 833 OFFCURVE",
"213 806 CURVE",
"243 779 LINE"
);
},
{
closed = 1;
nodes = (
"480 879 LINE",
"489 930 LINE",
"533 935 OFFCURVE",
"558 953 OFFCURVE",
"558 991 CURVE SMOOTH",
"558 1035 OFFCURVE",
"520 1053 OFFCURVE",
"480 1053 CURVE SMOOTH",
"456 1053 OFFCURVE",
"433 1046 OFFCURVE",
"418 1039 CURVE",
"423 1016 LINE",
"440 1025 OFFCURVE",
"457 1028 OFFCURVE",
"471 1028 CURVE SMOOTH",
"504 1028 OFFCURVE",
"520 1013 OFFCURVE",
"520 992 CURVE SMOOTH",
"520 968 OFFCURVE",
"503 950 OFFCURVE",
"465 950 CURVE SMOOTH",
"448 950 LINE",
"452 879 LINE"
);
}
);
width = 705;
}
);
leftKerningGroup = A;
note = Acircumflexhookabove;
rightKerningGroup = A;
unicode = 1EA8;
},
{
glyphname = Acircumflextilde;
lastChange = "2015-11-28 05:20:21 +0000";
layers = (
{
layerId = "55230DDF-46DB-445B-B73A-3B2EF2AFB87A";
name = Light;
paths = (
{
closed = 1;
nodes = (
"212 0 LINE",
"212 9 LINE",
"192 17 OFFCURVE",
"167 23 OFFCURVE",
"129 27 CURVE",
"341 618 LINE",
"551 27 LINE",
"517 24 OFFCURVE",
"492 19 OFFCURVE",
"469 10 CURVE",
"469 0 LINE",
"698 0 LINE",
"698 10 LINE",
"674 19 OFFCURVE",
"647 25 OFFCURVE",
"620 28 CURVE",
"376 704 LINE",
"329 704 LINE",
"85 29 LINE",
"64 27 OFFCURVE",
"31 20 OFFCURVE",
"7 11 CURVE",
"7 0 LINE"
);
},
{
closed = 1;
nodes = (
"515 183 LINE",
"515 214 LINE",
"170 214 LINE",
"170 183 LINE"
);
},
{
closed = 1;
nodes = (
"279 806 OFFCURVE",
"323 846 OFFCURVE",
"350 881 CURVE",
"355 881 LINE",
"383 846 OFFCURVE",
"426 806 OFFCURVE",
"463 779 CURVE",
"492 806 LINE",
"454 833 OFFCURVE",
"400 880 OFFCURVE",
"369 922 CURVE",
"336 922 LINE",
"305 880 OFFCURVE",
"252 833 OFFCURVE",
"213 806 CURVE",
"243 779 LINE"
);
},
{
closed = 1;
nodes = (
"229 954 LINE",
"237 990 OFFCURVE",
"257 1013 OFFCURVE",
"285 1013 CURVE SMOOTH",
"322 1013 OFFCURVE",
"370 955 OFFCURVE",
"412 955 CURVE SMOOTH",
"460 955 OFFCURVE",
"486 994 OFFCURVE",
"494 1055 CURVE",
"471 1055 LINE",
"462 1013 OFFCURVE",
"442 993 OFFCURVE",
"414 993 CURVE SMOOTH",
"377 993 OFFCURVE",
"335 1049 OFFCURVE",
"287 1049 CURVE SMOOTH",
"245 1049 OFFCURVE",
"214 1020 OFFCURVE",
"206 954 CURVE"
);
}
);
width = 705;
}
);
leftKerningGroup = A;
note = Acircumflextilde;
rightKerningGroup = A;
unicode = 1EAA;
},
{
glyphname = Adieresis;
lastChange = "2015-11-28 05:20:19 +0000";
layers = (
{
layerId = "55230DDF-46DB-445B-B73A-3B2EF2AFB87A";
name = Light;
paths = (
{
closed = 1;
nodes = (
"212 0 LINE",
"212 9 LINE",
"192 17 OFFCURVE",
"167 23 OFFCURVE",
"129 27 CURVE",
"341 618 LINE",
"551 27 LINE",
"517 24 OFFCURVE",
"492 19 OFFCURVE",
"469 10 CURVE",
"469 0 LINE",
"698 0 LINE",
"698 10 LINE",
"674 19 OFFCURVE",
"647 25 OFFCURVE",
"620 28 CURVE",
"376 704 LINE",
"329 704 LINE",
"85 29 LINE",
"64 27 OFFCURVE",
"31 20 OFFCURVE",
"7 11 CURVE",
"7 0 LINE"
);
},
{
closed = 1;
nodes = (
"515 183 LINE",
"515 214 LINE",
"170 214 LINE",
"170 183 LINE"
);
},
{
closed = 1;
nodes = (
"263 785 OFFCURVE",
"279 801 OFFCURVE",
"279 825 CURVE SMOOTH",
"279 850 OFFCURVE",
"263 866 OFFCURVE",
"240 866 CURVE SMOOTH",
"217 866 OFFCURVE",
"201 850 OFFCURVE",
"201 825 CURVE SMOOTH",
"201 801 OFFCURVE",
"217 785 OFFCURVE",
"240 785 CURVE SMOOTH"
);
},
{
closed = 1;
nodes = (
"476 785 OFFCURVE",
"492 801 OFFCURVE",
"492 825 CURVE SMOOTH",
"492 850 OFFCURVE",
"476 866 OFFCURVE",
"453 866 CURVE SMOOTH",
"430 866 OFFCURVE",
"414 850 OFFCURVE",
"414 825 CURVE SMOOTH",
"414 801 OFFCURVE",
"430 785 OFFCURVE",
"453 785 CURVE SMOOTH"
);
}
);
width = 705;
}
);
leftKerningGroup = A;
note = Adieresis;
rightKerningGroup = A;
unicode = 00C4;
},
{
glyphname = Adotbelow;
lastChange = "2015-11-28 05:20:20 +0000";
layers = (
{
layerId = "55230DDF-46DB-445B-B73A-3B2EF2AFB87A";
name = Light;
paths = (
{
closed = 1;
nodes = (
"212 0 LINE",
"212 9 LINE",
"192 17 OFFCURVE",
"167 23 OFFCURVE",
"129 27 CURVE",
"341 618 LINE",
"551 27 LINE",
"517 24 OFFCURVE",
"492 19 OFFCURVE",
"469 10 CURVE",
"469 0 LINE",
"698 0 LINE",
"698 10 LINE",
"674 19 OFFCURVE",
"647 25 OFFCURVE",
"620 28 CURVE",
"376 704 LINE",
"329 704 LINE",
"85 29 LINE",
"64 27 OFFCURVE",
"31 20 OFFCURVE",
"7 11 CURVE",
"7 0 LINE"
);
},
{
closed = 1;
nodes = (
"375 -142 OFFCURVE",
"391 -126 OFFCURVE",
"391 -102 CURVE SMOOTH",
"391 -77 OFFCURVE",
"375 -61 OFFCURVE",
"352 -61 CURVE SMOOTH",
"329 -61 OFFCURVE",
"313 -77 OFFCURVE",
"313 -102 CURVE SMOOTH",
"313 -126 OFFCURVE",
"329 -142 OFFCURVE",
"352 -142 CURVE SMOOTH"
);
},
{
closed = 1;
nodes = (
"515 183 LINE",
"515 214 LINE",
"170 214 LINE",
"170 183 LINE"
);
}
);
width = 705;
}
);
leftKerningGroup = A;
note = Adotbelow;
rightKerningGroup = A;
unicode = 1EA0;
},
{
glyphname = Agrave;
lastChange = "2015-11-28 05:20:20 +0000";
layers = (
{
layerId = "55230DDF-46DB-445B-B73A-3B2EF2AFB87A";
name = Light;
paths = (
{
closed = 1;
nodes = (
"212 0 LINE",
"212 9 LINE",
"192 17 OFFCURVE",
"167 23 OFFCURVE",
"129 27 CURVE",
"341 618 LINE",
"551 27 LINE",
"517 24 OFFCURVE",
"492 19 OFFCURVE",
"469 10 CURVE",
"469 0 LINE",
"698 0 LINE",
"698 10 LINE",
"674 19 OFFCURVE",
"647 25 OFFCURVE",
"620 28 CURVE",
"376 704 LINE",
"329 704 LINE",
"85 29 LINE",
"64 27 OFFCURVE",
"31 20 OFFCURVE",
"7 11 CURVE",
"7 0 LINE"
);
},
{
closed = 1;
nodes = (
"515 183 LINE",
"515 214 LINE",
"170 214 LINE",
"170 183 LINE"
);
},
{
closed = 1;
nodes = (
"401 805 LINE",
"288 905 LINE",
"280 914 OFFCURVE",
"267 924 OFFCURVE",
"250 924 CURVE SMOOTH",
"234 924 OFFCURVE",
"224 913 OFFCURVE",
"224 901 CURVE SMOOTH",
"224 888 OFFCURVE",
"234 876 OFFCURVE",
"252 865 CURVE SMOOTH",
"388 786 LINE"
);
}
);
width = 705;
}
);
leftKerningGroup = A;
note = Agrave;
rightKerningGroup = A;
unicode = 00C0;
},
{
glyphname = Ahookabove;
lastChange = "2015-11-28 05:20:20 +0000";
layers = (
{
layerId = "55230DDF-46DB-445B-B73A-3B2EF2AFB87A";
name = Light;
paths = (
{
closed = 1;
nodes = (
"212 0 LINE",
"212 9 LINE",
"192 17 OFFCURVE",
"167 23 OFFCURVE",
"129 27 CURVE",
"341 618 LINE",
"551 27 LINE",
"517 24 OFFCURVE",
"492 19 OFFCURVE",
"469 10 CURVE",
"469 0 LINE",
"698 0 LINE",
"698 10 LINE",
"674 19 OFFCURVE",
"647 25 OFFCURVE",
"620 28 CURVE",
"376 704 LINE",
"329 704 LINE",
"85 29 LINE",
"64 27 OFFCURVE",
"31 20 OFFCURVE",
"7 11 CURVE",
"7 0 LINE"
);
},
{
closed = 1;
nodes = (
"515 183 LINE",
"515 214 LINE",
"170 214 LINE",
"170 183 LINE"
);
},
{
closed = 1;
nodes = (
"372 779 LINE",
"383 841 LINE",
"434 846 OFFCURVE",
"463 871 OFFCURVE",
"463 914 CURVE SMOOTH",
"463 966 OFFCURVE",
"419 989 OFFCURVE",
"372 989 CURVE SMOOTH",
"343 989 OFFCURVE",
"316 981 OFFCURVE",
"298 972 CURVE",
"305 945 LINE",
"325 956 OFFCURVE",
"346 961 OFFCURVE",
"362 961 CURVE SMOOTH",
"401 961 OFFCURVE",
"420 941 OFFCURVE",
"420 916 CURVE SMOOTH",
"420 887 OFFCURVE",
"400 864 OFFCURVE",
"356 864 CURVE SMOOTH",
"336 864 LINE",
"341 779 LINE"
);
}
);
width = 705;
}
);
leftKerningGroup = A;
note = Ahookabove;
rightKerningGroup = A;
unicode = 1EA2;
},
{
glyphname = Amacron;
lastChange = "2015-11-28 05:20:21 +0000";
layers = (
{
layerId = "55230DDF-46DB-445B-B73A-3B2EF2AFB87A";
name = Light;
paths = (
{
closed = 1;
nodes = (
"212 0 LINE",
"212 9 LINE",
"192 17 OFFCURVE",
"167 23 OFFCURVE",
"129 27 CURVE",
"341 618 LINE",
"551 27 LINE",
"517 24 OFFCURVE",
"492 19 OFFCURVE",
"469 10 CURVE",
"469 0 LINE",
"698 0 LINE",
"698 10 LINE",
"674 19 OFFCURVE",
"647 25 OFFCURVE",
"620 28 CURVE",
"376 704 LINE",
"329 704 LINE",
"85 29 LINE",
"64 27 OFFCURVE",
"31 20 OFFCURVE",
"7 11 CURVE",
"7 0 LINE"
);
},
{
closed = 1;
nodes = (
"515 183 LINE",
"515 214 LINE",
"170 214 LINE",
"170 183 LINE"
);
},
{
closed = 1;
nodes = (
"510 784 LINE",
"510 815 LINE",
"196 815 LINE",
"196 784 LINE"
);
}
);
width = 705;
}
);
leftKerningGroup = A;
note = Amacron;
rightKerningGroup = A;
unicode = 0100;
},
{
glyphname = Aogonek;
lastChange = "2015-11-28 05:20:20 +0000";
layers = (
{
layerId = "55230DDF-46DB-445B-B73A-3B2EF2AFB87A";
name = Light;
paths = (
{
closed = 1;
nodes = (
"212 0 LINE",
"212 9 LINE",
"192 17 OFFCURVE",
"167 23 OFFCURVE",
"129 27 CURVE",
"341 618 LINE",
"551 27 LINE",
"517 24 OFFCURVE",
"492 19 OFFCURVE",
"469 10 CURVE",
"469 0 LINE",
"698 0 LINE",
"698 10 LINE",
"674 19 OFFCURVE",
"647 25 OFFCURVE",
"620 28 CURVE",
"376 704 LINE",
"329 704 LINE",
"85 29 LINE",
"64 27 OFFCURVE",
"31 20 OFFCURVE",
"7 11 CURVE",
"7 0 LINE"
);
},
{
closed = 1;
nodes = (
"515 183 LINE",
"515 214 LINE",
"170 214 LINE",
"170 183 LINE"
);
},
{
closed = 1;
nodes = (
"694 -181 OFFCURVE",
"717 -176 OFFCURVE",
"740 -166 CURVE",
"740 -133 LINE",
"723 -141 OFFCURVE",
"706 -144 OFFCURVE",
"690 -144 CURVE SMOOTH",
"656 -144 OFFCURVE",
"629 -129 OFFCURVE",
"629 -94 CURVE SMOOTH",
"629 -56 OFFCURVE",
"658 -20 OFFCURVE",
"695 0 CURVE",
"653 0 LINE",
"604 -20 OFFCURVE",
"574 -60 OFFCURVE",
"574 -104 CURVE SMOOTH",
"574 -142 OFFCURVE",
"604 -181 OFFCURVE",
"666 -181 CURVE SMOOTH"
);
}
);
width = 705;
}
);
leftKerningGroup = A;
note = Aogonek;
rightKerningGroup = A;
unicode = 0104;
},
{
glyphname = Aring;
lastChange = "2015-11-28 05:20:22 +0000";
layers = (
{
layerId = "55230DDF-46DB-445B-B73A-3B2EF2AFB87A";
name = Light;
paths = (
{
closed = 1;
nodes = (
"212 0 LINE",
"212 9 LINE",
"192 17 OFFCURVE",
"167 23 OFFCURVE",
"129 27 CURVE",
"341 618 LINE",
"551 27 LINE",
"517 24 OFFCURVE",
"492 19 OFFCURVE",
"469 10 CURVE",
"469 0 LINE",
"698 0 LINE",
"698 10 LINE",
"674 19 OFFCURVE",
"647 25 OFFCURVE",
"620 28 CURVE",
"376 704 LINE",
"329 704 LINE",
"85 29 LINE",
"64 27 OFFCURVE",
"31 20 OFFCURVE",
"7 11 CURVE",
"7 0 LINE"
);
},
{
closed = 1;
nodes = (
"515 183 LINE",
"515 214 LINE",
"170 214 LINE",
"170 183 LINE"
);
},
{
closed = 1;
nodes = (
"403 737 OFFCURVE",
"439 771 OFFCURVE",
"439 820 CURVE SMOOTH",
"439 870 OFFCURVE",
"403 904 OFFCURVE",
"352 904 CURVE SMOOTH",
"301 904 OFFCURVE",
"264 870 OFFCURVE",
"264 820 CURVE SMOOTH",
"264 771 OFFCURVE",
"301 737 OFFCURVE",
"352 737 CURVE SMOOTH"
);
},
{
closed = 1;
nodes = (
"319 765 OFFCURVE",
"295 786 OFFCURVE",
"295 820 CURVE SMOOTH",
"295 854 OFFCURVE",
"319 876 OFFCURVE",
"352 876 CURVE SMOOTH",
"385 876 OFFCURVE",
"408 854 OFFCURVE",
"408 820 CURVE SMOOTH",
"408 786 OFFCURVE",
"385 765 OFFCURVE",
"352 765 CURVE SMOOTH"
);
}
);
width = 705;
}
);
leftKerningGroup = A;
note = Aring;
rightKerningGroup = A;
unicode = 00C5;
},
{
glyphname = Aringacute;
lastChange = "2015-11-28 05:20:21 +0000";
layers = (
{
layerId = "55230DDF-46DB-445B-B73A-3B2EF2AFB87A";
name = Light;
paths = (
{
closed = 1;
nodes = (
"212 0 LINE",
"212 9 LINE",
"192 17 OFFCURVE",
"167 23 OFFCURVE",
"129 27 CURVE",
"341 618 LINE",
"551 27 LINE",
"517 24 OFFCURVE",
"492 19 OFFCURVE",
"469 10 CURVE",
"469 0 LINE",
"698 0 LINE",
"698 10 LINE",
"674 19 OFFCURVE",
"647 25 OFFCURVE",
"620 28 CURVE",
"376 704 LINE",
"329 704 LINE",
"85 29 LINE",
"64 27 OFFCURVE",
"31 20 OFFCURVE",
"7 11 CURVE",
"7 0 LINE"
);
},
{
closed = 1;
nodes = (
"515 183 LINE",
"515 214 LINE",
"170 214 LINE",
"170 183 LINE"
);
},
{
closed = 1;
nodes = (
"403 734 OFFCURVE",
"439 768 OFFCURVE",
"439 817 CURVE SMOOTH",
"439 867 OFFCURVE",
"403 901 OFFCURVE",
"352 901 CURVE SMOOTH",
"301 901 OFFCURVE",
"264 867 OFFCURVE",
"264 817 CURVE SMOOTH",
"264 768 OFFCURVE",
"301 734 OFFCURVE",
"352 734 CURVE SMOOTH"
);
},
{
closed = 1;
nodes = (
"319 762 OFFCURVE",
"295 783 OFFCURVE",
"295 817 CURVE SMOOTH",
"295 851 OFFCURVE",
"319 873 OFFCURVE",
"352 873 CURVE SMOOTH",
"385 873 OFFCURVE",
"408 851 OFFCURVE",
"408 817 CURVE SMOOTH",
"408 783 OFFCURVE",
"385 762 OFFCURVE",
"352 762 CURVE SMOOTH"
);
},
{
closed = 1;
nodes = (
"457 1008 LINE SMOOTH",
"475 1019 OFFCURVE",
"484 1031 OFFCURVE",
"484 1044 CURVE SMOOTH",
"484 1056 OFFCURVE",
"475 1067 OFFCURVE",
"459 1067 CURVE SMOOTH",
"441 1067 OFFCURVE",
"427 1055 OFFCURVE",
"420 1048 CURVE",
"308 948 LINE",
"321 929 LINE"
);
}
);
width = 705;
}
);
leftKerningGroup = A;
note = Aringacute;
rightKerningGroup = A;
unicode = 01FA;
},
{
glyphname = Atilde;
lastChange = "2015-11-28 05:20:19 +0000";
layers = (
{
layerId = "55230DDF-46DB-445B-B73A-3B2EF2AFB87A";
name = Light;
paths = (
{
closed = 1;
nodes = (
"212 0 LINE",
"212 9 LINE",
"192 17 OFFCURVE",
"167 23 OFFCURVE",
"129 27 CURVE",
"341 618 LINE",
"551 27 LINE",
"517 24 OFFCURVE",
"492 19 OFFCURVE",
"469 10 CURVE",
"469 0 LINE",
"698 0 LINE",
"698 10 LINE",
"674 19 OFFCURVE",
"647 25 OFFCURVE",
"620 28 CURVE",
"376 704 LINE",
"329 704 LINE",
"85 29 LINE",
"64 27 OFFCURVE",
"31 20 OFFCURVE",
"7 11 CURVE",
"7 0 LINE"
);
},
{
closed = 1;
nodes = (
"515 183 LINE",
"515 214 LINE",
"170 214 LINE",
"170 183 LINE"
);
},
{
closed = 1;
nodes = (
"217 786 LINE",
"225 822 OFFCURVE",
"248 845 OFFCURVE",
"279 845 CURVE SMOOTH",
"320 845 OFFCURVE",
"373 787 OFFCURVE",
"420 787 CURVE SMOOTH",
"473 787 OFFCURVE",
"502 826 OFFCURVE",
"511 887 CURVE",
"486 887 LINE",
"476 845 OFFCURVE",
"453 825 OFFCURVE",
"422 825 CURVE SMOOTH",
"381 825 OFFCURVE",
"334 881 OFFCURVE",
"281 881 CURVE SMOOTH",
"234 881 OFFCURVE",
"200 852 OFFCURVE",
"191 786 CURVE"
);
}
);
width = 705;
}
);
leftKerningGroup = A;
note = Atilde;
rightKerningGroup = A;
unicode = 00C3;
},
{
glyphname = AE;
lastChange = "2015-11-28 05:20:22 +0000";
layers = (
{
layerId = "55230DDF-46DB-445B-B73A-3B2EF2AFB87A";
name = Light;
paths = (
{
closed = 1;
nodes = (
"215 0 LINE",
"215 9 LINE",
"195 17 OFFCURVE",
"168 23 OFFCURVE",
"130 27 CURVE",
"223 183 LINE",
"514 183 LINE",
"514 27 LINE",
"476 23 OFFCURVE",
"452 17 OFFCURVE",
"432 10 CURVE",
"432 0 LINE",
"922 0 LINE",
"935 134 LINE",
"918 134 LINE",
"907 115 OFFCURVE",
"887 58 OFFCURVE",
"884 31 CURVE",
"585 31 LINE",
"585 344 LINE",
"806 344 LINE",
"808 326 OFFCURVE",
"814 286 OFFCURVE",
"823 262 CURVE",
"837 262 LINE",
"837 457 LINE",
"823 457 LINE",
"814 434 OFFCURVE",
"808 393 OFFCURVE",
"806 375 CURVE",
"585 375 LINE",
"585 668 LINE",
"882 668 LINE",
"884 643 OFFCURVE",
"895 584 OFFCURVE",
"905 565 CURVE",
"923 565 LINE",
"923 700 LINE",
"428 700 LINE",
"428 690 LINE",
"442 683 OFFCURVE",
"458 681 OFFCURVE",
"475 677 CURVE",
"80 29 LINE",
"54 25 OFFCURVE",
"32 19 OFFCURVE",
"7 10 CURVE",
"7 0 LINE"
);
},
{
closed = 1;
nodes = (
"509 668 LINE",
"514 668 LINE",
"514 214 LINE",
"242 214 LINE"
);
}
);
width = 986;
}
);
leftKerningGroup = A;
note = AE;
unicode = 00C6;
},
{
glyphname = AEacute;
lastChange = "2015-11-28 05:20:21 +0000";
layers = (
{
layerId = "55230DDF-46DB-445B-B73A-3B2EF2AFB87A";
name = Light;
paths = (
{
closed = 1;
nodes = (
"215 0 LINE",
"215 9 LINE",
"195 17 OFFCURVE",
"168 23 OFFCURVE",
"130 27 CURVE",
"223 183 LINE",
"514 183 LINE",
"514 27 LINE",
"476 23 OFFCURVE",
"452 17 OFFCURVE",
"432 10 CURVE",
"432 0 LINE",
"922 0 LINE",
"935 134 LINE",
"918 134 LINE",
"907 115 OFFCURVE",
"887 58 OFFCURVE",
"884 31 CURVE",
"585 31 LINE",
"585 344 LINE",
"806 344 LINE",
"808 326 OFFCURVE",
"814 286 OFFCURVE",
"823 262 CURVE",
"837 262 LINE",
"837 457 LINE",
"823 457 LINE",
"814 434 OFFCURVE",
"808 393 OFFCURVE",
"806 375 CURVE",
"585 375 LINE",
"585 668 LINE",
"882 668 LINE",
"884 643 OFFCURVE",
"895 584 OFFCURVE",
"905 565 CURVE",
"923 565 LINE",
"923 700 LINE",
"428 700 LINE",
"428 690 LINE",
"442 683 OFFCURVE",
"458 681 OFFCURVE",
"475 677 CURVE",
"80 29 LINE",
"54 25 OFFCURVE",
"32 19 OFFCURVE",
"7 10 CURVE",
"7 0 LINE"
);
},
{
closed = 1;
nodes = (
"509 668 LINE",
"514 668 LINE",
"514 214 LINE",
"242 214 LINE"
);
},
{
closed = 1;
nodes = (
"775 865 LINE SMOOTH",
"793 876 OFFCURVE",
"802 888 OFFCURVE",
"802 901 CURVE SMOOTH",
"802 913 OFFCURVE",
"793 924 OFFCURVE",
"777 924 CURVE SMOOTH",
"759 924 OFFCURVE",
"745 912 OFFCURVE",
"738 905 CURVE",
"626 805 LINE",
"639 786 LINE"
);
}
);
width = 986;
}
);
leftKerningGroup = A;
note = AEacute;
unicode = 01FC;
},
{
glyphname = B;
lastChange = "2015-11-28 05:20:20 +0000";
layers = (
{
layerId = "55230DDF-46DB-445B-B73A-3B2EF2AFB87A";
name = Light;
paths = (
{
closed = 1;
nodes = (
"345 0 LINE SMOOTH",
"500 0 OFFCURVE",
"560 67 OFFCURVE",
"560 190 CURVE SMOOTH",
"560 263 OFFCURVE",
"526 350 OFFCURVE",
"400 369 CURVE",
"400 373 LINE",
"494 390 OFFCURVE",
"531 468 OFFCURVE",
"531 535 CURVE SMOOTH",
"531 647 OFFCURVE",
"471 700 OFFCURVE",
"314 700 CURVE SMOOTH",
"41 700 LINE",
"41 689 LINE",
"67 681 OFFCURVE",
"95 676 OFFCURVE",
"122 672 CURVE",
"122 28 LINE",
"87 24 OFFCURVE",
"67 20 OFFCURVE",
"41 10 CURVE",
"41 0 LINE"
);
},
{
closed = 1;
nodes = (
"193 353 LINE",
"326 353 LINE SMOOTH",
"431 353 OFFCURVE",
"492 295 OFFCURVE",
"492 192 CURVE SMOOTH",
"492 86 OFFCURVE",
"445 31 OFFCURVE",
"339 31 CURVE SMOOTH",
"193 31 LINE"
);
},
{
closed = 1;
nodes = (
"193 668 LINE",
"308 668 LINE SMOOTH",
"416 668 OFFCURVE",
"461 626 OFFCURVE",
"461 533 CURVE SMOOTH",
"461 443 OFFCURVE",
"409 384 OFFCURVE",
"304 384 CURVE SMOOTH",
"193 384 LINE"
);
}
);
width = 593;
}
);
note = B;
unicode = 0042;
},
{
glyphname = C;
lastChange = "2015-11-28 05:20:15 +0000";
layers = (
{
layerId = "55230DDF-46DB-445B-B73A-3B2EF2AFB87A";
name = Light;
paths = (
{
closed = 1;
nodes = (
"441 -10 OFFCURVE",
"512 12 OFFCURVE",
"557 52 CURVE",
"546 74 LINE",
"491 39 OFFCURVE",
"420 22 OFFCURVE",
"376 22 CURVE SMOOTH",
"188 22 OFFCURVE",
"122 164 OFFCURVE",
"122 350 CURVE SMOOTH",
"122 537 OFFCURVE",
"197 678 OFFCURVE",
"380 678 CURVE SMOOTH",
"437 678 OFFCURVE",
"486 658 OFFCURVE",
"513 636 CURVE",
"516 605 OFFCURVE",
"522 554 OFFCURVE",
"531 530 CURVE",
"550 530 LINE",
"558 644 LINE",
"514 684 OFFCURVE",
"449 710 OFFCURVE",
"362 710 CURVE SMOOTH",
"161 710 OFFCURVE",
"50 572 OFFCURVE",
"50 350 CURVE SMOOTH",
"50 127 OFFCURVE",
"154 -10 OFFCURVE",
"362 -10 CURVE SMOOTH"
);
}
);
width = 604;
}
);
leftKerningGroup = C;
note = C;
unicode = 0043;
},
{
glyphname = Cacute;
lastChange = "2015-11-28 05:20:19 +0000";
layers = (
{
layerId = "55230DDF-46DB-445B-B73A-3B2EF2AFB87A";
name = Light;
paths = (
{
closed = 1;
nodes = (
"441 -10 OFFCURVE",
"512 12 OFFCURVE",
"557 52 CURVE",
"546 74 LINE",
"491 39 OFFCURVE",
"420 22 OFFCURVE",
"376 22 CURVE SMOOTH",
"188 22 OFFCURVE",
"122 164 OFFCURVE",
"122 350 CURVE SMOOTH",
"122 537 OFFCURVE",
"197 678 OFFCURVE",
"380 678 CURVE SMOOTH",
"437 678 OFFCURVE",
"486 658 OFFCURVE",
"513 636 CURVE",
"516 605 OFFCURVE",
"522 554 OFFCURVE",
"531 530 CURVE",
"550 530 LINE",
"558 644 LINE",
"514 684 OFFCURVE",
"449 710 OFFCURVE",
"362 710 CURVE SMOOTH",
"161 710 OFFCURVE",
"50 572 OFFCURVE",
"50 350 CURVE SMOOTH",
"50 127 OFFCURVE",
"154 -10 OFFCURVE",
"362 -10 CURVE SMOOTH"
);
},
{
closed = 1;
nodes = (
"439 865 LINE SMOOTH",
"457 876 OFFCURVE",
"466 888 OFFCURVE",
"466 901 CURVE SMOOTH",
"466 913 OFFCURVE",
"457 924 OFFCURVE",
"441 924 CURVE SMOOTH",
"423 924 OFFCURVE",
"409 912 OFFCURVE",
"402 905 CURVE",
"290 805 LINE",
"303 786 LINE"
);
}
);
width = 604;
}
);
leftKerningGroup = C;
note = Cacute;
unicode = 0106;
},
{
glyphname = Ccaron;
lastChange = "2015-11-28 05:20:21 +0000";
layers = (
{
layerId = "55230DDF-46DB-445B-B73A-3B2EF2AFB87A";
name = Light;
paths = (
{
closed = 1;
nodes = (
"441 -10 OFFCURVE",
"512 12 OFFCURVE",
"557 52 CURVE",
"546 74 LINE",
"491 39 OFFCURVE",
"420 22 OFFCURVE",
"376 22 CURVE SMOOTH",
"188 22 OFFCURVE",
"122 164 OFFCURVE",
"122 350 CURVE SMOOTH",
"122 537 OFFCURVE",
"197 678 OFFCURVE",
"380 678 CURVE SMOOTH",
"437 678 OFFCURVE",
"486 658 OFFCURVE",
"513 636 CURVE",
"516 605 OFFCURVE",
"522 554 OFFCURVE",
"531 530 CURVE",
"550 530 LINE",
"558 644 LINE",
"514 684 OFFCURVE",
"449 710 OFFCURVE",
"362 710 CURVE SMOOTH",
"161 710 OFFCURVE",
"50 572 OFFCURVE",
"50 350 CURVE SMOOTH",
"50 127 OFFCURVE",
"154 -10 OFFCURVE",
"362 -10 CURVE SMOOTH"
);
},
{
closed = 1;
nodes = (
"391 786 LINE",
"422 829 OFFCURVE",
"475 876 OFFCURVE",
"514 903 CURVE",
"485 930 LINE",
"448 903 OFFCURVE",
"404 863 OFFCURVE",
"377 828 CURVE",
"372 828 LINE",
"345 863 OFFCURVE",
"301 903 OFFCURVE",
"264 930 CURVE",
"235 903 LINE",
"274 876 OFFCURVE",
"327 829 OFFCURVE",
"358 786 CURVE"
);
}
);
width = 604;
}
);
leftKerningGroup = C;
note = Ccaron;
unicode = 010C;
},
{
glyphname = Ccedilla;
lastChange = "2015-11-28 05:20:20 +0000";
layers = (
{
layerId = "55230DDF-46DB-445B-B73A-3B2EF2AFB87A";
name = Light;
paths = (
{
closed = 1;
nodes = (
"441 -10 OFFCURVE",
"512 12 OFFCURVE",
"557 52 CURVE",
"546 74 LINE",
"491 39 OFFCURVE",
"420 22 OFFCURVE",
"376 22 CURVE SMOOTH",
"188 22 OFFCURVE",
"122 164 OFFCURVE",
"122 350 CURVE SMOOTH",
"122 537 OFFCURVE",
"197 678 OFFCURVE",
"380 678 CURVE SMOOTH",
"437 678 OFFCURVE",
"486 658 OFFCURVE",
"513 636 CURVE",
"516 605 OFFCURVE",
"522 554 OFFCURVE",
"531 530 CURVE",
"550 530 LINE",
"558 644 LINE",
"514 684 OFFCURVE",
"449 710 OFFCURVE",
"362 710 CURVE SMOOTH",
"161 710 OFFCURVE",
"50 572 OFFCURVE",
"50 350 CURVE SMOOTH",
"50 127 OFFCURVE",
"154 -10 OFFCURVE",
"362 -10 CURVE SMOOTH"
);
},
{
closed = 1;
nodes = (
"392 -210 OFFCURVE",
"441 -184 OFFCURVE",
"441 -129 CURVE SMOOTH",
"441 -87 OFFCURVE",
"403 -68 OFFCURVE",
"348 -68 CURVE SMOOTH",
"339 -68 LINE",
"373 6 LINE",
"335 6 LINE",
"297 -70 LINE",
"318 -96 LINE",
"325 -95 OFFCURVE",
"334 -94 OFFCURVE",
"343 -94 CURVE SMOOTH",
"369 -94 OFFCURVE",
"399 -103 OFFCURVE",
"399 -129 CURVE SMOOTH",
"399 -165 OFFCURVE",
"369 -180 OFFCURVE",
"327 -180 CURVE SMOOTH",
"308 -180 OFFCURVE",
"287 -177 OFFCURVE",
"269 -171 CURVE",
"255 -196 LINE",
"277 -205 OFFCURVE",
"305 -210 OFFCURVE",
"329 -210 CURVE SMOOTH"
);
}
);
width = 604;
}
);
leftKerningGroup = C;
note = Ccedilla;
unicode = 00C7;
},
{
glyphname = Ccircumflex;
lastChange = "2015-11-28 05:20:20 +0000";
layers = (
{
layerId = "55230DDF-46DB-445B-B73A-3B2EF2AFB87A";
name = Light;
paths = (
{
closed = 1;
nodes = (
"441 -10 OFFCURVE",
"512 12 OFFCURVE",
"557 52 CURVE",
"546 74 LINE",
"491 39 OFFCURVE",
"420 22 OFFCURVE",
"376 22 CURVE SMOOTH",
"188 22 OFFCURVE",
"122 164 OFFCURVE",
"122 350 CURVE SMOOTH",
"122 537 OFFCURVE",
"197 678 OFFCURVE",
"380 678 CURVE SMOOTH",
"437 678 OFFCURVE",
"486 658 OFFCURVE",
"513 636 CURVE",
"516 605 OFFCURVE",
"522 554 OFFCURVE",
"531 530 CURVE",
"550 530 LINE",
"558 644 LINE",
"514 684 OFFCURVE",
"449 710 OFFCURVE",
"362 710 CURVE SMOOTH",
"161 710 OFFCURVE",
"50 572 OFFCURVE",
"50 350 CURVE SMOOTH",
"50 127 OFFCURVE",
"154 -10 OFFCURVE",
"362 -10 CURVE SMOOTH"
);
},
{
closed = 1;
nodes = (
"295 806 OFFCURVE",
"339 846 OFFCURVE",
"366 881 CURVE",
"371 881 LINE",
"398 846 OFFCURVE",
"442 806 OFFCURVE",
"479 779 CURVE",
"508 806 LINE",
"469 833 OFFCURVE",
"416 880 OFFCURVE",
"385 922 CURVE",
"352 922 LINE",
"321 880 OFFCURVE",
"268 833 OFFCURVE",
"229 806 CURVE",
"258 779 LINE"
);
}
);
width = 604;
}
);
leftKerningGroup = C;
note = Ccircumflex;
unicode = 0108;
},
{
glyphname = Cdotaccent;
lastChange = "2015-11-28 05:20:20 +0000";
layers = (
{
layerId = "55230DDF-46DB-445B-B73A-3B2EF2AFB87A";
name = Light;
paths = (
{
closed = 1;
nodes = (
"441 -10 OFFCURVE",
"512 12 OFFCURVE",
"557 52 CURVE",
"546 74 LINE",
"491 39 OFFCURVE",
"420 22 OFFCURVE",
"376 22 CURVE SMOOTH",
"188 22 OFFCURVE",
"122 164 OFFCURVE",
"122 350 CURVE SMOOTH",
"122 537 OFFCURVE",
"197 678 OFFCURVE",
"380 678 CURVE SMOOTH",
"437 678 OFFCURVE",
"486 658 OFFCURVE",
"513 636 CURVE",
"516 605 OFFCURVE",
"522 554 OFFCURVE",
"531 530 CURVE",
"550 530 LINE",
"558 644 LINE",
"514 684 OFFCURVE",
"449 710 OFFCURVE",
"362 710 CURVE SMOOTH",
"161 710 OFFCURVE",
"50 572 OFFCURVE",
"50 350 CURVE SMOOTH",
"50 127 OFFCURVE",
"154 -10 OFFCURVE",
"362 -10 CURVE SMOOTH"
);
},
{
closed = 1;
nodes = (
"401 785 OFFCURVE",
"417 801 OFFCURVE",
"417 825 CURVE SMOOTH",
"417 850 OFFCURVE",
"401 866 OFFCURVE",
"378 866 CURVE SMOOTH",
"354 866 OFFCURVE",
"339 850 OFFCURVE",
"339 825 CURVE SMOOTH",
"339 801 OFFCURVE",
"354 785 OFFCURVE",
"378 785 CURVE SMOOTH"
);
}
);
width = 604;
}
);
leftKerningGroup = C;
note = Cdotaccent;
unicode = 010A;
},
{
glyphname = D;
lastChange = "2015-11-28 05:20:20 +0000";
layers = (
{
layerId = "55230DDF-46DB-445B-B73A-3B2EF2AFB87A";
name = Light;
paths = (
{
closed = 1;
nodes = (
"332 0 LINE SMOOTH",
"534 0 OFFCURVE",
"615 127 OFFCURVE",
"615 350 CURVE SMOOTH",
"615 573 OFFCURVE",
"535 700 OFFCURVE",
"333 700 CURVE SMOOTH",
"43 700 LINE",
"43 690 LINE",
"68 682 OFFCURVE",
"96 676 OFFCURVE",
"123 672 CURVE",
"123 27 LINE",
"88 24 OFFCURVE",
"64 17 OFFCURVE",
"43 10 CURVE",
"43 0 LINE"
);
},
{
closed = 1;
nodes = (
"194 668 LINE",
"332 668 LINE SMOOTH",
"493 668 OFFCURVE",
"543 540 OFFCURVE",
"543 350 CURVE SMOOTH",
"543 159 OFFCURVE",
"493 31 OFFCURVE",
"330 31 CURVE SMOOTH",
"194 31 LINE"
);
}
);
width = 654;
}
);
note = D;
rightKerningGroup = D;
unicode = 0044;
},
{
glyphname = Eth;
lastChange = "2015-11-28 05:20:20 +0000";
layers = (
{
layerId = "55230DDF-46DB-445B-B73A-3B2EF2AFB87A";
name = Light;
paths = (
{
closed = 1;
nodes = (
"332 0 LINE SMOOTH",
"534 0 OFFCURVE",
"615 127 OFFCURVE",
"615 350 CURVE SMOOTH",
"615 573 OFFCURVE",
"535 700 OFFCURVE",
"333 700 CURVE SMOOTH",
"43 700 LINE",
"43 690 LINE",
"68 682 OFFCURVE",
"96 676 OFFCURVE",
"123 672 CURVE",
"123 27 LINE",
"88 24 OFFCURVE",
"64 17 OFFCURVE",
"43 10 CURVE",
"43 0 LINE"
);
},
{
closed = 1;
nodes = (
"370 317 LINE",
"370 348 LINE",
"48 348 LINE",
"48 317 LINE"
);
},
{
closed = 1;
nodes = (
"194 668 LINE",
"332 668 LINE SMOOTH",
"493 668 OFFCURVE",
"543 540 OFFCURVE",
"543 350 CURVE SMOOTH",
"543 159 OFFCURVE",
"493 31 OFFCURVE",
"330 31 CURVE SMOOTH",
"194 31 LINE"
);
}
);
width = 654;
}
);
note = Eth;
rightKerningGroup = D;
unicode = 00D0;
},
{
glyphname = Dcaron;
lastChange = "2015-11-28 05:20:20 +0000";
layers = (
{
layerId = "55230DDF-46DB-445B-B73A-3B2EF2AFB87A";
name = Light;
paths = (
{
closed = 1;
nodes = (
"332 0 LINE SMOOTH",
"534 0 OFFCURVE",
"615 127 OFFCURVE",
"615 350 CURVE SMOOTH",
"615 573 OFFCURVE",
"535 700 OFFCURVE",
"333 700 CURVE SMOOTH",
"43 700 LINE",
"43 690 LINE",
"68 682 OFFCURVE",
"96 676 OFFCURVE",
"123 672 CURVE",
"123 27 LINE",
"88 24 OFFCURVE",
"64 17 OFFCURVE",
"43 10 CURVE",
"43 0 LINE"
);
},
{
closed = 1;
nodes = (
"194 668 LINE",
"332 668 LINE SMOOTH",
"493 668 OFFCURVE",
"543 540 OFFCURVE",
"543 350 CURVE SMOOTH",
"543 159 OFFCURVE",
"493 31 OFFCURVE",
"330 31 CURVE SMOOTH",
"194 31 LINE"
);
},
{
closed = 1;
nodes = (
"346 786 LINE",
"377 829 OFFCURVE",
"430 876 OFFCURVE",
"469 903 CURVE",
"440 930 LINE",
"403 903 OFFCURVE",
"359 863 OFFCURVE",
"332 828 CURVE",
"327 828 LINE",
"300 863 OFFCURVE",
"256 903 OFFCURVE",
"219 930 CURVE",
"190 903 LINE",
"229 876 OFFCURVE",
"282 829 OFFCURVE",
"313 786 CURVE"
);
}
);
width = 654;
}
);
note = Dcaron;
rightKerningGroup = D;
unicode = 010E;
},
{
glyphname = Dcroat;
lastChange = "2015-11-28 05:20:21 +0000";
layers = (
{
layerId = "55230DDF-46DB-445B-B73A-3B2EF2AFB87A";
name = Light;
paths = (
{
closed = 1;
nodes = (
"332 0 LINE SMOOTH",
"534 0 OFFCURVE",
"615 127 OFFCURVE",
"615 350 CURVE SMOOTH",
"615 573 OFFCURVE",
"535 700 OFFCURVE",
"333 700 CURVE SMOOTH",
"43 700 LINE",
"43 690 LINE",
"68 682 OFFCURVE",
"96 676 OFFCURVE",
"123 672 CURVE",
"123 27 LINE",
"88 24 OFFCURVE",
"64 17 OFFCURVE",
"43 10 CURVE",
"43 0 LINE"
);
},
{
closed = 1;
nodes = (
"370 317 LINE",
"370 348 LINE",
"48 348 LINE",
"48 317 LINE"
);
},
{
closed = 1;
nodes = (
"194 668 LINE",
"332 668 LINE SMOOTH",
"493 668 OFFCURVE",
"543 540 OFFCURVE",
"543 350 CURVE SMOOTH",
"543 159 OFFCURVE",
"493 31 OFFCURVE",
"330 31 CURVE SMOOTH",
"194 31 LINE"
);
}
);
width = 654;
}
);
note = Dcroat;
rightKerningGroup = D;
unicode = 0110;
},
{
glyphname = Ddotbelow;
lastChange = "2015-11-28 05:20:21 +0000";
layers = (
{
layerId = "55230DDF-46DB-445B-B73A-3B2EF2AFB87A";
name = Light;
paths = (
{
closed = 1;
nodes = (
"332 0 LINE SMOOTH",
"534 0 OFFCURVE",
"615 127 OFFCURVE",
"615 350 CURVE SMOOTH",
"615 573 OFFCURVE",
"535 700 OFFCURVE",
"333 700 CURVE SMOOTH",
"43 700 LINE",
"43 690 LINE",
"68 682 OFFCURVE",
"96 676 OFFCURVE",
"123 672 CURVE",
"123 27 LINE",
"88 24 OFFCURVE",
"64 17 OFFCURVE",
"43 10 CURVE",
"43 0 LINE"
);
},
{
closed = 1;
nodes = (
"338 -142 OFFCURVE",
"354 -126 OFFCURVE",
"354 -102 CURVE SMOOTH",
"354 -77 OFFCURVE",
"338 -61 OFFCURVE",
"315 -61 CURVE SMOOTH",
"292 -61 OFFCURVE",
"276 -77 OFFCURVE",
"276 -102 CURVE SMOOTH",
"276 -126 OFFCURVE",
"292 -142 OFFCURVE",
"315 -142 CURVE SMOOTH"
);
},
{
closed = 1;
nodes = (
"194 668 LINE",
"332 668 LINE SMOOTH",
"493 668 OFFCURVE",
"543 540 OFFCURVE",
"543 350 CURVE SMOOTH",
"543 159 OFFCURVE",
"493 31 OFFCURVE",
"330 31 CURVE SMOOTH",
"194 31 LINE"
);
}
);
width = 654;
}
);
note = Ddotbelow;
rightKerningGroup = D;
unicode = 1E0C;
},
{
glyphname = Dlinebelow;
lastChange = "2015-11-28 05:20:21 +0000";
layers = (
{
layerId = "55230DDF-46DB-445B-B73A-3B2EF2AFB87A";
name = Light;
paths = (
{
closed = 1;
nodes = (
"332 0 LINE SMOOTH",
"534 0 OFFCURVE",
"615 127 OFFCURVE",
"615 350 CURVE SMOOTH",
"615 573 OFFCURVE",
"535 700 OFFCURVE",
"333 700 CURVE SMOOTH",
"43 700 LINE",
"43 690 LINE",
"68 682 OFFCURVE",
"96 676 OFFCURVE",
"123 672 CURVE",
"123 27 LINE",
"88 24 OFFCURVE",
"64 17 OFFCURVE",
"43 10 CURVE",
"43 0 LINE"
);
},
{
closed = 1;
nodes = (
"454 -102 LINE",
"454 -71 LINE",
"140 -71 LINE",
"140 -102 LINE"
);
},
{
closed = 1;
nodes = (
"194 668 LINE",
"332 668 LINE SMOOTH",
"493 668 OFFCURVE",
"543 540 OFFCURVE",
"543 350 CURVE SMOOTH",
"543 159 OFFCURVE",
"493 31 OFFCURVE",
"330 31 CURVE SMOOTH",
"194 31 LINE"
);
}
);
width = 654;
}
);
note = Dlinebelow;
rightKerningGroup = D;
unicode = 1E0E;
},
{
glyphname = E;
lastChange = "2015-11-28 05:20:21 +0000";
layers = (
{
layerId = "55230DDF-46DB-445B-B73A-3B2EF2AFB87A";
name = Light;
paths = (
{
closed = 1;
nodes = (
"534 0 LINE",
"547 134 LINE",
"529 134 LINE",
"518 115 OFFCURVE",
"498 58 OFFCURVE",
"496 31 CURVE",
"197 31 LINE",
"197 668 LINE",
"494 668 LINE",
"496 643 OFFCURVE",
"507 584 OFFCURVE",
"517 565 CURVE",
"534 565 LINE",
"534 700 LINE",
"43 700 LINE",
"43 690 LINE",
"68 682 OFFCURVE",
"99 675 OFFCURVE",
"126 672 CURVE",
"126 27 LINE",
"91 24 OFFCURVE",
"64 17 OFFCURVE",
"43 10 CURVE",
"43 0 LINE"
);
},
{
closed = 1;
nodes = (
"448 252 LINE",
"448 447 LINE",
"435 447 LINE",
"426 424 OFFCURVE",
"419 383 OFFCURVE",
"417 365 CURVE",
"150 365 LINE",
"150 334 LINE",
"417 334 LINE",
"419 316 OFFCURVE",
"426 276 OFFCURVE",
"435 252 CURVE"
);
}
);
width = 597;
}
);
note = E;
unicode = 0045;
},
{
glyphname = Eacute;
lastChange = "2015-11-28 05:20:21 +0000";
layers = (
{
layerId = "55230DDF-46DB-445B-B73A-3B2EF2AFB87A";
name = Light;
paths = (
{
closed = 1;
nodes = (
"534 0 LINE",
"547 134 LINE",
"529 134 LINE",
"518 115 OFFCURVE",
"498 58 OFFCURVE",
"496 31 CURVE",
"197 31 LINE",
"197 668 LINE",
"494 668 LINE",
"496 643 OFFCURVE",
"507 584 OFFCURVE",
"517 565 CURVE",
"534 565 LINE",
"534 700 LINE",
"43 700 LINE",
"43 690 LINE",
"68 682 OFFCURVE",
"99 675 OFFCURVE",
"126 672 CURVE",
"126 27 LINE",
"91 24 OFFCURVE",
"64 17 OFFCURVE",
"43 10 CURVE",
"43 0 LINE"
);
},
{
closed = 1;
nodes = (
"448 252 LINE",
"448 447 LINE",
"435 447 LINE",
"426 424 OFFCURVE",
"419 383 OFFCURVE",
"417 365 CURVE",
"150 365 LINE",
"150 334 LINE",
"417 334 LINE",
"419 316 OFFCURVE",
"426 276 OFFCURVE",
"435 252 CURVE"
);
},
{
closed = 1;
nodes = (
"373 865 LINE SMOOTH",
"391 876 OFFCURVE",
"400 888 OFFCURVE",
"400 901 CURVE SMOOTH",
"400 913 OFFCURVE",
"391 924 OFFCURVE",
"375 924 CURVE SMOOTH",
"357 924 OFFCURVE",
"343 912 OFFCURVE",
"336 905 CURVE",
"224 805 LINE",
"237 786 LINE"
);
}
);
width = 597;
}
);
note = Eacute;
unicode = 00C9;
},
{
glyphname = Ebreve;
lastChange = "2015-11-28 05:20:21 +0000";
layers = (
{
layerId = "55230DDF-46DB-445B-B73A-3B2EF2AFB87A";
name = Light;
paths = (
{
closed = 1;
nodes = (
"534 0 LINE",
"547 134 LINE",
"529 134 LINE",
"518 115 OFFCURVE",
"498 58 OFFCURVE",
"496 31 CURVE",
"197 31 LINE",
"197 668 LINE",
"494 668 LINE",
"496 643 OFFCURVE",
"507 584 OFFCURVE",
"517 565 CURVE",
"534 565 LINE",
"534 700 LINE",
"43 700 LINE",
"43 690 LINE",
"68 682 OFFCURVE",
"99 675 OFFCURVE",
"126 672 CURVE",
"126 27 LINE",
"91 24 OFFCURVE",
"64 17 OFFCURVE",
"43 10 CURVE",
"43 0 LINE"
);
},
{
closed = 1;
nodes = (
"448 252 LINE",
"448 447 LINE",
"435 447 LINE",
"426 424 OFFCURVE",
"419 383 OFFCURVE",
"417 365 CURVE",
"150 365 LINE",
"150 334 LINE",
"417 334 LINE",
"419 316 OFFCURVE",
"426 276 OFFCURVE",
"435 252 CURVE"
);
},
{
closed = 1;
nodes = (
"411 776 OFFCURVE",
"469 813 OFFCURVE",
"478 896 CURVE",
"432 896 LINE",
"423 819 OFFCURVE",
"372 808 OFFCURVE",
"331 808 CURVE SMOOTH",
"290 808 OFFCURVE",
"238 819 OFFCURVE",
"230 896 CURVE",
"184 896 LINE",
"193 813 OFFCURVE",
"251 776 OFFCURVE",
"331 776 CURVE SMOOTH"
);
}
);
width = 597;
}
);
note = Ebreve;
unicode = 0114;
},
{
glyphname = Ecaron;
lastChange = "2015-11-28 05:20:20 +0000";
layers = (
{
layerId = "55230DDF-46DB-445B-B73A-3B2EF2AFB87A";
name = Light;
paths = (
{
closed = 1;
nodes = (
"534 0 LINE",
"547 134 LINE",
"529 134 LINE",
"518 115 OFFCURVE",
"498 58 OFFCURVE",
"496 31 CURVE",
"197 31 LINE",
"197 668 LINE",
"494 668 LINE",
"496 643 OFFCURVE",
"507 584 OFFCURVE",
"517 565 CURVE",
"534 565 LINE",
"534 700 LINE",
"43 700 LINE",
"43 690 LINE",
"68 682 OFFCURVE",
"99 675 OFFCURVE",
"126 672 CURVE",
"126 27 LINE",
"91 24 OFFCURVE",
"64 17 OFFCURVE",
"43 10 CURVE",
"43 0 LINE"
);
},
{
closed = 1;
nodes = (
"448 252 LINE",
"448 447 LINE",
"435 447 LINE",
"426 424 OFFCURVE",
"419 383 OFFCURVE",
"417 365 CURVE",
"150 365 LINE",
"150 334 LINE",
"417 334 LINE",
"419 316 OFFCURVE",
"426 276 OFFCURVE",
"435 252 CURVE"
);
},
{
closed = 1;
nodes = (
"345 786 LINE",
"376 829 OFFCURVE",
"429 876 OFFCURVE",
"468 903 CURVE",
"439 930 LINE",
"402 903 OFFCURVE",
"358 863 OFFCURVE",
"331 828 CURVE",
"326 828 LINE",
"299 863 OFFCURVE",
"255 903 OFFCURVE",
"218 930 CURVE",
"189 903 LINE",
"228 876 OFFCURVE",
"281 829 OFFCURVE",
"312 786 CURVE"
);
}
);
width = 597;
}
);
note = Ecaron;
unicode = 011A;
},
{
glyphname = Ecircumflex;
lastChange = "2015-11-28 05:20:20 +0000";
layers = (
{
layerId = "55230DDF-46DB-445B-B73A-3B2EF2AFB87A";
name = Light;
paths = (
{
closed = 1;
nodes = (
"534 0 LINE",
"547 134 LINE",
"529 134 LINE",
"518 115 OFFCURVE",
"498 58 OFFCURVE",
"496 31 CURVE",
"197 31 LINE",
"197 668 LINE",
"494 668 LINE",
"496 643 OFFCURVE",
"507 584 OFFCURVE",
"517 565 CURVE",
"534 565 LINE",
"534 700 LINE",
"43 700 LINE",
"43 690 LINE",
"68 682 OFFCURVE",
"99 675 OFFCURVE",
"126 672 CURVE",
"126 27 LINE",
"91 24 OFFCURVE",
"64 17 OFFCURVE",
"43 10 CURVE",
"43 0 LINE"
);
},
{
closed = 1;
nodes = (
"448 252 LINE",
"448 447 LINE",
"435 447 LINE",
"426 424 OFFCURVE",
"419 383 OFFCURVE",
"417 365 CURVE",
"150 365 LINE",
"150 334 LINE",
"417 334 LINE",
"419 316 OFFCURVE",
"426 276 OFFCURVE",
"435 252 CURVE"
);
},
{
closed = 1;
nodes = (
"258 806 OFFCURVE",
"302 846 OFFCURVE",
"329 881 CURVE",
"334 881 LINE",
"361 846 OFFCURVE",
"405 806 OFFCURVE",
"442 779 CURVE",
"471 806 LINE",
"432 833 OFFCURVE",
"379 880 OFFCURVE",
"348 922 CURVE",
"315 922 LINE",
"284 880 OFFCURVE",
"231 833 OFFCURVE",
"192 806 CURVE",
"221 779 LINE"
);
}
);
width = 597;
}
);
note = Ecircumflex;
unicode = 00CA;
},
{
glyphname = Ecircumflexacute;
lastChange = "2015-11-28 05:20:20 +0000";
layers = (
{
layerId = "55230DDF-46DB-445B-B73A-3B2EF2AFB87A";
name = Light;
paths = (
{
closed = 1;
nodes = (
"534 0 LINE",
"547 134 LINE",
"529 134 LINE",
"518 115 OFFCURVE",
"498 58 OFFCURVE",
"496 31 CURVE",
"197 31 LINE",
"197 668 LINE",
"494 668 LINE",
"496 643 OFFCURVE",
"507 584 OFFCURVE",
"517 565 CURVE",
"534 565 LINE",
"534 700 LINE",
"43 700 LINE",
"43 690 LINE",
"68 682 OFFCURVE",
"99 675 OFFCURVE",
"126 672 CURVE",
"126 27 LINE",
"91 24 OFFCURVE",
"64 17 OFFCURVE",
"43 10 CURVE",
"43 0 LINE"
);
},
{
closed = 1;
nodes = (
"448 252 LINE",
"448 447 LINE",
"435 447 LINE",
"426 424 OFFCURVE",
"419 383 OFFCURVE",
"417 365 CURVE",
"150 365 LINE",
"150 334 LINE",
"417 334 LINE",
"419 316 OFFCURVE",
"426 276 OFFCURVE",
"435 252 CURVE"
);
},
{
closed = 1;
nodes = (
"255 806 OFFCURVE",
"299 846 OFFCURVE",
"326 881 CURVE",
"331 881 LINE",
"359 846 OFFCURVE",
"402 806 OFFCURVE",
"439 779 CURVE",
"468 806 LINE",
"430 833 OFFCURVE",
"376 880 OFFCURVE",
"345 922 CURVE",
"312 922 LINE",
"281 880 OFFCURVE",
"228 833 OFFCURVE",
"189 806 CURVE",
"219 779 LINE"
);
},
{
closed = 1;
nodes = (
"551 955 LINE SMOOTH",
"576 968 OFFCURVE",
"587 985 OFFCURVE",
"587 998 CURVE SMOOTH",
"587 1010 OFFCURVE",
"578 1018 OFFCURVE",
"565 1018 CURVE SMOOTH",
"551 1018 OFFCURVE",
"534 1010 OFFCURVE",
"517 992 CURVE",
"428 910 LINE",
"440 893 LINE"
);
}
);
width = 597;
}
);
note = Ecircumflexacute;
unicode = 1EBE;
},
{
glyphname = Ecircumflexdotbelow;
lastChange = "2015-11-28 05:20:19 +0000";
layers = (
{
layerId = "55230DDF-46DB-445B-B73A-3B2EF2AFB87A";
name = Light;
paths = (
{
closed = 1;
nodes = (
"534 0 LINE",
"547 134 LINE",
"529 134 LINE",
"518 115 OFFCURVE",
"498 58 OFFCURVE",
"496 31 CURVE",
"197 31 LINE",
"197 668 LINE",
"494 668 LINE",
"496 643 OFFCURVE",
"507 584 OFFCURVE",
"517 565 CURVE",
"534 565 LINE",
"534 700 LINE",
"43 700 LINE",
"43 690 LINE",
"68 682 OFFCURVE",
"99 675 OFFCURVE",
"126 672 CURVE",
"126 27 LINE",
"91 24 OFFCURVE",
"64 17 OFFCURVE",
"43 10 CURVE",
"43 0 LINE"
);
},
{
closed = 1;
nodes = (
"353 -142 OFFCURVE",
"369 -126 OFFCURVE",
"369 -102 CURVE SMOOTH",
"369 -77 OFFCURVE",
"353 -61 OFFCURVE",
"330 -61 CURVE SMOOTH",
"307 -61 OFFCURVE",
"291 -77 OFFCURVE",
"291 -102 CURVE SMOOTH",
"291 -126 OFFCURVE",
"307 -142 OFFCURVE",
"330 -142 CURVE SMOOTH"
);
},
{
closed = 1;
nodes = (
"448 252 LINE",
"448 447 LINE",
"435 447 LINE",
"426 424 OFFCURVE",
"419 383 OFFCURVE",
"417 365 CURVE",
"150 365 LINE",
"150 334 LINE",
"417 334 LINE",
"419 316 OFFCURVE",
"426 276 OFFCURVE",
"435 252 CURVE"
);
},
{
closed = 1;
nodes = (
"255 806 OFFCURVE",
"299 846 OFFCURVE",
"326 881 CURVE",
"331 881 LINE",
"358 846 OFFCURVE",
"402 806 OFFCURVE",
"439 779 CURVE",
"468 806 LINE",
"429 833 OFFCURVE",
"376 880 OFFCURVE",
"345 922 CURVE",
"312 922 LINE",
"281 880 OFFCURVE",
"228 833 OFFCURVE",
"189 806 CURVE",
"218 779 LINE"
);
}
);
width = 597;
}
);
note = Ecircumflexdotbelow;
unicode = 1EC6;
},
{
glyphname = Ecircumflexgrave;
lastChange = "2015-11-28 05:20:21 +0000";
layers = (
{
layerId = "55230DDF-46DB-445B-B73A-3B2EF2AFB87A";
name = Light;
paths = (
{
closed = 1;
nodes = (
"534 0 LINE",
"547 134 LINE",
"529 134 LINE",
"518 115 OFFCURVE",
"498 58 OFFCURVE",
"496 31 CURVE",
"197 31 LINE",
"197 668 LINE",
"494 668 LINE",
"496 643 OFFCURVE",
"507 584 OFFCURVE",
"517 565 CURVE",
"534 565 LINE",
"534 700 LINE",
"43 700 LINE",
"43 690 LINE",
"68 682 OFFCURVE",
"99 675 OFFCURVE",
"126 672 CURVE",
"126 27 LINE",
"91 24 OFFCURVE",
"64 17 OFFCURVE",
"43 10 CURVE",
"43 0 LINE"
);
},
{
closed = 1;
nodes = (
"448 252 LINE",
"448 447 LINE",
"435 447 LINE",
"426 424 OFFCURVE",
"419 383 OFFCURVE",
"417 365 CURVE",
"150 365 LINE",
"150 334 LINE",
"417 334 LINE",
"419 316 OFFCURVE",
"426 276 OFFCURVE",
"435 252 CURVE"
);
},
{
closed = 1;
nodes = (
"239 910 LINE",
"167 977 LINE SMOOTH",
"144 998 OFFCURVE",
"120 1018 OFFCURVE",
"101 1018 CURVE SMOOTH",
"89 1018 OFFCURVE",
"80 1010 OFFCURVE",
"80 998 CURVE SMOOTH",
"80 980 OFFCURVE",
"106 960 OFFCURVE",
"136 943 CURVE SMOOTH",
"226 893 LINE"
);
},
{
closed = 1;
nodes = (
"255 806 OFFCURVE",
"299 846 OFFCURVE",
"326 881 CURVE",
"331 881 LINE",
"359 846 OFFCURVE",
"402 806 OFFCURVE",
"439 779 CURVE",
"468 806 LINE",
"430 833 OFFCURVE",
"376 880 OFFCURVE",
"345 922 CURVE",
"312 922 LINE",
"281 880 OFFCURVE",
"228 833 OFFCURVE",
"189 806 CURVE",
"219 779 LINE"
);
}
);
width = 597;
}
);
note = Ecircumflexgrave;
unicode = 1EC0;
},
{
glyphname = Ecircumflexhookabove;
lastChange = "2015-11-28 05:20:21 +0000";
layers = (
{
layerId = "55230DDF-46DB-445B-B73A-3B2EF2AFB87A";
name = Light;
paths = (
{
closed = 1;
nodes = (
"534 0 LINE",
"547 134 LINE",
"529 134 LINE",
"518 115 OFFCURVE",
"498 58 OFFCURVE",
"496 31 CURVE",
"197 31 LINE",
"197 668 LINE",
"494 668 LINE",
"496 643 OFFCURVE",
"507 584 OFFCURVE",
"517 565 CURVE",
"534 565 LINE",
"534 700 LINE",
"43 700 LINE",
"43 690 LINE",
"68 682 OFFCURVE",
"99 675 OFFCURVE",
"126 672 CURVE",
"126 27 LINE",
"91 24 OFFCURVE",
"64 17 OFFCURVE",
"43 10 CURVE",
"43 0 LINE"
);
},
{
closed = 1;
nodes = (
"448 252 LINE",
"448 447 LINE",
"435 447 LINE",
"426 424 OFFCURVE",
"419 383 OFFCURVE",
"417 365 CURVE",
"150 365 LINE",
"150 334 LINE",
"417 334 LINE",
"419 316 OFFCURVE",
"426 276 OFFCURVE",
"435 252 CURVE"
);
},
{
closed = 1;
nodes = (
"255 806 OFFCURVE",
"299 846 OFFCURVE",
"326 881 CURVE",
"331 881 LINE",
"359 846 OFFCURVE",
"402 806 OFFCURVE",
"439 779 CURVE",
"468 806 LINE",
"430 833 OFFCURVE",
"376 880 OFFCURVE",
"345 922 CURVE",
"312 922 LINE",
"281 880 OFFCURVE",
"228 833 OFFCURVE",
"189 806 CURVE",
"219 779 LINE"
);
},
{
closed = 1;
nodes = (
"456 879 LINE",
"465 930 LINE",
"509 935 OFFCURVE",
"534 953 OFFCURVE",
"534 991 CURVE SMOOTH",
"534 1035 OFFCURVE",
"496 1053 OFFCURVE",
"456 1053 CURVE SMOOTH",
"432 1053 OFFCURVE",
"409 1046 OFFCURVE",
"394 1039 CURVE",
"399 1016 LINE",
"416 1025 OFFCURVE",
"433 1028 OFFCURVE",
"447 1028 CURVE SMOOTH",
"480 1028 OFFCURVE",
"496 1013 OFFCURVE",
"496 992 CURVE SMOOTH",
"496 968 OFFCURVE",
"479 950 OFFCURVE",
"441 950 CURVE SMOOTH",
"424 950 LINE",
"428 879 LINE"
);
}
);
width = 597;
}
);
note = Ecircumflexhookabove;
unicode = 1EC2;
},
{
glyphname = Ecircumflextilde;
lastChange = "2015-11-28 05:20:19 +0000";
layers = (
{
layerId = "55230DDF-46DB-445B-B73A-3B2EF2AFB87A";
name = Light;
paths = (
{
closed = 1;
nodes = (
"534 0 LINE",
"547 134 LINE",
"529 134 LINE",
"518 115 OFFCURVE",
"498 58 OFFCURVE",
"496 31 CURVE",
"197 31 LINE",
"197 668 LINE",
"494 668 LINE",
"496 643 OFFCURVE",
"507 584 OFFCURVE",
"517 565 CURVE",
"534 565 LINE",
"534 700 LINE",
"43 700 LINE",
"43 690 LINE",
"68 682 OFFCURVE",
"99 675 OFFCURVE",
"126 672 CURVE",
"126 27 LINE",
"91 24 OFFCURVE",
"64 17 OFFCURVE",
"43 10 CURVE",
"43 0 LINE"
);
},
{
closed = 1;
nodes = (
"448 252 LINE",
"448 447 LINE",
"435 447 LINE",
"426 424 OFFCURVE",
"419 383 OFFCURVE",
"417 365 CURVE",
"150 365 LINE",
"150 334 LINE",
"417 334 LINE",
"419 316 OFFCURVE",
"426 276 OFFCURVE",
"435 252 CURVE"
);
},
{
closed = 1;
nodes = (
"255 806 OFFCURVE",
"299 846 OFFCURVE",
"326 881 CURVE",
"331 881 LINE",
"359 846 OFFCURVE",
"402 806 OFFCURVE",
"439 779 CURVE",
"468 806 LINE",
"430 833 OFFCURVE",
"376 880 OFFCURVE",
"345 922 CURVE",
"312 922 LINE",
"281 880 OFFCURVE",
"228 833 OFFCURVE",
"189 806 CURVE",
"219 779 LINE"
);
},
{
closed = 1;
nodes = (
"205 954 LINE",
"213 990 OFFCURVE",
"233 1013 OFFCURVE",
"261 1013 CURVE SMOOTH",
"298 1013 OFFCURVE",
"346 955 OFFCURVE",
"388 955 CURVE SMOOTH",
"436 955 OFFCURVE",
"462 994 OFFCURVE",
"470 1055 CURVE",
"447 1055 LINE",
"438 1013 OFFCURVE",
"418 993 OFFCURVE",
"390 993 CURVE SMOOTH",
"353 993 OFFCURVE",
"311 1049 OFFCURVE",
"263 1049 CURVE SMOOTH",
"221 1049 OFFCURVE",
"190 1020 OFFCURVE",
"182 954 CURVE"
);
}
);
width = 597;
}
);
note = Ecircumflextilde;
unicode = 1EC4;
},
{
glyphname = Edieresis;
lastChange = "2015-11-28 05:20:21 +0000";
layers = (
{
layerId = "55230DDF-46DB-445B-B73A-3B2EF2AFB87A";
name = Light;
paths = (
{
closed = 1;
nodes = (
"534 0 LINE",
"547 134 LINE",
"529 134 LINE",
"518 115 OFFCURVE",
"498 58 OFFCURVE",
"496 31 CURVE",
"197 31 LINE",
"197 668 LINE",
"494 668 LINE",
"496 643 OFFCURVE",
"507 584 OFFCURVE",
"517 565 CURVE",
"534 565 LINE",
"534 700 LINE",
"43 700 LINE",
"43 690 LINE",
"68 682 OFFCURVE",
"99 675 OFFCURVE",
"126 672 CURVE",
"126 27 LINE",
"91 24 OFFCURVE",
"64 17 OFFCURVE",
"43 10 CURVE",
"43 0 LINE"
);
},
{
closed = 1;
nodes = (
"448 252 LINE",
"448 447 LINE",
"435 447 LINE",
"426 424 OFFCURVE",
"419 383 OFFCURVE",
"417 365 CURVE",
"150 365 LINE",
"150 334 LINE",
"417 334 LINE",
"419 316 OFFCURVE",
"426 276 OFFCURVE",
"435 252 CURVE"
);
},
{
closed = 1;
nodes = (
"247 785 OFFCURVE",
"263 801 OFFCURVE",
"263 825 CURVE SMOOTH",
"263 850 OFFCURVE",
"247 866 OFFCURVE",
"224 866 CURVE SMOOTH",
"201 866 OFFCURVE",
"185 850 OFFCURVE",
"185 825 CURVE SMOOTH",
"185 801 OFFCURVE",
"201 785 OFFCURVE",
"224 785 CURVE SMOOTH"
);
},
{
closed = 1;
nodes = (
"460 785 OFFCURVE",
"476 801 OFFCURVE",
"476 825 CURVE SMOOTH",
"476 850 OFFCURVE",
"460 866 OFFCURVE",
"437 866 CURVE SMOOTH",
"414 866 OFFCURVE",
"398 850 OFFCURVE",
"398 825 CURVE SMOOTH",
"398 801 OFFCURVE",
"414 785 OFFCURVE",
"437 785 CURVE SMOOTH"
);
}
);
width = 597;
}
);
note = Edieresis;
unicode = 00CB;
},
{
glyphname = Edotaccent;
lastChange = "2015-11-28 05:20:21 +0000";
layers = (
{
layerId = "55230DDF-46DB-445B-B73A-3B2EF2AFB87A";
name = Light;
paths = (
{
closed = 1;
nodes = (
"534 0 LINE",
"547 134 LINE",
"529 134 LINE",
"518 115 OFFCURVE",
"498 58 OFFCURVE",
"496 31 CURVE",
"197 31 LINE",
"197 668 LINE",
"494 668 LINE",
"496 643 OFFCURVE",
"507 584 OFFCURVE",
"517 565 CURVE",
"534 565 LINE",
"534 700 LINE",
"43 700 LINE",
"43 690 LINE",
"68 682 OFFCURVE",
"99 675 OFFCURVE",
"126 672 CURVE",
"126 27 LINE",
"91 24 OFFCURVE",
"64 17 OFFCURVE",
"43 10 CURVE",
"43 0 LINE"
);
},
{
closed = 1;
nodes = (
"448 252 LINE",
"448 447 LINE",
"435 447 LINE",
"426 424 OFFCURVE",
"419 383 OFFCURVE",
"417 365 CURVE",
"150 365 LINE",
"150 334 LINE",
"417 334 LINE",
"419 316 OFFCURVE",
"426 276 OFFCURVE",
"435 252 CURVE"
);
},
{
closed = 1;
nodes = (
"359 785 OFFCURVE",
"375 801 OFFCURVE",
"375 825 CURVE SMOOTH",
"375 850 OFFCURVE",
"359 866 OFFCURVE",
"336 866 CURVE SMOOTH",
"312 866 OFFCURVE",
"297 850 OFFCURVE",
"297 825 CURVE SMOOTH",
"297 801 OFFCURVE",
"312 785 OFFCURVE",
"336 785 CURVE SMOOTH"
);
}
);
width = 597;
}
);
note = Edotaccent;
unicode = 0116;
},
{
glyphname = Edotbelow;
lastChange = "2015-11-28 05:20:20 +0000";
layers = (
{
layerId = "55230DDF-46DB-445B-B73A-3B2EF2AFB87A";
name = Light;
paths = (
{
closed = 1;
nodes = (
"534 0 LINE",
"547 134 LINE",
"529 134 LINE",
"518 115 OFFCURVE",
"498 58 OFFCURVE",
"496 31 CURVE",
"197 31 LINE",
"197 668 LINE",
"494 668 LINE",
"496 643 OFFCURVE",
"507 584 OFFCURVE",
"517 565 CURVE",
"534 565 LINE",
"534 700 LINE",
"43 700 LINE",
"43 690 LINE",
"68 682 OFFCURVE",
"99 675 OFFCURVE",
"126 672 CURVE",
"126 27 LINE",
"91 24 OFFCURVE",
"64 17 OFFCURVE",
"43 10 CURVE",
"43 0 LINE"
);
},
{
closed = 1;
nodes = (
"331 -142 OFFCURVE",
"347 -126 OFFCURVE",
"347 -102 CURVE SMOOTH",
"347 -77 OFFCURVE",
"331 -61 OFFCURVE",
"308 -61 CURVE SMOOTH",
"285 -61 OFFCURVE",
"269 -77 OFFCURVE",
"269 -102 CURVE SMOOTH",
"269 -126 OFFCURVE",
"285 -142 OFFCURVE",
"308 -142 CURVE SMOOTH"
);
},
{
closed = 1;
nodes = (
"448 252 LINE",
"448 447 LINE",
"435 447 LINE",
"426 424 OFFCURVE",
"419 383 OFFCURVE",
"417 365 CURVE",
"150 365 LINE",
"150 334 LINE",
"417 334 LINE",
"419 316 OFFCURVE",
"426 276 OFFCURVE",
"435 252 CURVE"
);
}
);
width = 597;
}
);
note = Edotbelow;
unicode = 1EB8;
},
{
glyphname = Egrave;
lastChange = "2015-11-28 05:20:19 +0000";
layers = (
{
layerId = "55230DDF-46DB-445B-B73A-3B2EF2AFB87A";
name = Light;
paths = (
{
closed = 1;
nodes = (
"534 0 LINE",
"547 134 LINE",
"529 134 LINE",
"518 115 OFFCURVE",
"498 58 OFFCURVE",
"496 31 CURVE",
"197 31 LINE",
"197 668 LINE",
"494 668 LINE",
"496 643 OFFCURVE",
"507 584 OFFCURVE",
"517 565 CURVE",
"534 565 LINE",
"534 700 LINE",
"43 700 LINE",
"43 690 LINE",
"68 682 OFFCURVE",
"99 675 OFFCURVE",
"126 672 CURVE",
"126 27 LINE",
"91 24 OFFCURVE",
"64 17 OFFCURVE",
"43 10 CURVE",
"43 0 LINE"
);
},
{
closed = 1;
nodes = (
"448 252 LINE",
"448 447 LINE",
"435 447 LINE",
"426 424 OFFCURVE",
"419 383 OFFCURVE",
"417 365 CURVE",
"150 365 LINE",
"150 334 LINE",
"417 334 LINE",
"419 316 OFFCURVE",
"426 276 OFFCURVE",
"435 252 CURVE"
);
},
{
closed = 1;
nodes = (
"418 805 LINE",
"305 905 LINE",
"297 914 OFFCURVE",
"284 924 OFFCURVE",
"267 924 CURVE SMOOTH",
"251 924 OFFCURVE",
"241 913 OFFCURVE",
"241 901 CURVE SMOOTH",
"241 888 OFFCURVE",
"251 876 OFFCURVE",
"269 865 CURVE SMOOTH",
"405 786 LINE"
);
}
);
width = 597;
}
);
note = Egrave;
unicode = 00C8;
},
{
glyphname = Ehookabove;
lastChange = "2015-11-28 05:20:20 +0000";
layers = (
{
layerId = "55230DDF-46DB-445B-B73A-3B2EF2AFB87A";
name = Light;
paths = (
{
closed = 1;
nodes = (
"534 0 LINE",
"547 134 LINE",
"529 134 LINE",
"518 115 OFFCURVE",
"498 58 OFFCURVE",
"496 31 CURVE",
"197 31 LINE",
"197 668 LINE",
"494 668 LINE",
"496 643 OFFCURVE",
"507 584 OFFCURVE",
"517 565 CURVE",
"534 565 LINE",
"534 700 LINE",
"43 700 LINE",
"43 690 LINE",
"68 682 OFFCURVE",
"99 675 OFFCURVE",
"126 672 CURVE",
"126 27 LINE",
"91 24 OFFCURVE",
"64 17 OFFCURVE",
"43 10 CURVE",
"43 0 LINE"
);
},
{
closed = 1;
nodes = (
"448 252 LINE",
"448 447 LINE",
"435 447 LINE",
"426 424 OFFCURVE",
"419 383 OFFCURVE",
"417 365 CURVE",
"150 365 LINE",
"150 334 LINE",
"417 334 LINE",
"419 316 OFFCURVE",
"426 276 OFFCURVE",
"435 252 CURVE"
);
},
{
closed = 1;
nodes = (
"342 779 LINE",
"353 841 LINE",
"404 846 OFFCURVE",
"433 871 OFFCURVE",
"433 914 CURVE SMOOTH",
"433 966 OFFCURVE",
"389 989 OFFCURVE",
"342 989 CURVE SMOOTH",
"313 989 OFFCURVE",
"286 981 OFFCURVE",
"268 972 CURVE",
"275 945 LINE",
"295 956 OFFCURVE",
"316 961 OFFCURVE",
"332 961 CURVE SMOOTH",
"371 961 OFFCURVE",
"390 941 OFFCURVE",
"390 916 CURVE SMOOTH",
"390 887 OFFCURVE",
"370 864 OFFCURVE",
"326 864 CURVE SMOOTH",
"306 864 LINE",
"311 779 LINE"
);
}
);
width = 597;
}
);
note = Ehookabove;
unicode = 1EBA;
},
{
glyphname = Emacron;
lastChange = "2015-11-28 05:20:20 +0000";
layers = (
{
layerId = "55230DDF-46DB-445B-B73A-3B2EF2AFB87A";
name = Light;
paths = (
{
closed = 1;
nodes = (
"534 0 LINE",
"547 134 LINE",
"529 134 LINE",
"518 115 OFFCURVE",
"498 58 OFFCURVE",
"496 31 CURVE",
"197 31 LINE",
"197 668 LINE",
"494 668 LINE",
"496 643 OFFCURVE",
"507 584 OFFCURVE",
"517 565 CURVE",
"534 565 LINE",
"534 700 LINE",
"43 700 LINE",
"43 690 LINE",
"68 682 OFFCURVE",
"99 675 OFFCURVE",
"126 672 CURVE",
"126 27 LINE",
"91 24 OFFCURVE",
"64 17 OFFCURVE",
"43 10 CURVE",
"43 0 LINE"
);
},
{
closed = 1;
nodes = (
"448 252 LINE",
"448 447 LINE",
"435 447 LINE",
"426 424 OFFCURVE",
"419 383 OFFCURVE",
"417 365 CURVE",
"150 365 LINE",
"150 334 LINE",
"417 334 LINE",
"419 316 OFFCURVE",
"426 276 OFFCURVE",
"435 252 CURVE"
);
},
{
closed = 1;
nodes = (
"483 784 LINE",
"483 815 LINE",
"169 815 LINE",
"169 784 LINE"
);
}
);
width = 597;
}
);
note = Emacron;
unicode = 0112;
},
{
glyphname = Eogonek;
lastChange = "2015-11-28 05:20:19 +0000";
layers = (
{
layerId = "55230DDF-46DB-445B-B73A-3B2EF2AFB87A";
name = Light;
paths = (
{
closed = 1;
nodes = (
"534 0 LINE",
"547 134 LINE",
"529 134 LINE",
"518 115 OFFCURVE",
"498 58 OFFCURVE",
"496 31 CURVE",
"197 31 LINE",
"197 668 LINE",
"494 668 LINE",
"496 643 OFFCURVE",
"507 584 OFFCURVE",
"517 565 CURVE",
"534 565 LINE",
"534 700 LINE",
"43 700 LINE",
"43 690 LINE",
"68 682 OFFCURVE",
"99 675 OFFCURVE",
"126 672 CURVE",
"126 27 LINE",
"91 24 OFFCURVE",
"64 17 OFFCURVE",
"43 10 CURVE",
"43 0 LINE"
);
},
{
closed = 1;
nodes = (
"508 -181 OFFCURVE",
"531 -176 OFFCURVE",
"554 -166 CURVE",
"554 -133 LINE",
"537 -141 OFFCURVE",
"520 -144 OFFCURVE",
"504 -144 CURVE SMOOTH",
"470 -144 OFFCURVE",
"443 -129 OFFCURVE",
"443 -94 CURVE SMOOTH",
"443 -56 OFFCURVE",
"472 -20 OFFCURVE",
"509 0 CURVE",
"467 0 LINE",
"418 -20 OFFCURVE",
"388 -60 OFFCURVE",
"388 -104 CURVE SMOOTH",
"388 -142 OFFCURVE",
"418 -181 OFFCURVE",
"480 -181 CURVE SMOOTH"
);
},
{
closed = 1;
nodes = (
"448 252 LINE",
"448 447 LINE",
"435 447 LINE",
"426 424 OFFCURVE",
"419 383 OFFCURVE",
"417 365 CURVE",
"150 365 LINE",
"150 334 LINE",
"417 334 LINE",
"419 316 OFFCURVE",
"426 276 OFFCURVE",
"435 252 CURVE"
);
}
);
width = 597;
}
);
note = Eogonek;
unicode = 0118;
},
{
glyphname = Etilde;
lastChange = "2015-11-28 05:20:21 +0000";
layers = (
{
layerId = "55230DDF-46DB-445B-B73A-3B2EF2AFB87A";
name = Light;
paths = (
{
closed = 1;
nodes = (
"534 0 LINE",
"547 134 LINE",
"529 134 LINE",
"518 115 OFFCURVE",
"498 58 OFFCURVE",
"496 31 CURVE",
"197 31 LINE",
"197 668 LINE",
"494 668 LINE",
"496 643 OFFCURVE",
"507 584 OFFCURVE",
"517 565 CURVE",
"534 565 LINE",
"534 700 LINE",
"43 700 LINE",
"43 690 LINE",
"68 682 OFFCURVE",
"99 675 OFFCURVE",
"126 672 CURVE",
"126 27 LINE",
"91 24 OFFCURVE",
"64 17 OFFCURVE",
"43 10 CURVE",
"43 0 LINE"
);
},
{
closed = 1;
nodes = (
"448 252 LINE",
"448 447 LINE",
"435 447 LINE",
"426 424 OFFCURVE",
"419 383 OFFCURVE",
"417 365 CURVE",
"150 365 LINE",
"150 334 LINE",
"417 334 LINE",
"419 316 OFFCURVE",
"426 276 OFFCURVE",
"435 252 CURVE"
);
},
{
closed = 1;
nodes = (
"187 785 LINE",
"195 821 OFFCURVE",
"218 844 OFFCURVE",
"249 844 CURVE SMOOTH",
"290 844 OFFCURVE",
"343 786 OFFCURVE",
"390 786 CURVE SMOOTH",
"443 786 OFFCURVE",
"472 825 OFFCURVE",
"481 886 CURVE",
"456 886 LINE",
"446 844 OFFCURVE",
"423 824 OFFCURVE",
"392 824 CURVE SMOOTH",
"351 824 OFFCURVE",
"304 880 OFFCURVE",
"251 880 CURVE SMOOTH",
"204 880 OFFCURVE",
"170 851 OFFCURVE",
"161 785 CURVE"
);
}
);
width = 597;
}
);
note = Etilde;
unicode = 1EBC;
},
{
glyphname = F;
lastChange = "2015-11-28 05:20:19 +0000";
layers = (
{
layerId = "55230DDF-46DB-445B-B73A-3B2EF2AFB87A";
name = Light;
paths = (
{
closed = 1;
nodes = (
"280 0 LINE",
"280 9 LINE",
"255 18 OFFCURVE",
"224 23 OFFCURVE",
"197 27 CURVE",
"197 668 LINE",
"489 668 LINE",
"491 643 OFFCURVE",
"502 584 OFFCURVE",
"512 565 CURVE",
"529 565 LINE",
"529 700 LINE",
"43 700 LINE",
"43 690 LINE",
"68 682 OFFCURVE",
"99 676 OFFCURVE",
"126 672 CURVE",
"126 27 LINE",
"88 23 OFFCURVE",
"64 17 OFFCURVE",
"43 10 CURVE",
"43 0 LINE"
);
},
{
closed = 1;
nodes = (
"448 252 LINE",
"448 447 LINE",
"435 447 LINE",
"426 424 OFFCURVE",
"419 383 OFFCURVE",
"417 365 CURVE",
"150 365 LINE",
"150 334 LINE",
"417 334 LINE",
"419 316 OFFCURVE",
"426 276 OFFCURVE",
"435 252 CURVE"
);
}
);
width = 556;
}
);
note = F;
unicode = 0046;
},
{
glyphname = G;
lastChange = "2015-11-28 05:20:15 +0000";
layers = (
{
layerId = "55230DDF-46DB-445B-B73A-3B2EF2AFB87A";
name = Light;
paths = (
{
closed = 1;
nodes = (
"431 -10 OFFCURVE",
"522 10 OFFCURVE",
"573 50 CURVE",
"573 310 LINE",
"606 314 OFFCURVE",
"628 323 OFFCURVE",
"643 330 CURVE",
"643 339 LINE",
"425 339 LINE",
"425 329 LINE",
"449 322 OFFCURVE",
"477 316 OFFCURVE",
"505 311 CURVE",
"505 55 LINE",
"463 32 OFFCURVE",
"399 22 OFFCURVE",
"365 22 CURVE SMOOTH",
"178 22 OFFCURVE",
"110 164 OFFCURVE",
"110 350 CURVE SMOOTH",
"110 537 OFFCURVE",
"193 678 OFFCURVE",
"377 678 CURVE SMOOTH",
"434 678 OFFCURVE",
"513 658 OFFCURVE",
"540 636 CURVE",
"543 605 OFFCURVE",
"549 555 OFFCURVE",
"558 530 CURVE",
"577 530 LINE",
"585 644 LINE",
"541 684 OFFCURVE",
"445 710 OFFCURVE",
"358 710 CURVE SMOOTH",
"157 710 OFFCURVE",
"38 572 OFFCURVE",
"38 350 CURVE SMOOTH",
"38 127 OFFCURVE",
"144 -10 OFFCURVE",
"351 -10 CURVE SMOOTH"
);
}
);
width = 654;
}
);
leftKerningGroup = G;
note = G;
unicode = 0047;
},
{
glyphname = Gbreve;
lastChange = "2015-11-28 05:20:21 +0000";
layers = (
{
layerId = "55230DDF-46DB-445B-B73A-3B2EF2AFB87A";
name = Light;
paths = (
{
closed = 1;
nodes = (
"431 -10 OFFCURVE",
"522 10 OFFCURVE",
"573 50 CURVE",
"573 310 LINE",
"606 314 OFFCURVE",
"628 323 OFFCURVE",
"643 330 CURVE",
"643 339 LINE",
"425 339 LINE",
"425 329 LINE",
"449 322 OFFCURVE",
"477 316 OFFCURVE",
"505 311 CURVE",
"505 55 LINE",
"463 32 OFFCURVE",
"399 22 OFFCURVE",
"365 22 CURVE SMOOTH",
"178 22 OFFCURVE",
"110 164 OFFCURVE",
"110 350 CURVE SMOOTH",
"110 537 OFFCURVE",
"193 678 OFFCURVE",
"377 678 CURVE SMOOTH",
"434 678 OFFCURVE",
"513 658 OFFCURVE",
"540 636 CURVE",
"543 605 OFFCURVE",
"549 555 OFFCURVE",
"558 530 CURVE",
"577 530 LINE",
"585 644 LINE",
"541 684 OFFCURVE",
"445 710 OFFCURVE",
"358 710 CURVE SMOOTH",
"157 710 OFFCURVE",
"38 572 OFFCURVE",
"38 350 CURVE SMOOTH",
"38 127 OFFCURVE",
"144 -10 OFFCURVE",
"351 -10 CURVE SMOOTH"
);
},
{
closed = 1;
nodes = (
"438 776 OFFCURVE",
"496 813 OFFCURVE",
"505 896 CURVE",
"459 896 LINE",
"450 819 OFFCURVE",
"399 808 OFFCURVE",
"358 808 CURVE SMOOTH",
"317 808 OFFCURVE",
"265 819 OFFCURVE",
"257 896 CURVE",
"211 896 LINE",
"220 813 OFFCURVE",
"278 776 OFFCURVE",
"358 776 CURVE SMOOTH"
);
}
);
width = 654;
}
);
leftKerningGroup = G;
note = Gbreve;
unicode = 011E;
},
{
glyphname = Gcaron;
lastChange = "2015-11-28 05:20:20 +0000";
layers = (
{
layerId = "55230DDF-46DB-445B-B73A-3B2EF2AFB87A";
name = Light;
paths = (
{
closed = 1;
nodes = (
"431 -10 OFFCURVE",
"522 10 OFFCURVE",
"573 50 CURVE",
"573 310 LINE",
"606 314 OFFCURVE",
"628 323 OFFCURVE",
"643 330 CURVE",
"643 339 LINE",
"425 339 LINE",
"425 329 LINE",
"449 322 OFFCURVE",
"477 316 OFFCURVE",
"505 311 CURVE",
"505 55 LINE",
"463 32 OFFCURVE",
"399 22 OFFCURVE",
"365 22 CURVE SMOOTH",
"178 22 OFFCURVE",
"110 164 OFFCURVE",
"110 350 CURVE SMOOTH",
"110 537 OFFCURVE",
"193 678 OFFCURVE",
"377 678 CURVE SMOOTH",
"434 678 OFFCURVE",
"513 658 OFFCURVE",
"540 636 CURVE",
"543 605 OFFCURVE",
"549 555 OFFCURVE",
"558 530 CURVE",
"577 530 LINE",
"585 644 LINE",
"541 684 OFFCURVE",
"445 710 OFFCURVE",
"358 710 CURVE SMOOTH",
"157 710 OFFCURVE",
"38 572 OFFCURVE",
"38 350 CURVE SMOOTH",
"38 127 OFFCURVE",
"144 -10 OFFCURVE",
"351 -10 CURVE SMOOTH"
);
},
{
closed = 1;
nodes = (
"375 800 LINE",
"406 843 OFFCURVE",
"459 890 OFFCURVE",
"498 917 CURVE",
"469 944 LINE",
"432 917 OFFCURVE",
"388 877 OFFCURVE",
"361 842 CURVE",
"356 842 LINE",
"329 877 OFFCURVE",
"285 917 OFFCURVE",
"248 944 CURVE",
"219 917 LINE",
"258 890 OFFCURVE",
"311 843 OFFCURVE",
"342 800 CURVE"
);
}
);
width = 654;
}
);
leftKerningGroup = G;
note = Gcaron;
unicode = 01E6;
},
{
glyphname = Gcircumflex;
lastChange = "2015-11-28 05:20:20 +0000";
layers = (
{
layerId = "55230DDF-46DB-445B-B73A-3B2EF2AFB87A";
name = Light;
paths = (
{
closed = 1;
nodes = (
"431 -10 OFFCURVE",
"522 10 OFFCURVE",
"573 50 CURVE",
"573 310 LINE",
"606 314 OFFCURVE",
"628 323 OFFCURVE",
"643 330 CURVE",
"643 339 LINE",
"425 339 LINE",
"425 329 LINE",
"449 322 OFFCURVE",
"477 316 OFFCURVE",
"505 311 CURVE",
"505 55 LINE",
"463 32 OFFCURVE",
"399 22 OFFCURVE",
"365 22 CURVE SMOOTH",
"178 22 OFFCURVE",
"110 164 OFFCURVE",
"110 350 CURVE SMOOTH",
"110 537 OFFCURVE",
"193 678 OFFCURVE",
"377 678 CURVE SMOOTH",
"434 678 OFFCURVE",
"513 658 OFFCURVE",
"540 636 CURVE",
"543 605 OFFCURVE",
"549 555 OFFCURVE",
"558 530 CURVE",
"577 530 LINE",
"585 644 LINE",
"541 684 OFFCURVE",
"445 710 OFFCURVE",
"358 710 CURVE SMOOTH",
"157 710 OFFCURVE",
"38 572 OFFCURVE",
"38 350 CURVE SMOOTH",
"38 127 OFFCURVE",
"144 -10 OFFCURVE",
"351 -10 CURVE SMOOTH"
);
},
{
closed = 1;
nodes = (
"299 806 OFFCURVE",
"343 846 OFFCURVE",
"370 881 CURVE",
"375 881 LINE",
"402 846 OFFCURVE",
"446 806 OFFCURVE",
"483 779 CURVE",
"512 806 LINE",
"473 833 OFFCURVE",
"420 880 OFFCURVE",
"389 922 CURVE",
"356 922 LINE",
"325 880 OFFCURVE",
"272 833 OFFCURVE",
"233 806 CURVE",
"262 779 LINE"
);
}
);
width = 654;
}
);
leftKerningGroup = G;
note = Gcircumflex;
unicode = 011C;
},
{
glyphname = Gcommaaccent;
lastChange = "2015-11-28 05:20:20 +0000";
layers = (
{
layerId = "55230DDF-46DB-445B-B73A-3B2EF2AFB87A";
name = Light;
paths = (
{
closed = 1;
nodes = (
"431 -10 OFFCURVE",
"522 10 OFFCURVE",
"573 50 CURVE",
"573 310 LINE",
"606 314 OFFCURVE",
"628 323 OFFCURVE",
"643 330 CURVE",
"643 339 LINE",
"425 339 LINE",
"425 329 LINE",
"449 322 OFFCURVE",
"477 316 OFFCURVE",
"505 311 CURVE",
"505 55 LINE",
"463 32 OFFCURVE",
"399 22 OFFCURVE",
"365 22 CURVE SMOOTH",
"178 22 OFFCURVE",
"110 164 OFFCURVE",
"110 350 CURVE SMOOTH",
"110 537 OFFCURVE",
"193 678 OFFCURVE",
"377 678 CURVE SMOOTH",
"434 678 OFFCURVE",
"513 658 OFFCURVE",
"540 636 CURVE",
"543 605 OFFCURVE",
"549 555 OFFCURVE",
"558 530 CURVE",
"577 530 LINE",
"585 644 LINE",
"541 684 OFFCURVE",
"445 710 OFFCURVE",
"358 710 CURVE SMOOTH",
"157 710 OFFCURVE",
"38 572 OFFCURVE",
"38 350 CURVE SMOOTH",
"38 127 OFFCURVE",
"144 -10 OFFCURVE",
"351 -10 CURVE SMOOTH"
);
},
{
closed = 1;
nodes = (
"383 -244 OFFCURVE",
"408 -175 OFFCURVE",
"408 -127 CURVE SMOOTH",
"408 -91 OFFCURVE",
"392 -65 OFFCURVE",
"353 -65 CURVE SMOOTH",
"329 -65 OFFCURVE",
"307 -79 OFFCURVE",
"307 -108 CURVE SMOOTH",
"307 -133 OFFCURVE",
"326 -151 OFFCURVE",
"350 -151 CURVE SMOOTH",
"354 -151 OFFCURVE",
"358 -150 OFFCURVE",
"362 -149 CURVE",
"359 -189 OFFCURVE",
"343 -230 OFFCURVE",
"319 -259 CURVE",
"345 -280 LINE"
);
}
);
width = 654;
}
);
leftKerningGroup = G;
note = Gcommaaccent;
unicode = 0122;
},
{
glyphname = Gdotaccent;
lastChange = "2015-11-28 05:20:19 +0000";
layers = (
{
layerId = "55230DDF-46DB-445B-B73A-3B2EF2AFB87A";
name = Light;
paths = (
{
closed = 1;
nodes = (
"431 -10 OFFCURVE",
"522 10 OFFCURVE",
"573 50 CURVE",
"573 310 LINE",
"606 314 OFFCURVE",
"628 323 OFFCURVE",
"643 330 CURVE",
"643 339 LINE",
"425 339 LINE",
"425 329 LINE",
"449 322 OFFCURVE",
"477 316 OFFCURVE",
"505 311 CURVE",
"505 55 LINE",
"463 32 OFFCURVE",
"399 22 OFFCURVE",
"365 22 CURVE SMOOTH",
"178 22 OFFCURVE",
"110 164 OFFCURVE",
"110 350 CURVE SMOOTH",
"110 537 OFFCURVE",
"193 678 OFFCURVE",
"377 678 CURVE SMOOTH",
"434 678 OFFCURVE",
"513 658 OFFCURVE",
"540 636 CURVE",
"543 605 OFFCURVE",
"549 555 OFFCURVE",
"558 530 CURVE",
"577 530 LINE",
"585 644 LINE",
"541 684 OFFCURVE",
"445 710 OFFCURVE",
"358 710 CURVE SMOOTH",
"157 710 OFFCURVE",
"38 572 OFFCURVE",
"38 350 CURVE SMOOTH",
"38 127 OFFCURVE",
"144 -10 OFFCURVE",
"351 -10 CURVE SMOOTH"
);
},
{
closed = 1;
nodes = (
"390 785 OFFCURVE",
"406 801 OFFCURVE",
"406 825 CURVE SMOOTH",
"406 850 OFFCURVE",
"390 866 OFFCURVE",
"367 866 CURVE SMOOTH",
"343 866 OFFCURVE",
"328 850 OFFCURVE",
"328 825 CURVE SMOOTH",
"328 801 OFFCURVE",
"343 785 OFFCURVE",
"367 785 CURVE SMOOTH"
);
}
);
width = 654;
}
);
leftKerningGroup = G;
note = Gdotaccent;
unicode = 0120;
},
{
glyphname = Gmacron;
lastChange = "2015-11-28 05:20:20 +0000";
layers = (
{
layerId = "55230DDF-46DB-445B-B73A-3B2EF2AFB87A";
name = Light;
paths = (
{
closed = 1;
nodes = (
"431 -10 OFFCURVE",
"522 10 OFFCURVE",
"573 50 CURVE",
"573 310 LINE",
"606 314 OFFCURVE",
"628 323 OFFCURVE",
"643 330 CURVE",
"643 339 LINE",
"425 339 LINE",
"425 329 LINE",
"449 322 OFFCURVE",
"477 316 OFFCURVE",
"505 311 CURVE",
"505 55 LINE",
"463 32 OFFCURVE",
"399 22 OFFCURVE",
"365 22 CURVE SMOOTH",
"178 22 OFFCURVE",
"110 164 OFFCURVE",
"110 350 CURVE SMOOTH",
"110 537 OFFCURVE",
"193 678 OFFCURVE",
"377 678 CURVE SMOOTH",
"434 678 OFFCURVE",
"513 658 OFFCURVE",
"540 636 CURVE",
"543 605 OFFCURVE",
"549 555 OFFCURVE",
"558 530 CURVE",
"577 530 LINE",
"585 644 LINE",
"541 684 OFFCURVE",
"445 710 OFFCURVE",
"358 710 CURVE SMOOTH",
"157 710 OFFCURVE",
"38 572 OFFCURVE",
"38 350 CURVE SMOOTH",
"38 127 OFFCURVE",
"144 -10 OFFCURVE",
"351 -10 CURVE SMOOTH"
);
},
{
closed = 1;
nodes = (
"514 784 LINE",
"514 815 LINE",
"200 815 LINE",
"200 784 LINE"
);
}
);
width = 654;
}
);
leftKerningGroup = G;
note = Gmacron;
unicode = 1E20;
},
{
glyphname = H;
lastChange = "2015-11-28 05:20:20 +0000";
layers = (
{
layerId = "55230DDF-46DB-445B-B73A-3B2EF2AFB87A";
name = Light;
paths = (
{
closed = 1;
nodes = (
"736 0 LINE",
"736 9 LINE",
"711 18 OFFCURVE",
"682 23 OFFCURVE",
"655 27 CURVE",
"655 672 LINE",
"690 675 OFFCURVE",
"715 682 OFFCURVE",
"736 689 CURVE",
"736 700 LINE",
"506 700 LINE",
"506 690 LINE",
"531 682 OFFCURVE",
"558 676 OFFCURVE",
"584 672 CURVE",
"584 27 LINE",
"551 24 OFFCURVE",
"536 20 OFFCURVE",
"506 9 CURVE",
"506 0 LINE"
);
},
{
closed = 1;
nodes = (
"273 0 LINE",
"273 9 LINE",
"248 17 OFFCURVE",
"221 23 OFFCURVE",
"194 27 CURVE",
"194 672 LINE",
"228 676 OFFCURVE",
"243 679 OFFCURVE",
"273 690 CURVE",
"273 700 LINE",
"43 700 LINE",
"43 690 LINE",
"68 682 OFFCURVE",
"96 676 OFFCURVE",
"123 672 CURVE",
"123 27 LINE",
"88 24 OFFCURVE",
"64 17 OFFCURVE",
"43 10 CURVE",
"43 0 LINE"
);
},
{
closed = 1;
nodes = (
"619 340 LINE",
"619 371 LINE",
"161 371 LINE",
"161 340 LINE"
);
}
);
width = 779;
}
);
note = H;
unicode = 0048;
},
{
glyphname = Hbar;
lastChange = "2015-11-28 05:20:21 +0000";
layers = (
{
layerId = "55230DDF-46DB-445B-B73A-3B2EF2AFB87A";
name = Light;
paths = (
{
closed = 1;
nodes = (
"736 0 LINE",
"736 9 LINE",
"711 18 OFFCURVE",
"682 23 OFFCURVE",
"655 27 CURVE",
"655 672 LINE",
"690 675 OFFCURVE",
"715 682 OFFCURVE",
"736 689 CURVE",
"736 700 LINE",
"506 700 LINE",
"506 690 LINE",
"531 682 OFFCURVE",
"558 676 OFFCURVE",
"584 672 CURVE",
"584 27 LINE",
"551 24 OFFCURVE",
"536 20 OFFCURVE",
"506 9 CURVE",
"506 0 LINE"
);
},
{
closed = 1;
nodes = (
"273 0 LINE",
"273 9 LINE",
"248 17 OFFCURVE",
"221 23 OFFCURVE",
"194 27 CURVE",
"194 672 LINE",
"228 676 OFFCURVE",
"243 679 OFFCURVE",
"273 690 CURVE",
"273 700 LINE",
"43 700 LINE",
"43 690 LINE",
"68 682 OFFCURVE",
"96 676 OFFCURVE",
"123 672 CURVE",
"123 27 LINE",
"88 24 OFFCURVE",
"64 17 OFFCURVE",
"43 10 CURVE",
"43 0 LINE"
);
},
{
closed = 1;
nodes = (
"619 340 LINE",
"619 371 LINE",
"161 371 LINE",
"161 340 LINE"
);
},
{
closed = 1;
nodes = (
"716 508 LINE",
"716 539 LINE",
"63 539 LINE",
"63 508 LINE"
);
}
);
width = 779;
}
);
note = Hbar;
unicode = 0126;
},
{
glyphname = Hbrevebelow;
lastChange = "2015-11-28 05:20:20 +0000";
layers = (
{
layerId = "55230DDF-46DB-445B-B73A-3B2EF2AFB87A";
name = Light;
paths = (
{
closed = 1;
nodes = (
"736 0 LINE",
"736 9 LINE",
"711 18 OFFCURVE",
"682 23 OFFCURVE",
"655 27 CURVE",
"655 672 LINE",
"690 675 OFFCURVE",
"715 682 OFFCURVE",
"736 689 CURVE",
"736 700 LINE",
"506 700 LINE",
"506 690 LINE",
"531 682 OFFCURVE",
"558 676 OFFCURVE",
"584 672 CURVE",
"584 27 LINE",
"551 24 OFFCURVE",
"536 20 OFFCURVE",
"506 9 CURVE",
"506 0 LINE"
);
},
{
closed = 1;
nodes = (
"469 -170 OFFCURVE",
"527 -133 OFFCURVE",
"536 -50 CURVE",
"490 -50 LINE",
"481 -127 OFFCURVE",
"430 -139 OFFCURVE",
"389 -139 CURVE SMOOTH",
"348 -139 OFFCURVE",
"296 -127 OFFCURVE",
"288 -50 CURVE",
"242 -50 LINE",
"251 -133 OFFCURVE",
"309 -170 OFFCURVE",
"389 -170 CURVE SMOOTH"
);
},
{
closed = 1;
nodes = (
"273 0 LINE",
"273 9 LINE",
"248 17 OFFCURVE",
"221 23 OFFCURVE",
"194 27 CURVE",
"194 672 LINE",
"228 676 OFFCURVE",
"243 679 OFFCURVE",
"273 690 CURVE",
"273 700 LINE",
"43 700 LINE",
"43 690 LINE",
"68 682 OFFCURVE",
"96 676 OFFCURVE",
"123 672 CURVE",
"123 27 LINE",
"88 24 OFFCURVE",
"64 17 OFFCURVE",
"43 10 CURVE",
"43 0 LINE"
);
},
{
closed = 1;
nodes = (
"619 340 LINE",
"619 371 LINE",
"161 371 LINE",
"161 340 LINE"
);
}
);
width = 779;
}
);
note = Hbrevebelow;
unicode = 1E2A;
},
{
glyphname = Hcircumflex;
lastChange = "2015-11-28 05:20:21 +0000";
layers = (
{
layerId = "55230DDF-46DB-445B-B73A-3B2EF2AFB87A";
name = Light;
paths = (
{
closed = 1;
nodes = (
"736 0 LINE",
"736 9 LINE",
"711 18 OFFCURVE",
"682 23 OFFCURVE",
"655 27 CURVE",
"655 672 LINE",
"690 675 OFFCURVE",
"715 682 OFFCURVE",
"736 689 CURVE",
"736 700 LINE",
"506 700 LINE",
"506 690 LINE",
"531 682 OFFCURVE",
"558 676 OFFCURVE",
"584 672 CURVE",
"584 27 LINE",
"551 24 OFFCURVE",
"536 20 OFFCURVE",
"506 9 CURVE",
"506 0 LINE"
);
},
{
closed = 1;
nodes = (
"273 0 LINE",
"273 9 LINE",
"248 17 OFFCURVE",
"221 23 OFFCURVE",
"194 27 CURVE",
"194 672 LINE",
"228 676 OFFCURVE",
"243 679 OFFCURVE",
"273 690 CURVE",
"273 700 LINE",
"43 700 LINE",
"43 690 LINE",
"68 682 OFFCURVE",
"96 676 OFFCURVE",
"123 672 CURVE",
"123 27 LINE",
"88 24 OFFCURVE",
"64 17 OFFCURVE",
"43 10 CURVE",
"43 0 LINE"
);
},
{
closed = 1;
nodes = (
"619 340 LINE",
"619 371 LINE",
"161 371 LINE",
"161 340 LINE"
);
},
{
closed = 1;
nodes = (
"316 806 OFFCURVE",
"360 846 OFFCURVE",
"387 881 CURVE",
"392 881 LINE",
"419 846 OFFCURVE",
"463 806 OFFCURVE",
"500 779 CURVE",
"529 806 LINE",
"490 833 OFFCURVE",
"437 880 OFFCURVE",
"406 922 CURVE",
"373 922 LINE",
"342 880 OFFCURVE",
"289 833 OFFCURVE",
"250 806 CURVE",
"279 779 LINE"
);
}
);
width = 779;
}
);
note = Hcircumflex;
unicode = 0124;
},
{
glyphname = Hdotbelow;
lastChange = "2015-11-28 05:20:19 +0000";
layers = (
{
layerId = "55230DDF-46DB-445B-B73A-3B2EF2AFB87A";
name = Light;
paths = (
{
closed = 1;
nodes = (
"736 0 LINE",
"736 9 LINE",
"711 18 OFFCURVE",
"682 23 OFFCURVE",
"655 27 CURVE",
"655 672 LINE",
"690 675 OFFCURVE",
"715 682 OFFCURVE",
"736 689 CURVE",
"736 700 LINE",
"506 700 LINE",
"506 690 LINE",
"531 682 OFFCURVE",
"558 676 OFFCURVE",
"584 672 CURVE",
"584 27 LINE",
"551 24 OFFCURVE",
"536 20 OFFCURVE",
"506 9 CURVE",
"506 0 LINE"
);
},
{
closed = 1;
nodes = (
"408 -142 OFFCURVE",
"424 -126 OFFCURVE",
"424 -102 CURVE SMOOTH",
"424 -77 OFFCURVE",
"408 -61 OFFCURVE",
"385 -61 CURVE SMOOTH",
"362 -61 OFFCURVE",
"346 -77 OFFCURVE",
"346 -102 CURVE SMOOTH",
"346 -126 OFFCURVE",
"362 -142 OFFCURVE",
"385 -142 CURVE SMOOTH"
);
},
{
closed = 1;
nodes = (
"273 0 LINE",
"273 9 LINE",
"248 17 OFFCURVE",
"221 23 OFFCURVE",
"194 27 CURVE",
"194 672 LINE",
"228 676 OFFCURVE",
"243 679 OFFCURVE",
"273 690 CURVE",
"273 700 LINE",
"43 700 LINE",
"43 690 LINE",
"68 682 OFFCURVE",
"96 676 OFFCURVE",
"123 672 CURVE",
"123 27 LINE",
"88 24 OFFCURVE",
"64 17 OFFCURVE",
"43 10 CURVE",
"43 0 LINE"
);
},
{
closed = 1;
nodes = (
"619 340 LINE",
"619 371 LINE",
"161 371 LINE",
"161 340 LINE"
);
}
);
width = 779;
}
);
note = Hdotbelow;
unicode = 1E24;
},
{
glyphname = I;
lastChange = "2015-11-28 05:20:16 +0000";
layers = (
{
layerId = "55230DDF-46DB-445B-B73A-3B2EF2AFB87A";
name = Light;
paths = (
{
closed = 1;
nodes = (
"281 0 LINE",
"281 9 LINE",
"256 17 OFFCURVE",
"226 23 OFFCURVE",
"199 27 CURVE",
"199 672 LINE",
"228 676 OFFCURVE",
"257 682 OFFCURVE",
"281 690 CURVE",
"281 700 LINE",
"47 700 LINE",
"47 690 LINE",
"72 682 OFFCURVE",
"101 676 OFFCURVE",
"128 672 CURVE",
"128 27 LINE",
"100 23 OFFCURVE",
"71 17 OFFCURVE",
"47 10 CURVE",
"47 0 LINE"
);
}
);
width = 328;
}
);
note = I;
unicode = 0049;
},
{
glyphname = IJ;
lastChange = "2015-11-28 05:20:19 +0000";
layers = (
{
layerId = "55230DDF-46DB-445B-B73A-3B2EF2AFB87A";
name = Light;
paths = (
{
closed = 1;
nodes = (
"594 -10 OFFCURVE",
"658 42 OFFCURVE",
"658 137 CURVE SMOOTH",
"658 672 LINE",
"693 675 OFFCURVE",
"718 682 OFFCURVE",
"738 689 CURVE",
"738 700 LINE",
"507 700 LINE",
"507 688 LINE",
"527 682 OFFCURVE",
"548 676 OFFCURVE",
"587 671 CURVE",
"587 139 LINE SMOOTH",
"587 56 OFFCURVE",
"538 27 OFFCURVE",
"471 27 CURVE SMOOTH",
"427 27 OFFCURVE",
"389 39 OFFCURVE",
"359 56 CURVE",
"347 36 LINE",
"383 7 OFFCURVE",
"431 -10 OFFCURVE",
"492 -10 CURVE SMOOTH"
);
},
{
closed = 1;
nodes = (
"281 0 LINE",
"281 9 LINE",
"256 17 OFFCURVE",
"226 23 OFFCURVE",
"199 27 CURVE",
"199 672 LINE",
"228 676 OFFCURVE",
"257 682 OFFCURVE",
"281 690 CURVE",
"281 700 LINE",
"47 700 LINE",
"47 690 LINE",
"72 682 OFFCURVE",
"101 676 OFFCURVE",
"128 672 CURVE",
"128 27 LINE",
"100 23 OFFCURVE",
"71 17 OFFCURVE",
"47 10 CURVE",
"47 0 LINE"
);
}
);
width = 782;
}
);
note = IJ;
rightKerningGroup = J;
unicode = 0132;
},
{
glyphname = Iacute;
lastChange = "2015-11-28 05:20:21 +0000";
layers = (
{
layerId = "55230DDF-46DB-445B-B73A-3B2EF2AFB87A";
name = Light;
paths = (
{
closed = 1;
nodes = (
"281 0 LINE",
"281 9 LINE",
"256 17 OFFCURVE",
"226 23 OFFCURVE",
"199 27 CURVE",
"199 672 LINE",
"228 676 OFFCURVE",
"257 682 OFFCURVE",
"281 690 CURVE",
"281 700 LINE",
"47 700 LINE",
"47 690 LINE",
"72 682 OFFCURVE",
"101 676 OFFCURVE",
"128 672 CURVE",
"128 27 LINE",
"100 23 OFFCURVE",
"71 17 OFFCURVE",
"47 10 CURVE",
"47 0 LINE"
);
},
{
closed = 1;
nodes = (
"223 865 LINE SMOOTH",
"241 876 OFFCURVE",
"250 888 OFFCURVE",
"250 901 CURVE SMOOTH",
"250 913 OFFCURVE",
"241 924 OFFCURVE",
"225 924 CURVE SMOOTH",
"207 924 OFFCURVE",
"193 912 OFFCURVE",
"186 905 CURVE",
"74 805 LINE",
"87 786 LINE"
);
}
);
width = 328;
}
);
note = Iacute;
unicode = 00CD;
},
{
glyphname = Ibreve;
lastChange = "2015-11-28 05:20:22 +0000";
layers = (
{
layerId = "55230DDF-46DB-445B-B73A-3B2EF2AFB87A";
name = Light;
paths = (
{
closed = 1;
nodes = (
"281 0 LINE",
"281 9 LINE",
"256 17 OFFCURVE",
"226 23 OFFCURVE",
"199 27 CURVE",
"199 672 LINE",
"228 676 OFFCURVE",
"257 682 OFFCURVE",
"281 690 CURVE",
"281 700 LINE",
"47 700 LINE",
"47 690 LINE",
"72 682 OFFCURVE",
"101 676 OFFCURVE",
"128 672 CURVE",
"128 27 LINE",
"100 23 OFFCURVE",
"71 17 OFFCURVE",
"47 10 CURVE",
"47 0 LINE"
);
},
{
closed = 1;
nodes = (
"244 776 OFFCURVE",
"302 813 OFFCURVE",
"311 896 CURVE",
"265 896 LINE",
"256 819 OFFCURVE",
"205 808 OFFCURVE",
"164 808 CURVE SMOOTH",
"123 808 OFFCURVE",
"71 819 OFFCURVE",
"63 896 CURVE",
"17 896 LINE",
"26 813 OFFCURVE",
"84 776 OFFCURVE",
"164 776 CURVE SMOOTH"
);
}
);
width = 328;
}
);
note = Ibreve;
unicode = 012C;
},
{
glyphname = Icaron;
lastChange = "2015-11-28 05:20:20 +0000";
layers = (
{
layerId = "55230DDF-46DB-445B-B73A-3B2EF2AFB87A";
name = Light;
paths = (
{
closed = 1;
nodes = (
"281 0 LINE",
"281 9 LINE",
"256 17 OFFCURVE",
"226 23 OFFCURVE",
"199 27 CURVE",
"199 672 LINE",
"228 676 OFFCURVE",
"257 682 OFFCURVE",
"281 690 CURVE",
"281 700 LINE",
"47 700 LINE",
"47 690 LINE",
"72 682 OFFCURVE",
"101 676 OFFCURVE",
"128 672 CURVE",
"128 27 LINE",
"100 23 OFFCURVE",
"71 17 OFFCURVE",
"47 10 CURVE",
"47 0 LINE"
);
},
{
closed = 1;
nodes = (
"180 786 LINE",
"211 829 OFFCURVE",
"264 876 OFFCURVE",
"303 903 CURVE",
"274 930 LINE",
"237 903 OFFCURVE",
"193 863 OFFCURVE",
"166 828 CURVE",
"161 828 LINE",
"134 863 OFFCURVE",
"90 903 OFFCURVE",
"53 930 CURVE",
"24 903 LINE",
"63 876 OFFCURVE",
"116 829 OFFCURVE",
"147 786 CURVE"
);
}
);
width = 328;
}
);
note = Icaron;
unicode = 01CF;
},
{
glyphname = Icircumflex;
lastChange = "2015-11-28 05:20:19 +0000";
layers = (
{
layerId = "55230DDF-46DB-445B-B73A-3B2EF2AFB87A";
name = Light;
paths = (
{
closed = 1;
nodes = (
"281 0 LINE",
"281 9 LINE",
"256 17 OFFCURVE",
"226 23 OFFCURVE",
"199 27 CURVE",
"199 672 LINE",
"228 676 OFFCURVE",
"257 682 OFFCURVE",
"281 690 CURVE",
"281 700 LINE",
"47 700 LINE",
"47 690 LINE",
"72 682 OFFCURVE",
"101 676 OFFCURVE",
"128 672 CURVE",
"128 27 LINE",
"100 23 OFFCURVE",
"71 17 OFFCURVE",
"47 10 CURVE",
"47 0 LINE"
);
},
{
closed = 1;
nodes = (
"90 806 OFFCURVE",
"134 846 OFFCURVE",
"161 881 CURVE",
"166 881 LINE",
"193 846 OFFCURVE",
"237 806 OFFCURVE",
"274 779 CURVE",
"303 806 LINE",
"264 833 OFFCURVE",
"211 880 OFFCURVE",
"180 922 CURVE",
"147 922 LINE",
"116 880 OFFCURVE",
"63 833 OFFCURVE",
"24 806 CURVE",
"53 779 LINE"
);
}
);
width = 328;
}
);
note = Icircumflex;
unicode = 00CE;
},
{
glyphname = Idieresis;
lastChange = "2015-11-28 05:20:20 +0000";
layers = (
{
layerId = "55230DDF-46DB-445B-B73A-3B2EF2AFB87A";
name = Light;
paths = (
{
closed = 1;
nodes = (
"281 0 LINE",
"281 9 LINE",
"256 17 OFFCURVE",
"226 23 OFFCURVE",
"199 27 CURVE",
"199 672 LINE",
"228 676 OFFCURVE",
"257 682 OFFCURVE",
"281 690 CURVE",
"281 700 LINE",
"47 700 LINE",
"47 690 LINE",
"72 682 OFFCURVE",
"101 676 OFFCURVE",
"128 672 CURVE",
"128 27 LINE",
"100 23 OFFCURVE",
"71 17 OFFCURVE",
"47 10 CURVE",
"47 0 LINE"
);
},
{
closed = 1;
nodes = (
"80 785 OFFCURVE",
"96 801 OFFCURVE",
"96 825 CURVE SMOOTH",
"96 850 OFFCURVE",
"80 866 OFFCURVE",
"57 866 CURVE SMOOTH",
"34 866 OFFCURVE",
"18 850 OFFCURVE",
"18 825 CURVE SMOOTH",
"18 801 OFFCURVE",
"34 785 OFFCURVE",
"57 785 CURVE SMOOTH"
);
},
{
closed = 1;
nodes = (
"293 785 OFFCURVE",
"309 801 OFFCURVE",
"309 825 CURVE SMOOTH",
"309 850 OFFCURVE",
"293 866 OFFCURVE",
"270 866 CURVE SMOOTH",
"247 866 OFFCURVE",
"231 850 OFFCURVE",
"231 825 CURVE SMOOTH",
"231 801 OFFCURVE",
"247 785 OFFCURVE",
"270 785 CURVE SMOOTH"
);
}
);
width = 328;
}
);
note = Idieresis;
unicode = 00CF;
},
{
glyphname = Idotaccent;
lastChange = "2015-11-28 05:20:19 +0000";
layers = (
{
layerId = "55230DDF-46DB-445B-B73A-3B2EF2AFB87A";
name = Light;
paths = (
{
closed = 1;
nodes = (
"281 0 LINE",
"281 9 LINE",
"256 17 OFFCURVE",
"226 23 OFFCURVE",
"199 27 CURVE",
"199 672 LINE",
"228 676 OFFCURVE",
"257 682 OFFCURVE",
"281 690 CURVE",
"281 700 LINE",
"47 700 LINE",
"47 690 LINE",
"72 682 OFFCURVE",
"101 676 OFFCURVE",
"128 672 CURVE",
"128 27 LINE",
"100 23 OFFCURVE",
"71 17 OFFCURVE",
"47 10 CURVE",
"47 0 LINE"
);
},
{
closed = 1;
nodes = (
"186 785 OFFCURVE",
"202 801 OFFCURVE",
"202 825 CURVE SMOOTH",
"202 850 OFFCURVE",
"186 866 OFFCURVE",
"163 866 CURVE SMOOTH",
"139 866 OFFCURVE",
"124 850 OFFCURVE",
"124 825 CURVE SMOOTH",
"124 801 OFFCURVE",
"139 785 OFFCURVE",
"163 785 CURVE SMOOTH"
);
}
);
width = 328;
}
);
note = Idotaccent;
unicode = 0130;
},
{
glyphname = Idotbelow;
lastChange = "2015-11-28 05:20:21 +0000";
layers = (
{
layerId = "55230DDF-46DB-445B-B73A-3B2EF2AFB87A";
name = Light;
paths = (
{
closed = 1;
nodes = (
"281 0 LINE",
"281 9 LINE",
"256 17 OFFCURVE",
"226 23 OFFCURVE",
"199 27 CURVE",
"199 672 LINE",
"228 676 OFFCURVE",
"257 682 OFFCURVE",
"281 690 CURVE",
"281 700 LINE",
"47 700 LINE",
"47 690 LINE",
"72 682 OFFCURVE",
"101 676 OFFCURVE",
"128 672 CURVE",
"128 27 LINE",
"100 23 OFFCURVE",
"71 17 OFFCURVE",
"47 10 CURVE",
"47 0 LINE"
);
},
{
closed = 1;
nodes = (
"186 -142 OFFCURVE",
"202 -126 OFFCURVE",
"202 -102 CURVE SMOOTH",
"202 -77 OFFCURVE",
"186 -61 OFFCURVE",
"163 -61 CURVE SMOOTH",
"140 -61 OFFCURVE",
"124 -77 OFFCURVE",
"124 -102 CURVE SMOOTH",
"124 -126 OFFCURVE",
"140 -142 OFFCURVE",
"163 -142 CURVE SMOOTH"
);
}
);
width = 328;
}
);
note = Idotbelow;
unicode = 1ECA;
},
{
glyphname = Igrave;
lastChange = "2015-11-28 05:20:19 +0000";
layers = (
{
layerId = "55230DDF-46DB-445B-B73A-3B2EF2AFB87A";
name = Light;
paths = (
{
closed = 1;
nodes = (
"281 0 LINE",
"281 9 LINE",
"256 17 OFFCURVE",
"226 23 OFFCURVE",
"199 27 CURVE",
"199 672 LINE",
"228 676 OFFCURVE",
"257 682 OFFCURVE",
"281 690 CURVE",
"281 700 LINE",
"47 700 LINE",
"47 690 LINE",
"72 682 OFFCURVE",
"101 676 OFFCURVE",
"128 672 CURVE",
"128 27 LINE",
"100 23 OFFCURVE",
"71 17 OFFCURVE",
"47 10 CURVE",
"47 0 LINE"
);
},
{
closed = 1;
nodes = (
"251 805 LINE",
"138 905 LINE",
"130 914 OFFCURVE",
"117 924 OFFCURVE",
"100 924 CURVE SMOOTH",
"84 924 OFFCURVE",
"74 913 OFFCURVE",
"74 901 CURVE SMOOTH",
"74 888 OFFCURVE",
"84 876 OFFCURVE",
"102 865 CURVE SMOOTH",
"238 786 LINE"
);
}
);
width = 328;
}
);
note = Igrave;
unicode = 00CC;
},
{
glyphname = Ihookabove;
lastChange = "2015-11-28 05:20:21 +0000";
layers = (
{
layerId = "55230DDF-46DB-445B-B73A-3B2EF2AFB87A";
name = Light;
paths = (
{
closed = 1;
nodes = (
"281 0 LINE",
"281 9 LINE",
"256 17 OFFCURVE",
"226 23 OFFCURVE",
"199 27 CURVE",
"199 672 LINE",
"228 676 OFFCURVE",
"257 682 OFFCURVE",
"281 690 CURVE",
"281 700 LINE",
"47 700 LINE",
"47 690 LINE",
"72 682 OFFCURVE",
"101 676 OFFCURVE",
"128 672 CURVE",
"128 27 LINE",
"100 23 OFFCURVE",
"71 17 OFFCURVE",
"47 10 CURVE",
"47 0 LINE"
);
},
{
closed = 1;
nodes = (
"182 779 LINE",
"193 841 LINE",
"244 846 OFFCURVE",
"273 871 OFFCURVE",
"273 914 CURVE SMOOTH",
"273 966 OFFCURVE",
"229 989 OFFCURVE",
"182 989 CURVE SMOOTH",
"153 989 OFFCURVE",
"126 981 OFFCURVE",
"108 972 CURVE",
"115 945 LINE",
"135 956 OFFCURVE",
"156 961 OFFCURVE",
"172 961 CURVE SMOOTH",
"211 961 OFFCURVE",
"230 941 OFFCURVE",
"230 916 CURVE SMOOTH",
"230 887 OFFCURVE",
"210 864 OFFCURVE",
"166 864 CURVE SMOOTH",
"146 864 LINE",
"151 779 LINE"
);
}
);
width = 328;
}
);
note = Ihookabove;
unicode = 1EC8;
},
{
glyphname = Imacron;
lastChange = "2015-11-28 05:20:20 +0000";
layers = (
{
layerId = "55230DDF-46DB-445B-B73A-3B2EF2AFB87A";
name = Light;
paths = (
{
closed = 1;
nodes = (
"281 0 LINE",
"281 9 LINE",
"256 17 OFFCURVE",
"226 23 OFFCURVE",
"199 27 CURVE",
"199 672 LINE",
"228 676 OFFCURVE",
"257 682 OFFCURVE",
"281 690 CURVE",
"281 700 LINE",
"47 700 LINE",
"47 690 LINE",
"72 682 OFFCURVE",
"101 676 OFFCURVE",
"128 672 CURVE",
"128 27 LINE",
"100 23 OFFCURVE",
"71 17 OFFCURVE",
"47 10 CURVE",
"47 0 LINE"
);
},
{
closed = 1;
nodes = (
"328 785 LINE",
"328 816 LINE",
"1 816 LINE",
"1 785 LINE"
);
}
);
width = 328;
}
);
note = Imacron;
unicode = 012A;
},
{
glyphname = Iogonek;
lastChange = "2015-11-28 05:20:21 +0000";
layers = (
{
layerId = "55230DDF-46DB-445B-B73A-3B2EF2AFB87A";
name = Light;
paths = (
{
closed = 1;
nodes = (
"281 0 LINE",
"281 9 LINE",
"256 17 OFFCURVE",
"226 23 OFFCURVE",
"199 27 CURVE",
"199 672 LINE",
"228 676 OFFCURVE",
"257 682 OFFCURVE",
"281 690 CURVE",
"281 700 LINE",
"47 700 LINE",
"47 690 LINE",
"72 682 OFFCURVE",
"101 676 OFFCURVE",
"128 672 CURVE",
"128 27 LINE",
"100 23 OFFCURVE",
"71 17 OFFCURVE",
"47 10 CURVE",
"47 0 LINE"
);
},
{
closed = 1;
nodes = (
"254 -181 OFFCURVE",
"277 -176 OFFCURVE",
"300 -166 CURVE",
"300 -133 LINE",
"283 -141 OFFCURVE",
"266 -144 OFFCURVE",
"250 -144 CURVE SMOOTH",
"216 -144 OFFCURVE",
"189 -129 OFFCURVE",
"189 -94 CURVE SMOOTH",
"189 -56 OFFCURVE",
"218 -20 OFFCURVE",
"255 0 CURVE",
"213 0 LINE",
"164 -20 OFFCURVE",
"134 -60 OFFCURVE",
"134 -104 CURVE SMOOTH",
"134 -142 OFFCURVE",
"164 -181 OFFCURVE",
"226 -181 CURVE SMOOTH"
);
}
);
width = 328;
}
);
note = Iogonek;
unicode = 012E;
},
{
glyphname = Itilde;
lastChange = "2015-11-28 05:20:20 +0000";
layers = (
{
layerId = "55230DDF-46DB-445B-B73A-3B2EF2AFB87A";
name = Light;
paths = (
{
closed = 1;
nodes = (
"281 0 LINE",
"281 9 LINE",
"256 17 OFFCURVE",
"226 23 OFFCURVE",
"199 27 CURVE",
"199 672 LINE",
"228 676 OFFCURVE",
"257 682 OFFCURVE",
"281 690 CURVE",
"281 700 LINE",
"47 700 LINE",
"47 690 LINE",
"72 682 OFFCURVE",
"101 676 OFFCURVE",
"128 672 CURVE",
"128 27 LINE",
"100 23 OFFCURVE",
"71 17 OFFCURVE",
"47 10 CURVE",
"47 0 LINE"
);
},
{
closed = 1;
nodes = (
"29 786 LINE",
"37 822 OFFCURVE",
"60 845 OFFCURVE",
"91 845 CURVE SMOOTH",
"132 845 OFFCURVE",
"185 787 OFFCURVE",
"232 787 CURVE SMOOTH",
"285 787 OFFCURVE",
"314 826 OFFCURVE",
"323 887 CURVE",
"298 887 LINE",
"288 845 OFFCURVE",
"265 825 OFFCURVE",
"234 825 CURVE SMOOTH",
"193 825 OFFCURVE",
"146 881 OFFCURVE",
"93 881 CURVE SMOOTH",
"46 881 OFFCURVE",
"12 852 OFFCURVE",
"3 786 CURVE"
);
}
);
width = 328;
}
);
note = Itilde;
unicode = 0128;
},
{
glyphname = J;
lastChange = "2015-11-28 05:20:16 +0000";
layers = (
{
layerId = "55230DDF-46DB-445B-B73A-3B2EF2AFB87A";
name = Light;
paths = (
{
closed = 1;
nodes = (
"269 -10 OFFCURVE",
"333 42 OFFCURVE",
"333 137 CURVE SMOOTH",
"333 672 LINE",
"368 675 OFFCURVE",
"393 682 OFFCURVE",
"413 689 CURVE",
"413 700 LINE",
"182 700 LINE",
"182 688 LINE",
"202 682 OFFCURVE",
"223 676 OFFCURVE",
"262 671 CURVE",
"262 139 LINE SMOOTH",
"262 56 OFFCURVE",
"213 27 OFFCURVE",
"146 27 CURVE SMOOTH",
"102 27 OFFCURVE",
"64 39 OFFCURVE",
"34 56 CURVE",
"22 36 LINE",
"58 7 OFFCURVE",
"106 -10 OFFCURVE",
"167 -10 CURVE SMOOTH"
);
}
);
width = 457;
}
);
leftKerningGroup = J;
note = J;
rightKerningGroup = J;
unicode = 004A;
},
{
glyphname = Jcircumflex;
lastChange = "2015-11-28 05:20:21 +0000";
layers = (
{
layerId = "55230DDF-46DB-445B-B73A-3B2EF2AFB87A";
name = Light;
paths = (
{
closed = 1;
nodes = (
"269 -10 OFFCURVE",
"333 42 OFFCURVE",
"333 137 CURVE SMOOTH",
"333 672 LINE",
"368 675 OFFCURVE",
"393 682 OFFCURVE",
"413 689 CURVE",
"413 700 LINE",
"182 700 LINE",
"182 688 LINE",
"202 682 OFFCURVE",
"223 676 OFFCURVE",
"262 671 CURVE",
"262 139 LINE SMOOTH",
"262 56 OFFCURVE",
"213 27 OFFCURVE",
"146 27 CURVE SMOOTH",
"102 27 OFFCURVE",
"64 39 OFFCURVE",
"34 56 CURVE",
"22 36 LINE",
"58 7 OFFCURVE",
"106 -10 OFFCURVE",
"167 -10 CURVE SMOOTH"
);
},
{
closed = 1;
nodes = (
"224 806 OFFCURVE",
"268 846 OFFCURVE",
"295 881 CURVE",
"300 881 LINE",
"327 846 OFFCURVE",
"371 806 OFFCURVE",
"408 779 CURVE",
"437 806 LINE",
"398 833 OFFCURVE",
"345 880 OFFCURVE",
"314 922 CURVE",
"281 922 LINE",
"250 880 OFFCURVE",
"197 833 OFFCURVE",
"158 806 CURVE",
"187 779 LINE"
);
}
);
width = 457;
}
);
leftKerningGroup = J;
note = Jcircumflex;
rightKerningGroup = J;
unicode = 0134;
},
{
glyphname = K;
lastChange = "2015-11-28 05:20:16 +0000";
layers = (
{
layerId = "55230DDF-46DB-445B-B73A-3B2EF2AFB87A";
name = Light;
paths = (
{
closed = 1;
nodes = (
"277 0 LINE",
"277 9 LINE",
"252 17 OFFCURVE",
"223 23 OFFCURVE",
"195 27 CURVE",
"195 270 LINE",
"276 360 LINE",
"563 0 LINE",
"702 0 LINE",
"702 9 LINE",
"673 18 OFFCURVE",
"642 23 OFFCURVE",
"620 27 CURVE",
"319 405 LINE",
"556 664 LINE",
"577 682 OFFCURVE",
"604 682 OFFCURVE",
"624 687 CURVE",
"624 700 LINE",
"433 700 LINE",
"433 687 LINE",
"454 681 OFFCURVE",
"500 681 OFFCURVE",
"507 665 CURVE",
"195 322 LINE",
"195 672 LINE",
"224 676 OFFCURVE",
"252 682 OFFCURVE",
"277 690 CURVE",
"277 700 LINE",
"43 700 LINE",
"43 690 LINE",
"68 682 OFFCURVE",
"97 676 OFFCURVE",
"124 672 CURVE",
"124 27 LINE",
"103 25 OFFCURVE",
"68 18 OFFCURVE",
"43 10 CURVE",
"43 0 LINE"
);
}
);
width = 713;
}
);
note = K;
rightKerningGroup = K;
unicode = 004B;
},
{
glyphname = Kcommaaccent;
lastChange = "2015-11-28 05:20:20 +0000";
layers = (
{
layerId = "55230DDF-46DB-445B-B73A-3B2EF2AFB87A";
name = Light;
paths = (
{
closed = 1;
nodes = (
"277 0 LINE",
"277 9 LINE",
"252 17 OFFCURVE",
"223 23 OFFCURVE",
"195 27 CURVE",
"195 270 LINE",
"276 360 LINE",
"563 0 LINE",
"702 0 LINE",
"702 9 LINE",
"673 18 OFFCURVE",
"642 23 OFFCURVE",
"620 27 CURVE",
"319 405 LINE",
"556 664 LINE",
"577 682 OFFCURVE",
"604 682 OFFCURVE",
"624 687 CURVE",
"624 700 LINE",
"433 700 LINE",
"433 687 LINE",
"454 681 OFFCURVE",
"500 681 OFFCURVE",
"507 665 CURVE",
"195 322 LINE",
"195 672 LINE",
"224 676 OFFCURVE",
"252 682 OFFCURVE",
"277 690 CURVE",
"277 700 LINE",
"43 700 LINE",
"43 690 LINE",
"68 682 OFFCURVE",
"97 676 OFFCURVE",
"124 672 CURVE",
"124 27 LINE",
"103 25 OFFCURVE",
"68 18 OFFCURVE",
"43 10 CURVE",
"43 0 LINE"
);
},
{
closed = 1;
nodes = (
"408 -244 OFFCURVE",
"433 -175 OFFCURVE",
"433 -127 CURVE SMOOTH",
"433 -91 OFFCURVE",
"417 -65 OFFCURVE",
"378 -65 CURVE SMOOTH",
"354 -65 OFFCURVE",
"332 -79 OFFCURVE",
"332 -108 CURVE SMOOTH",
"332 -133 OFFCURVE",
"351 -151 OFFCURVE",
"375 -151 CURVE SMOOTH",
"379 -151 OFFCURVE",
"383 -150 OFFCURVE",
"387 -149 CURVE",
"384 -189 OFFCURVE",
"368 -230 OFFCURVE",
"344 -259 CURVE",
"370 -280 LINE"
);
}
);
width = 713;
}
);
note = Kcommaaccent;
rightKerningGroup = K;
unicode = 0136;
},
{
glyphname = L;
lastChange = "2015-11-28 05:20:16 +0000";
layers = (
{
layerId = "55230DDF-46DB-445B-B73A-3B2EF2AFB87A";
name = Light;
paths = (
{
closed = 1;
nodes = (
"524 0 LINE",
"537 134 LINE",
"520 134 LINE",
"509 115 OFFCURVE",
"488 58 OFFCURVE",
"486 31 CURVE",
"198 31 LINE",
"198 672 LINE",
"226 676 OFFCURVE",
"254 682 OFFCURVE",
"279 690 CURVE",
"279 700 LINE",
"45 700 LINE",
"45 690 LINE",
"71 682 OFFCURVE",
"99 676 OFFCURVE",
"127 672 CURVE",
"127 27 LINE",
"89 23 OFFCURVE",
"64 17 OFFCURVE",
"44 10 CURVE",
"44 0 LINE"
);
}
);
width = 581;
}
);
note = L;
rightKerningGroup = L;
unicode = 004C;
},
{
glyphname = Lacute;
lastChange = "2015-11-28 05:20:19 +0000";
layers = (
{
layerId = "55230DDF-46DB-445B-B73A-3B2EF2AFB87A";
name = Light;
paths = (
{
closed = 1;
nodes = (
"524 0 LINE",
"537 134 LINE",
"520 134 LINE",
"509 115 OFFCURVE",
"488 58 OFFCURVE",
"486 31 CURVE",
"198 31 LINE",
"198 672 LINE",
"226 676 OFFCURVE",
"254 682 OFFCURVE",
"279 690 CURVE",
"279 700 LINE",
"45 700 LINE",
"45 690 LINE",
"71 682 OFFCURVE",
"99 676 OFFCURVE",
"127 672 CURVE",
"127 27 LINE",
"89 23 OFFCURVE",
"64 17 OFFCURVE",
"44 10 CURVE",
"44 0 LINE"
);
},
{
closed = 1;
nodes = (
"276 865 LINE SMOOTH",
"294 876 OFFCURVE",
"303 888 OFFCURVE",
"303 901 CURVE SMOOTH",
"303 913 OFFCURVE",
"294 924 OFFCURVE",
"278 924 CURVE SMOOTH",
"260 924 OFFCURVE",
"246 912 OFFCURVE",
"239 905 CURVE",
"127 805 LINE",
"140 786 LINE"
);
}
);
width = 581;
}
);
note = Lacute;
rightKerningGroup = L;
unicode = 0139;
},
{
glyphname = Lcaron;
lastChange = "2015-11-28 05:20:21 +0000";
layers = (
{
layerId = "55230DDF-46DB-445B-B73A-3B2EF2AFB87A";
name = Light;
paths = (
{
closed = 1;
nodes = (
"524 0 LINE",
"537 134 LINE",
"520 134 LINE",
"509 115 OFFCURVE",
"488 58 OFFCURVE",
"486 31 CURVE",
"198 31 LINE",
"198 672 LINE",
"226 676 OFFCURVE",
"254 682 OFFCURVE",
"279 690 CURVE",
"279 700 LINE",
"45 700 LINE",
"45 690 LINE",
"71 682 OFFCURVE",
"99 676 OFFCURVE",
"127 672 CURVE",
"127 27 LINE",
"89 23 OFFCURVE",
"64 17 OFFCURVE",
"44 10 CURVE",
"44 0 LINE"
);
},
{
closed = 1;
nodes = (
"459 527 OFFCURVE",
"486 596 OFFCURVE",
"486 644 CURVE SMOOTH",
"486 680 OFFCURVE",
"472 710 OFFCURVE",
"430 710 CURVE SMOOTH",
"400 710 OFFCURVE",
"383 691 OFFCURVE",
"383 663 CURVE SMOOTH",
"383 634 OFFCURVE",
"404 620 OFFCURVE",
"426 620 CURVE SMOOTH",
"430 620 OFFCURVE",
"435 621 OFFCURVE",
"439 622 CURVE",
"436 582 OFFCURVE",
"419 541 OFFCURVE",
"395 512 CURVE",
"421 491 LINE"
);
}
);
width = 581;
}
);
note = Lcaron;
rightKerningGroup = L;
unicode = 013D;
},
{
glyphname = Lcommaaccent;
lastChange = "2015-11-28 05:20:21 +0000";
layers = (
{
layerId = "55230DDF-46DB-445B-B73A-3B2EF2AFB87A";
name = Light;
paths = (
{
closed = 1;
nodes = (
"524 0 LINE",
"537 134 LINE",
"520 134 LINE",
"509 115 OFFCURVE",
"488 58 OFFCURVE",
"486 31 CURVE",
"198 31 LINE",
"198 672 LINE",
"226 676 OFFCURVE",
"254 682 OFFCURVE",
"279 690 CURVE",
"279 700 LINE",
"45 700 LINE",
"45 690 LINE",
"71 682 OFFCURVE",
"99 676 OFFCURVE",
"127 672 CURVE",
"127 27 LINE",
"89 23 OFFCURVE",
"64 17 OFFCURVE",
"44 10 CURVE",
"44 0 LINE"
);
},
{
closed = 1;
nodes = (
"338 -244 OFFCURVE",
"363 -175 OFFCURVE",
"363 -127 CURVE SMOOTH",
"363 -91 OFFCURVE",
"347 -65 OFFCURVE",
"308 -65 CURVE SMOOTH",
"284 -65 OFFCURVE",
"262 -79 OFFCURVE",
"262 -108 CURVE SMOOTH",
"262 -133 OFFCURVE",
"281 -151 OFFCURVE",
"305 -151 CURVE SMOOTH",
"309 -151 OFFCURVE",
"313 -150 OFFCURVE",
"317 -149 CURVE",
"314 -189 OFFCURVE",
"298 -230 OFFCURVE",
"274 -259 CURVE",
"300 -280 LINE"
);
}
);
width = 581;
}
);
note = Lcommaaccent;
rightKerningGroup = L;
unicode = 013B;
},
{
glyphname = Ldot;
lastChange = "2015-11-28 05:20:19 +0000";
layers = (
{
layerId = "55230DDF-46DB-445B-B73A-3B2EF2AFB87A";
name = Light;
paths = (
{
closed = 1;
nodes = (
"524 0 LINE",
"537 134 LINE",
"520 134 LINE",
"509 115 OFFCURVE",
"488 58 OFFCURVE",
"486 31 CURVE",
"198 31 LINE",
"198 672 LINE",
"226 676 OFFCURVE",
"254 682 OFFCURVE",
"279 690 CURVE",
"279 700 LINE",
"45 700 LINE",
"45 690 LINE",
"71 682 OFFCURVE",
"99 676 OFFCURVE",
"127 672 CURVE",
"127 27 LINE",
"89 23 OFFCURVE",
"64 17 OFFCURVE",
"44 10 CURVE",
"44 0 LINE"
);
},
{
closed = 1;
nodes = (
"399 332 OFFCURVE",
"415 348 OFFCURVE",
"415 373 CURVE SMOOTH",
"415 397 OFFCURVE",
"399 413 OFFCURVE",
"375 413 CURVE SMOOTH",
"352 413 OFFCURVE",
"336 397 OFFCURVE",
"336 373 CURVE SMOOTH",
"336 348 OFFCURVE",
"352 332 OFFCURVE",
"375 332 CURVE SMOOTH"
);
}
);
width = 581;
}
);
note = Ldot;
rightKerningGroup = L;
unicode = 013F;
},
{
glyphname = Ldotbelow;
lastChange = "2015-11-28 05:20:21 +0000";
layers = (
{
layerId = "55230DDF-46DB-445B-B73A-3B2EF2AFB87A";
name = Light;
paths = (
{
closed = 1;
nodes = (
"524 0 LINE",
"537 134 LINE",
"520 134 LINE",
"509 115 OFFCURVE",
"488 58 OFFCURVE",
"486 31 CURVE",
"198 31 LINE",
"198 672 LINE",
"226 676 OFFCURVE",
"254 682 OFFCURVE",
"279 690 CURVE",
"279 700 LINE",
"45 700 LINE",
"45 690 LINE",
"71 682 OFFCURVE",
"99 676 OFFCURVE",
"127 672 CURVE",
"127 27 LINE",
"89 23 OFFCURVE",
"64 17 OFFCURVE",
"44 10 CURVE",
"44 0 LINE"
);
},
{
closed = 1;
nodes = (
"344 -134 OFFCURVE",
"360 -118 OFFCURVE",
"360 -93 CURVE SMOOTH",
"360 -69 OFFCURVE",
"344 -53 OFFCURVE",
"321 -53 CURVE SMOOTH",
"297 -53 OFFCURVE",
"282 -69 OFFCURVE",
"282 -93 CURVE SMOOTH",
"282 -118 OFFCURVE",
"297 -134 OFFCURVE",
"321 -134 CURVE SMOOTH"
);
}
);
width = 581;
}
);
note = Ldotbelow;
rightKerningGroup = L;
unicode = 1E36;
},
{
glyphname = Ldotbelowmacron;
lastChange = "2015-11-28 05:20:20 +0000";
layers = (
{
layerId = "55230DDF-46DB-445B-B73A-3B2EF2AFB87A";
name = Light;
paths = (
{
closed = 1;
nodes = (
"524 0 LINE",
"537 134 LINE",
"520 134 LINE",
"509 115 OFFCURVE",
"488 58 OFFCURVE",
"486 31 CURVE",
"198 31 LINE",
"198 672 LINE",
"226 676 OFFCURVE",
"254 682 OFFCURVE",
"279 690 CURVE",
"279 700 LINE",
"45 700 LINE",
"45 690 LINE",
"71 682 OFFCURVE",
"99 676 OFFCURVE",
"127 672 CURVE",
"127 27 LINE",
"89 23 OFFCURVE",
"64 17 OFFCURVE",
"44 10 CURVE",
"44 0 LINE"
);
},
{
closed = 1;
nodes = (
"343 -134 OFFCURVE",
"359 -118 OFFCURVE",
"359 -93 CURVE SMOOTH",
"359 -69 OFFCURVE",
"343 -53 OFFCURVE",
"320 -53 CURVE SMOOTH",
"297 -53 OFFCURVE",
"281 -69 OFFCURVE",
"281 -93 CURVE SMOOTH",
"281 -118 OFFCURVE",
"297 -134 OFFCURVE",
"320 -134 CURVE SMOOTH"
);
},
{
closed = 1;
nodes = (
"319 785 LINE",
"319 815 LINE",
"5 815 LINE",
"5 785 LINE"
);
}
);
width = 581;
}
);
note = Ldotbelowmacron;
rightKerningGroup = L;
unicode = 1E38;
},
{
glyphname = Llinebelow;
lastChange = "2015-11-28 05:20:21 +0000";
layers = (
{
layerId = "55230DDF-46DB-445B-B73A-3B2EF2AFB87A";
name = Light;
paths = (
{
closed = 1;
nodes = (
"524 0 LINE",
"537 134 LINE",
"520 134 LINE",
"509 115 OFFCURVE",
"488 58 OFFCURVE",
"486 31 CURVE",
"198 31 LINE",
"198 672 LINE",
"226 676 OFFCURVE",
"254 682 OFFCURVE",
"279 690 CURVE",
"279 700 LINE",
"45 700 LINE",
"45 690 LINE",
"71 682 OFFCURVE",
"99 676 OFFCURVE",
"127 672 CURVE",
"127 27 LINE",
"89 23 OFFCURVE",
"64 17 OFFCURVE",
"44 10 CURVE",
"44 0 LINE"
);
},
{
closed = 1;
nodes = (
"458 -102 LINE",
"458 -71 LINE",
"144 -71 LINE",
"144 -102 LINE"
);
}
);
width = 581;
}
);
note = Llinebelow;
rightKerningGroup = L;
unicode = 1E3A;
},
{
glyphname = Lslash;
lastChange = "2015-11-28 05:20:19 +0000";
layers = (
{
layerId = "55230DDF-46DB-445B-B73A-3B2EF2AFB87A";
name = Light;
paths = (
{
closed = 1;
nodes = (
"524 0 LINE",
"537 134 LINE",
"520 134 LINE",
"509 115 OFFCURVE",
"488 58 OFFCURVE",
"486 31 CURVE",
"198 31 LINE",
"198 672 LINE",
"226 676 OFFCURVE",
"254 682 OFFCURVE",
"279 690 CURVE",
"279 700 LINE",
"45 700 LINE",
"45 690 LINE",
"71 682 OFFCURVE",
"99 676 OFFCURVE",
"127 672 CURVE",
"127 27 LINE",
"89 23 OFFCURVE",
"64 17 OFFCURVE",
"44 10 CURVE",
"44 0 LINE"
);
},
{
closed = 1;
nodes = (
"411 384 LINE",
"411 425 LINE",
"37 290 LINE",
"37 249 LINE"
);
}
);
width = 581;
}
);
note = Lslash;
rightKerningGroup = L;
unicode = 0141;
},
{
glyphname = M;
lastChange = "2015-11-28 05:20:16 +0000";
layers = (
{
layerId = "55230DDF-46DB-445B-B73A-3B2EF2AFB87A";
name = Light;
paths = (
{
closed = 1;
nodes = (
"245 0 LINE",
"245 9 LINE",
"219 17 OFFCURVE",
"192 23 OFFCURVE",
"164 27 CURVE",
"164 650 LINE",
"410 78 LINE",
"451 78 LINE",
"701 646 LINE",
"701 27 LINE",
"673 23 OFFCURVE",
"645 17 OFFCURVE",
"620 9 CURVE",
"620 0 LINE",
"853 0 LINE",
"853 9 LINE",
"827 17 OFFCURVE",
"799 23 OFFCURVE",
"772 26 CURVE",
"772 671 LINE",
"800 676 OFFCURVE",
"829 682 OFFCURVE",
"853 690 CURVE",
"853 700 LINE",
"687 700 LINE",
"444 144 LINE",
"212 700 LINE",
"43 700 LINE",
"43 690 LINE",
"68 682 OFFCURVE",
"97 676 OFFCURVE",
"124 672 CURVE",
"124 26 LINE",
"97 23 OFFCURVE",
"69 17 OFFCURVE",
"43 9 CURVE",
"43 0 LINE"
);
}
);
width = 896;
}
);
note = M;
unicode = 004D;
},
{
glyphname = Mdotbelow;
lastChange = "2015-11-28 05:20:20 +0000";
layers = (
{
layerId = "55230DDF-46DB-445B-B73A-3B2EF2AFB87A";
name = Light;
paths = (
{
closed = 1;
nodes = (
"245 0 LINE",
"245 9 LINE",
"219 17 OFFCURVE",
"192 23 OFFCURVE",
"164 27 CURVE",
"164 650 LINE",
"410 78 LINE",
"451 78 LINE",
"701 646 LINE",
"701 27 LINE",
"673 23 OFFCURVE",
"645 17 OFFCURVE",
"620 9 CURVE",
"620 0 LINE",
"853 0 LINE",
"853 9 LINE",
"827 17 OFFCURVE",
"799 23 OFFCURVE",
"772 26 CURVE",
"772 671 LINE",
"800 676 OFFCURVE",
"829 682 OFFCURVE",
"853 690 CURVE",
"853 700 LINE",
"687 700 LINE",
"444 144 LINE",
"212 700 LINE",
"43 700 LINE",
"43 690 LINE",
"68 682 OFFCURVE",
"97 676 OFFCURVE",
"124 672 CURVE",
"124 26 LINE",
"97 23 OFFCURVE",
"69 17 OFFCURVE",
"43 9 CURVE",
"43 0 LINE"
);
},
{
closed = 1;
nodes = (
"470 -142 OFFCURVE",
"486 -126 OFFCURVE",
"486 -102 CURVE SMOOTH",
"486 -77 OFFCURVE",
"470 -61 OFFCURVE",
"447 -61 CURVE SMOOTH",
"424 -61 OFFCURVE",
"408 -77 OFFCURVE",
"408 -102 CURVE SMOOTH",
"408 -126 OFFCURVE",
"424 -142 OFFCURVE",
"447 -142 CURVE SMOOTH"
);
}
);
width = 896;
}
);
note = Mdotbelow;
unicode = 1E42;
},
{
glyphname = N;
lastChange = "2015-11-28 05:20:16 +0000";
layers = (
{
layerId = "55230DDF-46DB-445B-B73A-3B2EF2AFB87A";
name = Light;
paths = (
{
closed = 1;
nodes = (
"245 0 LINE",
"245 9 LINE",
"219 17 OFFCURVE",
"192 23 OFFCURVE",
"164 27 CURVE",
"164 659 LINE",
"607 0 LINE",
"651 0 LINE",
"651 672 LINE",
"679 677 OFFCURVE",
"707 682 OFFCURVE",
"732 690 CURVE",
"732 700 LINE",
"531 700 LINE",
"531 690 LINE",
"556 682 OFFCURVE",
"584 677 OFFCURVE",
"612 673 CURVE",
"612 93 LINE",
"207 700 LINE",
"43 700 LINE",
"43 690 LINE",
"68 682 OFFCURVE",
"97 676 OFFCURVE",
"124 672 CURVE",
"124 26 LINE",
"97 23 OFFCURVE",
"69 17 OFFCURVE",
"43 9 CURVE",
"43 0 LINE"
);
}
);
width = 776;
}
);
note = N;
unicode = 004E;
},
{
glyphname = Nacute;
lastChange = "2015-11-28 05:20:19 +0000";
layers = (
{
layerId = "55230DDF-46DB-445B-B73A-3B2EF2AFB87A";
name = Light;
paths = (
{
closed = 1;
nodes = (
"245 0 LINE",
"245 9 LINE",
"219 17 OFFCURVE",
"192 23 OFFCURVE",
"164 27 CURVE",
"164 659 LINE",
"607 0 LINE",
"651 0 LINE",
"651 672 LINE",
"679 677 OFFCURVE",
"707 682 OFFCURVE",
"732 690 CURVE",
"732 700 LINE",
"531 700 LINE",
"531 690 LINE",
"556 682 OFFCURVE",
"584 677 OFFCURVE",
"612 673 CURVE",
"612 93 LINE",
"207 700 LINE",
"43 700 LINE",
"43 690 LINE",
"68 682 OFFCURVE",
"97 676 OFFCURVE",
"124 672 CURVE",
"124 26 LINE",
"97 23 OFFCURVE",
"69 17 OFFCURVE",
"43 9 CURVE",
"43 0 LINE"
);
},
{
closed = 1;
nodes = (
"481 865 LINE SMOOTH",
"499 876 OFFCURVE",
"508 888 OFFCURVE",
"508 901 CURVE SMOOTH",
"508 913 OFFCURVE",
"499 924 OFFCURVE",
"483 924 CURVE SMOOTH",
"465 924 OFFCURVE",
"451 912 OFFCURVE",
"444 905 CURVE",
"332 805 LINE",
"345 786 LINE"
);
}
);
width = 776;
}
);
note = Nacute;
unicode = 0143;
},
{
glyphname = Ncaron;
lastChange = "2015-11-28 05:20:20 +0000";
layers = (
{
layerId = "55230DDF-46DB-445B-B73A-3B2EF2AFB87A";
name = Light;
paths = (
{
closed = 1;
nodes = (
"245 0 LINE",
"245 9 LINE",
"219 17 OFFCURVE",
"192 23 OFFCURVE",
"164 27 CURVE",
"164 659 LINE",
"607 0 LINE",
"651 0 LINE",
"651 672 LINE",
"679 677 OFFCURVE",
"707 682 OFFCURVE",
"732 690 CURVE",
"732 700 LINE",
"531 700 LINE",
"531 690 LINE",
"556 682 OFFCURVE",
"584 677 OFFCURVE",
"612 673 CURVE",
"612 93 LINE",
"207 700 LINE",
"43 700 LINE",
"43 690 LINE",
"68 682 OFFCURVE",
"97 676 OFFCURVE",
"124 672 CURVE",
"124 26 LINE",
"97 23 OFFCURVE",
"69 17 OFFCURVE",
"43 9 CURVE",
"43 0 LINE"
);
},
{
closed = 1;
nodes = (
"403 786 LINE",
"434 829 OFFCURVE",
"487 876 OFFCURVE",
"526 903 CURVE",
"497 930 LINE",
"460 903 OFFCURVE",
"416 863 OFFCURVE",
"389 828 CURVE",
"384 828 LINE",
"357 863 OFFCURVE",
"313 903 OFFCURVE",
"276 930 CURVE",
"247 903 LINE",
"286 876 OFFCURVE",
"339 829 OFFCURVE",
"370 786 CURVE"
);
}
);
width = 776;
}
);
note = Ncaron;
unicode = 0147;
},
{
glyphname = Ncommaaccent;
lastChange = "2015-11-28 05:20:22 +0000";
layers = (
{
layerId = "55230DDF-46DB-445B-B73A-3B2EF2AFB87A";
name = Light;
paths = (
{
closed = 1;
nodes = (
"245 0 LINE",
"245 9 LINE",
"219 17 OFFCURVE",
"192 23 OFFCURVE",
"164 27 CURVE",
"164 659 LINE",
"607 0 LINE",
"651 0 LINE",
"651 672 LINE",
"679 677 OFFCURVE",
"707 682 OFFCURVE",
"732 690 CURVE",
"732 700 LINE",
"531 700 LINE",
"531 690 LINE",
"556 682 OFFCURVE",
"584 677 OFFCURVE",
"612 673 CURVE",
"612 93 LINE",
"207 700 LINE",
"43 700 LINE",
"43 690 LINE",
"68 682 OFFCURVE",
"97 676 OFFCURVE",
"124 672 CURVE",
"124 26 LINE",
"97 23 OFFCURVE",
"69 17 OFFCURVE",
"43 9 CURVE",
"43 0 LINE"
);
},
{
closed = 1;
nodes = (
"413 -244 OFFCURVE",
"438 -175 OFFCURVE",
"438 -127 CURVE SMOOTH",
"438 -91 OFFCURVE",
"422 -65 OFFCURVE",
"383 -65 CURVE SMOOTH",
"359 -65 OFFCURVE",
"337 -79 OFFCURVE",
"337 -108 CURVE SMOOTH",
"337 -133 OFFCURVE",
"356 -151 OFFCURVE",
"380 -151 CURVE SMOOTH",
"384 -151 OFFCURVE",
"388 -150 OFFCURVE",
"392 -149 CURVE",
"389 -189 OFFCURVE",
"373 -230 OFFCURVE",
"349 -259 CURVE",
"375 -280 LINE"
);
}
);
width = 776;
}
);
note = Ncommaaccent;
unicode = 0145;
},
{
glyphname = Ndotaccent;
lastChange = "2015-11-28 05:20:21 +0000";
layers = (
{
layerId = "55230DDF-46DB-445B-B73A-3B2EF2AFB87A";
name = Light;
paths = (
{
closed = 1;
nodes = (
"245 0 LINE",
"245 9 LINE",
"219 17 OFFCURVE",
"192 23 OFFCURVE",
"164 27 CURVE",
"164 659 LINE",
"607 0 LINE",
"651 0 LINE",
"651 672 LINE",
"679 677 OFFCURVE",
"707 682 OFFCURVE",
"732 690 CURVE",
"732 700 LINE",
"531 700 LINE",
"531 690 LINE",
"556 682 OFFCURVE",
"584 677 OFFCURVE",
"612 673 CURVE",
"612 93 LINE",
"207 700 LINE",
"43 700 LINE",
"43 690 LINE",
"68 682 OFFCURVE",
"97 676 OFFCURVE",
"124 672 CURVE",
"124 26 LINE",
"97 23 OFFCURVE",
"69 17 OFFCURVE",
"43 9 CURVE",
"43 0 LINE"
);
},
{
closed = 1;
nodes = (
"415 785 OFFCURVE",
"431 801 OFFCURVE",
"431 825 CURVE SMOOTH",
"431 850 OFFCURVE",
"415 866 OFFCURVE",
"392 866 CURVE SMOOTH",
"368 866 OFFCURVE",
"353 850 OFFCURVE",
"353 825 CURVE SMOOTH",
"353 801 OFFCURVE",
"368 785 OFFCURVE",
"392 785 CURVE SMOOTH"
);
}
);
width = 776;
}
);
note = Ndotaccent;
unicode = 1E44;
},
{
glyphname = Ndotbelow;
lastChange = "2015-11-28 05:20:21 +0000";
layers = (
{
layerId = "55230DDF-46DB-445B-B73A-3B2EF2AFB87A";
name = Light;
paths = (
{
closed = 1;
nodes = (
"245 0 LINE",
"245 9 LINE",
"219 17 OFFCURVE",
"192 23 OFFCURVE",
"164 27 CURVE",
"164 659 LINE",
"607 0 LINE",
"651 0 LINE",
"651 672 LINE",
"679 677 OFFCURVE",
"707 682 OFFCURVE",
"732 690 CURVE",
"732 700 LINE",
"531 700 LINE",
"531 690 LINE",
"556 682 OFFCURVE",
"584 677 OFFCURVE",
"612 673 CURVE",
"612 93 LINE",
"207 700 LINE",
"43 700 LINE",
"43 690 LINE",
"68 682 OFFCURVE",
"97 676 OFFCURVE",
"124 672 CURVE",
"124 26 LINE",
"97 23 OFFCURVE",
"69 17 OFFCURVE",
"43 9 CURVE",
"43 0 LINE"
);
},
{
closed = 1;
nodes = (
"399 -142 OFFCURVE",
"415 -126 OFFCURVE",
"415 -102 CURVE SMOOTH",
"415 -77 OFFCURVE",
"399 -61 OFFCURVE",
"376 -61 CURVE SMOOTH",
"353 -61 OFFCURVE",
"337 -77 OFFCURVE",
"337 -102 CURVE SMOOTH",
"337 -126 OFFCURVE",
"353 -142 OFFCURVE",
"376 -142 CURVE SMOOTH"
);
}
);
width = 776;
}
);
note = uni1E46;
unicode = 1E46;
},
{
glyphname = Eng;
lastChange = "2015-11-28 05:20:16 +0000";
layers = (
{
layerId = "55230DDF-46DB-445B-B73A-3B2EF2AFB87A";
name = Light;
paths = (
{
closed = 1;
nodes = (
"599 -248 OFFCURVE",
"651 -198 OFFCURVE",
"651 -109 CURVE SMOOTH",
"651 672 LINE",
"679 677 OFFCURVE",
"707 682 OFFCURVE",
"732 690 CURVE",
"732 700 LINE",
"531 700 LINE",
"531 690 LINE",
"556 682 OFFCURVE",
"584 677 OFFCURVE",
"612 673 CURVE",
"612 93 LINE",
"207 700 LINE",
"43 700 LINE",
"43 690 LINE",
"68 682 OFFCURVE",
"97 676 OFFCURVE",
"124 672 CURVE",
"124 26 LINE",
"97 23 OFFCURVE",
"69 17 OFFCURVE",
"43 9 CURVE",
"43 0 LINE",
"245 0 LINE",
"245 9 LINE",
"219 17 OFFCURVE",
"192 23 OFFCURVE",
"164 27 CURVE",
"164 659 LINE",
"612 0 LINE",
"612 -106 LINE SMOOTH",
"612 -185 OFFCURVE",
"559 -213 OFFCURVE",
"490 -213 CURVE SMOOTH",
"449 -213 OFFCURVE",
"415 -205 OFFCURVE",
"386 -192 CURVE",
"378 -212 LINE",
"412 -234 OFFCURVE",
"451 -248 OFFCURVE",
"505 -248 CURVE SMOOTH"
);
}
);
width = 776;
}
);
note = Eng;
unicode = 014A;
},
{
glyphname = Nlinebelow;
lastChange = "2015-11-28 05:20:21 +0000";
layers = (
{
layerId = "55230DDF-46DB-445B-B73A-3B2EF2AFB87A";
name = Light;
paths = (
{
closed = 1;
nodes = (
"245 0 LINE",
"245 9 LINE",
"219 17 OFFCURVE",
"192 23 OFFCURVE",
"164 27 CURVE",
"164 659 LINE",
"607 0 LINE",
"651 0 LINE",
"651 672 LINE",
"679 677 OFFCURVE",
"707 682 OFFCURVE",
"732 690 CURVE",
"732 700 LINE",
"531 700 LINE",
"531 690 LINE",
"556 682 OFFCURVE",
"584 677 OFFCURVE",
"612 673 CURVE",
"612 93 LINE",
"207 700 LINE",
"43 700 LINE",
"43 690 LINE",
"68 682 OFFCURVE",
"97 676 OFFCURVE",
"124 672 CURVE",
"124 26 LINE",
"97 23 OFFCURVE",
"69 17 OFFCURVE",
"43 9 CURVE",
"43 0 LINE"
);
},
{
closed = 1;
nodes = (
"547 -102 LINE",
"547 -71 LINE",
"233 -71 LINE",
"233 -102 LINE"
);
}
);
width = 776;
}
);
note = Nlinebelow;
unicode = 1E48;
},
{
glyphname = Ntilde;
lastChange = "2015-11-28 05:20:22 +0000";
layers = (
{
layerId = "55230DDF-46DB-445B-B73A-3B2EF2AFB87A";
name = Light;
paths = (
{
closed = 1;
nodes = (
"245 0 LINE",
"245 9 LINE",
"219 17 OFFCURVE",
"192 23 OFFCURVE",
"164 27 CURVE",
"164 659 LINE",
"607 0 LINE",
"651 0 LINE",
"651 672 LINE",
"679 677 OFFCURVE",
"707 682 OFFCURVE",
"732 690 CURVE",
"732 700 LINE",
"531 700 LINE",
"531 690 LINE",
"556 682 OFFCURVE",
"584 677 OFFCURVE",
"612 673 CURVE",
"612 93 LINE",
"207 700 LINE",
"43 700 LINE",
"43 690 LINE",
"68 682 OFFCURVE",
"97 676 OFFCURVE",
"124 672 CURVE",
"124 26 LINE",
"97 23 OFFCURVE",
"69 17 OFFCURVE",
"43 9 CURVE",
"43 0 LINE"
);
},
{
closed = 1;
nodes = (
"256 786 LINE",
"264 822 OFFCURVE",
"287 845 OFFCURVE",
"318 845 CURVE SMOOTH",
"359 845 OFFCURVE",
"412 787 OFFCURVE",
"459 787 CURVE SMOOTH",
"512 787 OFFCURVE",
"541 826 OFFCURVE",
"550 887 CURVE",
"525 887 LINE",
"515 845 OFFCURVE",
"492 825 OFFCURVE",
"461 825 CURVE SMOOTH",
"420 825 OFFCURVE",
"373 881 OFFCURVE",
"320 881 CURVE SMOOTH",
"273 881 OFFCURVE",
"239 852 OFFCURVE",
"230 786 CURVE"
);
}
);
width = 776;
}
);
note = Ntilde;
unicode = 00D1;
},
{
glyphname = O;
lastChange = "2015-11-28 05:20:21 +0000";
layers = (
{
layerId = "55230DDF-46DB-445B-B73A-3B2EF2AFB87A";
name = Light;
paths = (
{
closed = 1;
nodes = (
"551 -10 OFFCURVE",
"660 127 OFFCURVE",
"660 350 CURVE SMOOTH",
"660 572 OFFCURVE",
"551 710 OFFCURVE",
"349 710 CURVE SMOOTH",
"146 710 OFFCURVE",
"38 572 OFFCURVE",
"38 350 CURVE SMOOTH",
"38 127 OFFCURVE",
"146 -10 OFFCURVE",
"349 -10 CURVE SMOOTH"
);
},
{
closed = 1;
nodes = (
"185 22 OFFCURVE",
"109 160 OFFCURVE",
"109 350 CURVE SMOOTH",
"109 539 OFFCURVE",
"185 678 OFFCURVE",
"349 678 CURVE SMOOTH",
"512 678 OFFCURVE",
"589 539 OFFCURVE",
"589 350 CURVE SMOOTH",
"589 160 OFFCURVE",
"512 22 OFFCURVE",
"349 22 CURVE SMOOTH"
);
}
);
width = 698;
}
);
leftKerningGroup = O;
note = O;
rightKerningGroup = O;
unicode = 004F;
},
{
glyphname = Oacute;
lastChange = "2015-11-28 05:20:21 +0000";
layers = (
{
layerId = "55230DDF-46DB-445B-B73A-3B2EF2AFB87A";
name = Light;
paths = (
{
closed = 1;
nodes = (
"551 -10 OFFCURVE",
"660 127 OFFCURVE",
"660 350 CURVE SMOOTH",
"660 572 OFFCURVE",
"551 710 OFFCURVE",
"349 710 CURVE SMOOTH",
"146 710 OFFCURVE",
"38 572 OFFCURVE",
"38 350 CURVE SMOOTH",
"38 127 OFFCURVE",
"146 -10 OFFCURVE",
"349 -10 CURVE SMOOTH"
);
},
{
closed = 1;
nodes = (
"185 22 OFFCURVE",
"109 160 OFFCURVE",
"109 350 CURVE SMOOTH",
"109 539 OFFCURVE",
"185 678 OFFCURVE",
"349 678 CURVE SMOOTH",
"512 678 OFFCURVE",
"589 539 OFFCURVE",
"589 350 CURVE SMOOTH",
"589 160 OFFCURVE",
"512 22 OFFCURVE",
"349 22 CURVE SMOOTH"
);
},
{
closed = 1;
nodes = (
"411 865 LINE SMOOTH",
"429 876 OFFCURVE",
"438 888 OFFCURVE",
"438 901 CURVE SMOOTH",
"438 913 OFFCURVE",
"429 924 OFFCURVE",
"413 924 CURVE SMOOTH",
"395 924 OFFCURVE",
"381 912 OFFCURVE",
"374 905 CURVE",
"262 805 LINE",
"275 786 LINE"
);
}
);
width = 698;
}
);
leftKerningGroup = O;
note = Oacute;
rightKerningGroup = O;
unicode = 00D3;
},
{
glyphname = Obreve;
lastChange = "2015-11-28 05:20:19 +0000";
layers = (
{
layerId = "55230DDF-46DB-445B-B73A-3B2EF2AFB87A";
name = Light;
paths = (
{
closed = 1;
nodes = (
"551 -10 OFFCURVE",
"660 127 OFFCURVE",
"660 350 CURVE SMOOTH",
"660 572 OFFCURVE",
"551 710 OFFCURVE",
"349 710 CURVE SMOOTH",
"146 710 OFFCURVE",
"38 572 OFFCURVE",
"38 350 CURVE SMOOTH",
"38 127 OFFCURVE",
"146 -10 OFFCURVE",
"349 -10 CURVE SMOOTH"
);
},
{
closed = 1;
nodes = (
"185 22 OFFCURVE",
"109 160 OFFCURVE",
"109 350 CURVE SMOOTH",
"109 539 OFFCURVE",
"185 678 OFFCURVE",
"349 678 CURVE SMOOTH",
"512 678 OFFCURVE",
"589 539 OFFCURVE",
"589 350 CURVE SMOOTH",
"589 160 OFFCURVE",
"512 22 OFFCURVE",
"349 22 CURVE SMOOTH"
);
},
{
closed = 1;
nodes = (
"429 774 OFFCURVE",
"487 811 OFFCURVE",
"496 894 CURVE",
"450 894 LINE",
"441 817 OFFCURVE",
"390 806 OFFCURVE",
"349 806 CURVE SMOOTH",
"308 806 OFFCURVE",
"256 817 OFFCURVE",
"248 894 CURVE",
"202 894 LINE",
"211 811 OFFCURVE",
"269 774 OFFCURVE",
"349 774 CURVE SMOOTH"
);
}
);
width = 698;
}
);
leftKerningGroup = O;
note = Obreve;
rightKerningGroup = O;
unicode = 014E;
},
{
glyphname = Ocaron;
lastChange = "2015-11-28 05:20:19 +0000";
layers = (
{
layerId = "55230DDF-46DB-445B-B73A-3B2EF2AFB87A";
name = Light;
paths = (
{
closed = 1;
nodes = (
"551 -10 OFFCURVE",
"660 127 OFFCURVE",
"660 350 CURVE SMOOTH",
"660 572 OFFCURVE",
"551 710 OFFCURVE",
"349 710 CURVE SMOOTH",
"146 710 OFFCURVE",
"38 572 OFFCURVE",
"38 350 CURVE SMOOTH",
"38 127 OFFCURVE",
"146 -10 OFFCURVE",
"349 -10 CURVE SMOOTH"
);
},
{
closed = 1;
nodes = (
"185 22 OFFCURVE",
"109 160 OFFCURVE",
"109 350 CURVE SMOOTH",
"109 539 OFFCURVE",
"185 678 OFFCURVE",
"349 678 CURVE SMOOTH",
"512 678 OFFCURVE",
"589 539 OFFCURVE",
"589 350 CURVE SMOOTH",
"589 160 OFFCURVE",
"512 22 OFFCURVE",
"349 22 CURVE SMOOTH"
);
},
{
closed = 1;
nodes = (
"366 786 LINE",
"397 829 OFFCURVE",
"450 876 OFFCURVE",
"489 903 CURVE",
"460 930 LINE",
"423 903 OFFCURVE",
"379 863 OFFCURVE",
"352 828 CURVE",
"347 828 LINE",
"320 863 OFFCURVE",
"276 903 OFFCURVE",
"239 930 CURVE",
"210 903 LINE",
"249 876 OFFCURVE",
"302 829 OFFCURVE",
"333 786 CURVE"
);
}
);
width = 698;
}
);
leftKerningGroup = O;
note = Ocaron;
rightKerningGroup = O;
unicode = 01D1;
},
{
glyphname = Ocircumflex;
lastChange = "2015-11-28 05:20:20 +0000";
layers = (
{
layerId = "55230DDF-46DB-445B-B73A-3B2EF2AFB87A";
name = Light;
paths = (
{
closed = 1;
nodes = (
"551 -10 OFFCURVE",
"660 127 OFFCURVE",
"660 350 CURVE SMOOTH",
"660 572 OFFCURVE",
"551 710 OFFCURVE",
"349 710 CURVE SMOOTH",
"146 710 OFFCURVE",
"38 572 OFFCURVE",
"38 350 CURVE SMOOTH",
"38 127 OFFCURVE",
"146 -10 OFFCURVE",
"349 -10 CURVE SMOOTH"
);
},
{
closed = 1;
nodes = (
"185 22 OFFCURVE",
"109 160 OFFCURVE",
"109 350 CURVE SMOOTH",
"109 539 OFFCURVE",
"185 678 OFFCURVE",
"349 678 CURVE SMOOTH",
"512 678 OFFCURVE",
"589 539 OFFCURVE",
"589 350 CURVE SMOOTH",
"589 160 OFFCURVE",
"512 22 OFFCURVE",
"349 22 CURVE SMOOTH"
);
},
{
closed = 1;
nodes = (
"275 806 OFFCURVE",
"319 846 OFFCURVE",
"346 881 CURVE",
"351 881 LINE",
"378 846 OFFCURVE",
"422 806 OFFCURVE",
"459 779 CURVE",
"488 806 LINE",
"449 833 OFFCURVE",
"396 880 OFFCURVE",
"365 922 CURVE",
"332 922 LINE",
"301 880 OFFCURVE",
"248 833 OFFCURVE",
"209 806 CURVE",
"238 779 LINE"
);
}
);
width = 698;
}
);
leftKerningGroup = O;
note = Ocircumflex;
rightKerningGroup = O;
unicode = 00D4;
},
{
glyphname = Ocircumflexacute;
lastChange = "2015-11-28 05:20:20 +0000";
layers = (
{
layerId = "55230DDF-46DB-445B-B73A-3B2EF2AFB87A";
name = Light;
paths = (
{
closed = 1;
nodes = (
"551 -10 OFFCURVE",
"660 127 OFFCURVE",
"660 350 CURVE SMOOTH",
"660 572 OFFCURVE",
"551 710 OFFCURVE",
"349 710 CURVE SMOOTH",
"146 710 OFFCURVE",
"38 572 OFFCURVE",
"38 350 CURVE SMOOTH",
"38 127 OFFCURVE",
"146 -10 OFFCURVE",
"349 -10 CURVE SMOOTH"
);
},
{
closed = 1;
nodes = (
"185 22 OFFCURVE",
"109 160 OFFCURVE",
"109 350 CURVE SMOOTH",
"109 539 OFFCURVE",
"185 678 OFFCURVE",
"349 678 CURVE SMOOTH",
"512 678 OFFCURVE",
"589 539 OFFCURVE",
"589 350 CURVE SMOOTH",
"589 160 OFFCURVE",
"512 22 OFFCURVE",
"349 22 CURVE SMOOTH"
);
},
{
closed = 1;
nodes = (
"274 806 OFFCURVE",
"318 846 OFFCURVE",
"345 881 CURVE",
"350 881 LINE",
"378 846 OFFCURVE",
"421 806 OFFCURVE",
"458 779 CURVE",
"487 806 LINE",
"449 833 OFFCURVE",
"395 880 OFFCURVE",
"364 922 CURVE",
"331 922 LINE",
"300 880 OFFCURVE",
"247 833 OFFCURVE",
"208 806 CURVE",
"238 779 LINE"
);
},
{
closed = 1;
nodes = (
"570 955 LINE SMOOTH",
"595 968 OFFCURVE",
"606 985 OFFCURVE",
"606 998 CURVE SMOOTH",
"606 1010 OFFCURVE",
"597 1018 OFFCURVE",
"584 1018 CURVE SMOOTH",
"570 1018 OFFCURVE",
"553 1010 OFFCURVE",
"536 992 CURVE",
"447 910 LINE",
"459 893 LINE"
);
}
);
width = 698;
}
);
leftKerningGroup = O;
note = Ocircumflexacute;
rightKerningGroup = O;
unicode = 1ED0;
},
{
glyphname = Ocircumflexdotbelow;
lastChange = "2015-11-28 05:20:21 +0000";
layers = (
{
layerId = "55230DDF-46DB-445B-B73A-3B2EF2AFB87A";
name = Light;
paths = (
{
closed = 1;
nodes = (
"551 -10 OFFCURVE",
"660 127 OFFCURVE",
"660 350 CURVE SMOOTH",
"660 572 OFFCURVE",
"551 710 OFFCURVE",
"349 710 CURVE SMOOTH",
"146 710 OFFCURVE",
"38 572 OFFCURVE",
"38 350 CURVE SMOOTH",
"38 127 OFFCURVE",
"146 -10 OFFCURVE",
"349 -10 CURVE SMOOTH"
);
},
{
closed = 1;
nodes = (
"371 -142 OFFCURVE",
"387 -126 OFFCURVE",
"387 -102 CURVE SMOOTH",
"387 -77 OFFCURVE",
"371 -61 OFFCURVE",
"348 -61 CURVE SMOOTH",
"325 -61 OFFCURVE",
"309 -77 OFFCURVE",
"309 -102 CURVE SMOOTH",
"309 -126 OFFCURVE",
"325 -142 OFFCURVE",
"348 -142 CURVE SMOOTH"
);
},
{
closed = 1;
nodes = (
"185 22 OFFCURVE",
"109 160 OFFCURVE",
"109 350 CURVE SMOOTH",
"109 539 OFFCURVE",
"185 678 OFFCURVE",
"349 678 CURVE SMOOTH",
"512 678 OFFCURVE",
"589 539 OFFCURVE",
"589 350 CURVE SMOOTH",
"589 160 OFFCURVE",
"512 22 OFFCURVE",
"349 22 CURVE SMOOTH"
);
},
{
closed = 1;
nodes = (
"275 806 OFFCURVE",
"319 846 OFFCURVE",
"346 881 CURVE",
"351 881 LINE",
"378 846 OFFCURVE",
"422 806 OFFCURVE",
"459 779 CURVE",
"488 806 LINE",
"449 833 OFFCURVE",
"396 880 OFFCURVE",
"365 922 CURVE",
"332 922 LINE",
"301 880 OFFCURVE",
"248 833 OFFCURVE",
"209 806 CURVE",
"238 779 LINE"
);
}
);
width = 698;
}
);
leftKerningGroup = O;
note = Ocircumflexdotbelow;
rightKerningGroup = O;
unicode = 1ED8;
},
{
glyphname = Ocircumflexgrave;
lastChange = "2015-11-28 05:20:20 +0000";
layers = (
{
layerId = "55230DDF-46DB-445B-B73A-3B2EF2AFB87A";
name = Light;
paths = (
{
closed = 1;
nodes = (
"551 -10 OFFCURVE",
"660 127 OFFCURVE",
"660 350 CURVE SMOOTH",
"660 572 OFFCURVE",
"551 710 OFFCURVE",
"349 710 CURVE SMOOTH",
"146 710 OFFCURVE",
"38 572 OFFCURVE",
"38 350 CURVE SMOOTH",
"38 127 OFFCURVE",
"146 -10 OFFCURVE",
"349 -10 CURVE SMOOTH"
);
},
{
closed = 1;
nodes = (
"185 22 OFFCURVE",
"109 160 OFFCURVE",
"109 350 CURVE SMOOTH",
"109 539 OFFCURVE",
"185 678 OFFCURVE",
"349 678 CURVE SMOOTH",
"512 678 OFFCURVE",
"589 539 OFFCURVE",
"589 350 CURVE SMOOTH",
"589 160 OFFCURVE",
"512 22 OFFCURVE",
"349 22 CURVE SMOOTH"
);
},
{
closed = 1;
nodes = (
"258 910 LINE",
"186 977 LINE SMOOTH",
"163 998 OFFCURVE",
"139 1018 OFFCURVE",
"120 1018 CURVE SMOOTH",
"108 1018 OFFCURVE",
"99 1010 OFFCURVE",
"99 998 CURVE SMOOTH",
"99 980 OFFCURVE",
"125 960 OFFCURVE",
"155 943 CURVE SMOOTH",
"245 893 LINE"
);
},
{
closed = 1;
nodes = (
"274 806 OFFCURVE",
"318 846 OFFCURVE",
"345 881 CURVE",
"350 881 LINE",
"378 846 OFFCURVE",
"421 806 OFFCURVE",
"458 779 CURVE",
"487 806 LINE",
"449 833 OFFCURVE",
"395 880 OFFCURVE",
"364 922 CURVE",
"331 922 LINE",
"300 880 OFFCURVE",
"247 833 OFFCURVE",
"208 806 CURVE",
"238 779 LINE"
);
}
);
width = 698;
}
);
leftKerningGroup = O;
note = Ocircumflexgrave;
rightKerningGroup = O;
unicode = 1ED2;
},
{
glyphname = Ocircumflexhookabove;
lastChange = "2015-11-28 05:20:20 +0000";
layers = (
{
layerId = "55230DDF-46DB-445B-B73A-3B2EF2AFB87A";
name = Light;
paths = (
{
closed = 1;
nodes = (
"551 -10 OFFCURVE",
"660 127 OFFCURVE",
"660 350 CURVE SMOOTH",
"660 572 OFFCURVE",
"551 710 OFFCURVE",
"349 710 CURVE SMOOTH",
"146 710 OFFCURVE",
"38 572 OFFCURVE",
"38 350 CURVE SMOOTH",
"38 127 OFFCURVE",
"146 -10 OFFCURVE",
"349 -10 CURVE SMOOTH"
);
},
{
closed = 1;
nodes = (
"185 22 OFFCURVE",
"109 160 OFFCURVE",
"109 350 CURVE SMOOTH",
"109 539 OFFCURVE",
"185 678 OFFCURVE",
"349 678 CURVE SMOOTH",
"512 678 OFFCURVE",
"589 539 OFFCURVE",
"589 350 CURVE SMOOTH",
"589 160 OFFCURVE",
"512 22 OFFCURVE",
"349 22 CURVE SMOOTH"
);
},
{
closed = 1;
nodes = (
"274 806 OFFCURVE",
"318 846 OFFCURVE",
"345 881 CURVE",
"350 881 LINE",
"378 846 OFFCURVE",
"421 806 OFFCURVE",
"458 779 CURVE",
"487 806 LINE",
"449 833 OFFCURVE",
"395 880 OFFCURVE",
"364 922 CURVE",
"331 922 LINE",
"300 880 OFFCURVE",
"247 833 OFFCURVE",
"208 806 CURVE",
"238 779 LINE"
);
},
{
closed = 1;
nodes = (
"475 879 LINE",
"484 930 LINE",
"528 935 OFFCURVE",
"553 953 OFFCURVE",
"553 991 CURVE SMOOTH",
"553 1035 OFFCURVE",
"515 1053 OFFCURVE",
"475 1053 CURVE SMOOTH",
"451 1053 OFFCURVE",
"428 1046 OFFCURVE",
"413 1039 CURVE",
"418 1016 LINE",
"435 1025 OFFCURVE",
"452 1028 OFFCURVE",
"466 1028 CURVE SMOOTH",
"499 1028 OFFCURVE",
"515 1013 OFFCURVE",
"515 992 CURVE SMOOTH",
"515 968 OFFCURVE",
"498 950 OFFCURVE",
"460 950 CURVE SMOOTH",
"443 950 LINE",
"447 879 LINE"
);
}
);
width = 698;
}
);
leftKerningGroup = O;
note = Ocircumflexhookabove;
rightKerningGroup = O;
unicode = 1ED4;
},
{
glyphname = Ocircumflextilde;
lastChange = "2015-11-28 05:20:21 +0000";
layers = (
{
layerId = "55230DDF-46DB-445B-B73A-3B2EF2AFB87A";
name = Light;
paths = (
{
closed = 1;
nodes = (
"551 -10 OFFCURVE",
"660 127 OFFCURVE",
"660 350 CURVE SMOOTH",
"660 572 OFFCURVE",
"551 710 OFFCURVE",
"349 710 CURVE SMOOTH",
"146 710 OFFCURVE",
"38 572 OFFCURVE",
"38 350 CURVE SMOOTH",
"38 127 OFFCURVE",
"146 -10 OFFCURVE",
"349 -10 CURVE SMOOTH"
);
},
{
closed = 1;
nodes = (
"185 22 OFFCURVE",
"109 160 OFFCURVE",
"109 350 CURVE SMOOTH",
"109 539 OFFCURVE",
"185 678 OFFCURVE",
"349 678 CURVE SMOOTH",
"512 678 OFFCURVE",
"589 539 OFFCURVE",
"589 350 CURVE SMOOTH",
"589 160 OFFCURVE",
"512 22 OFFCURVE",
"349 22 CURVE SMOOTH"
);
},
{
closed = 1;
nodes = (
"274 806 OFFCURVE",
"318 846 OFFCURVE",
"345 881 CURVE",
"350 881 LINE",
"378 846 OFFCURVE",
"421 806 OFFCURVE",
"458 779 CURVE",
"487 806 LINE",
"449 833 OFFCURVE",
"395 880 OFFCURVE",
"364 922 CURVE",
"331 922 LINE",
"300 880 OFFCURVE",
"247 833 OFFCURVE",
"208 806 CURVE",
"238 779 LINE"
);
},
{
closed = 1;
nodes = (
"224 954 LINE",
"232 990 OFFCURVE",
"252 1013 OFFCURVE",
"280 1013 CURVE SMOOTH",
"317 1013 OFFCURVE",
"365 955 OFFCURVE",
"407 955 CURVE SMOOTH",
"455 955 OFFCURVE",
"481 994 OFFCURVE",
"489 1055 CURVE",
"466 1055 LINE",
"457 1013 OFFCURVE",
"437 993 OFFCURVE",
"409 993 CURVE SMOOTH",
"372 993 OFFCURVE",
"330 1049 OFFCURVE",
"282 1049 CURVE SMOOTH",
"240 1049 OFFCURVE",
"209 1020 OFFCURVE",
"201 954 CURVE"
);
}
);
width = 698;
}
);
leftKerningGroup = O;
note = Ocircumflextilde;
rightKerningGroup = O;
unicode = 1ED6;
},
{
glyphname = Odieresis;
lastChange = "2015-11-28 05:20:20 +0000";
layers = (
{
layerId = "55230DDF-46DB-445B-B73A-3B2EF2AFB87A";
name = Light;
paths = (
{
closed = 1;
nodes = (
"551 -10 OFFCURVE",
"660 127 OFFCURVE",
"660 350 CURVE SMOOTH",
"660 572 OFFCURVE",
"551 710 OFFCURVE",
"349 710 CURVE SMOOTH",
"146 710 OFFCURVE",
"38 572 OFFCURVE",
"38 350 CURVE SMOOTH",
"38 127 OFFCURVE",
"146 -10 OFFCURVE",
"349 -10 CURVE SMOOTH"
);
},
{
closed = 1;
nodes = (
"185 22 OFFCURVE",
"109 160 OFFCURVE",
"109 350 CURVE SMOOTH",
"109 539 OFFCURVE",
"185 678 OFFCURVE",
"349 678 CURVE SMOOTH",
"512 678 OFFCURVE",
"589 539 OFFCURVE",
"589 350 CURVE SMOOTH",
"589 160 OFFCURVE",
"512 22 OFFCURVE",
"349 22 CURVE SMOOTH"
);
},
{
closed = 1;
nodes = (
"265 785 OFFCURVE",
"281 801 OFFCURVE",
"281 825 CURVE SMOOTH",
"281 850 OFFCURVE",
"265 866 OFFCURVE",
"242 866 CURVE SMOOTH",
"219 866 OFFCURVE",
"203 850 OFFCURVE",
"203 825 CURVE SMOOTH",
"203 801 OFFCURVE",
"219 785 OFFCURVE",
"242 785 CURVE SMOOTH"
);
},
{
closed = 1;
nodes = (
"478 785 OFFCURVE",
"494 801 OFFCURVE",
"494 825 CURVE SMOOTH",
"494 850 OFFCURVE",
"478 866 OFFCURVE",
"455 866 CURVE SMOOTH",
"432 866 OFFCURVE",
"416 850 OFFCURVE",
"416 825 CURVE SMOOTH",
"416 801 OFFCURVE",
"432 785 OFFCURVE",
"455 785 CURVE SMOOTH"
);
}
);
width = 698;
}
);
leftKerningGroup = O;
note = Odieresis;
rightKerningGroup = O;
unicode = 00D6;
},
{
glyphname = Odotbelow;
lastChange = "2015-11-28 05:20:20 +0000";
layers = (
{
layerId = "55230DDF-46DB-445B-B73A-3B2EF2AFB87A";
name = Light;
paths = (
{
closed = 1;
nodes = (
"551 -10 OFFCURVE",
"660 127 OFFCURVE",
"660 350 CURVE SMOOTH",
"660 572 OFFCURVE",
"551 710 OFFCURVE",
"349 710 CURVE SMOOTH",
"146 710 OFFCURVE",
"38 572 OFFCURVE",
"38 350 CURVE SMOOTH",
"38 127 OFFCURVE",
"146 -10 OFFCURVE",
"349 -10 CURVE SMOOTH"
);
},
{
closed = 1;
nodes = (
"371 -142 OFFCURVE",
"387 -126 OFFCURVE",
"387 -102 CURVE SMOOTH",
"387 -77 OFFCURVE",
"371 -61 OFFCURVE",
"348 -61 CURVE SMOOTH",
"325 -61 OFFCURVE",
"309 -77 OFFCURVE",
"309 -102 CURVE SMOOTH",
"309 -126 OFFCURVE",
"325 -142 OFFCURVE",
"348 -142 CURVE SMOOTH"
);
},
{
closed = 1;
nodes = (
"185 22 OFFCURVE",
"109 160 OFFCURVE",
"109 350 CURVE SMOOTH",
"109 539 OFFCURVE",
"185 678 OFFCURVE",
"349 678 CURVE SMOOTH",
"512 678 OFFCURVE",
"589 539 OFFCURVE",
"589 350 CURVE SMOOTH",
"589 160 OFFCURVE",
"512 22 OFFCURVE",
"349 22 CURVE SMOOTH"
);
}
);
width = 698;
}
);
leftKerningGroup = O;
note = Odotbelow;
rightKerningGroup = O;
unicode = 1ECC;
},
{
glyphname = Ograve;
lastChange = "2015-11-28 05:20:21 +0000";
layers = (
{
layerId = "55230DDF-46DB-445B-B73A-3B2EF2AFB87A";
name = Light;
paths = (
{
closed = 1;
nodes = (
"551 -10 OFFCURVE",
"660 127 OFFCURVE",
"660 350 CURVE SMOOTH",
"660 572 OFFCURVE",
"551 710 OFFCURVE",
"349 710 CURVE SMOOTH",
"146 710 OFFCURVE",
"38 572 OFFCURVE",
"38 350 CURVE SMOOTH",
"38 127 OFFCURVE",
"146 -10 OFFCURVE",
"349 -10 CURVE SMOOTH"
);
},
{
closed = 1;
nodes = (
"185 22 OFFCURVE",
"109 160 OFFCURVE",
"109 350 CURVE SMOOTH",
"109 539 OFFCURVE",
"185 678 OFFCURVE",
"349 678 CURVE SMOOTH",
"512 678 OFFCURVE",
"589 539 OFFCURVE",
"589 350 CURVE SMOOTH",
"589 160 OFFCURVE",
"512 22 OFFCURVE",
"349 22 CURVE SMOOTH"
);
},
{
closed = 1;
nodes = (
"434 805 LINE",
"321 905 LINE",
"313 914 OFFCURVE",
"300 924 OFFCURVE",
"283 924 CURVE SMOOTH",
"267 924 OFFCURVE",
"257 913 OFFCURVE",
"257 901 CURVE SMOOTH",
"257 888 OFFCURVE",
"267 876 OFFCURVE",
"285 865 CURVE SMOOTH",
"421 786 LINE"
);
}
);
width = 698;
}
);
leftKerningGroup = O;
note = Ograve;
rightKerningGroup = O;
unicode = 00D2;
},
{
glyphname = Ohookabove;
lastChange = "2015-11-28 05:20:20 +0000";
layers = (
{
layerId = "55230DDF-46DB-445B-B73A-3B2EF2AFB87A";
name = Light;
paths = (
{
closed = 1;
nodes = (
"551 -10 OFFCURVE",
"660 127 OFFCURVE",
"660 350 CURVE SMOOTH",
"660 572 OFFCURVE",
"551 710 OFFCURVE",
"349 710 CURVE SMOOTH",
"146 710 OFFCURVE",
"38 572 OFFCURVE",
"38 350 CURVE SMOOTH",
"38 127 OFFCURVE",
"146 -10 OFFCURVE",
"349 -10 CURVE SMOOTH"
);
},
{
closed = 1;
nodes = (
"185 22 OFFCURVE",
"109 160 OFFCURVE",
"109 350 CURVE SMOOTH",
"109 539 OFFCURVE",
"185 678 OFFCURVE",
"349 678 CURVE SMOOTH",
"512 678 OFFCURVE",
"589 539 OFFCURVE",
"589 350 CURVE SMOOTH",
"589 160 OFFCURVE",
"512 22 OFFCURVE",
"349 22 CURVE SMOOTH"
);
},
{
closed = 1;
nodes = (
"360 779 LINE",
"371 841 LINE",
"422 846 OFFCURVE",
"451 871 OFFCURVE",
"451 914 CURVE SMOOTH",
"451 966 OFFCURVE",
"407 989 OFFCURVE",
"360 989 CURVE SMOOTH",
"331 989 OFFCURVE",
"304 981 OFFCURVE",
"286 972 CURVE",
"293 945 LINE",
"313 956 OFFCURVE",
"334 961 OFFCURVE",
"350 961 CURVE SMOOTH",
"389 961 OFFCURVE",
"408 941 OFFCURVE",
"408 916 CURVE SMOOTH",
"408 887 OFFCURVE",
"388 864 OFFCURVE",
"344 864 CURVE SMOOTH",
"324 864 LINE",
"329 779 LINE"
);
}
);
width = 698;
}
);
leftKerningGroup = O;
note = Ohookabove;
rightKerningGroup = O;
unicode = 1ECE;
},
{
glyphname = Ohorn;
lastChange = "2015-11-28 05:20:19 +0000";
layers = (
{
layerId = "55230DDF-46DB-445B-B73A-3B2EF2AFB87A";
name = Light;
paths = (
{
closed = 1;
nodes = (
"551 -10 OFFCURVE",
"660 127 OFFCURVE",
"660 350 CURVE SMOOTH",
"660 572 OFFCURVE",
"551 710 OFFCURVE",
"349 710 CURVE SMOOTH",
"146 710 OFFCURVE",
"38 572 OFFCURVE",
"38 350 CURVE SMOOTH",
"38 127 OFFCURVE",
"146 -10 OFFCURVE",
"349 -10 CURVE SMOOTH"
);
},
{
closed = 1;
nodes = (
"185 22 OFFCURVE",
"109 160 OFFCURVE",
"109 350 CURVE SMOOTH",
"109 539 OFFCURVE",
"185 678 OFFCURVE",
"349 678 CURVE SMOOTH",
"512 678 OFFCURVE",
"589 539 OFFCURVE",
"589 350 CURVE SMOOTH",
"589 160 OFFCURVE",
"512 22 OFFCURVE",
"349 22 CURVE SMOOTH"
);
},
{
closed = 1;
nodes = (
"687 567 OFFCURVE",
"714 626 OFFCURVE",
"714 669 CURVE SMOOTH",
"714 701 OFFCURVE",
"704 734 OFFCURVE",
"659 734 CURVE SMOOTH",
"626 734 OFFCURVE",
"612 712 OFFCURVE",
"612 689 CURVE SMOOTH",
"612 662 OFFCURVE",
"629 647 OFFCURVE",
"653 647 CURVE SMOOTH",
"659 647 OFFCURVE",
"667 648 OFFCURVE",
"673 652 CURVE",
"669 606 OFFCURVE",
"632 566 OFFCURVE",
"603 545 CURVE",
"620 522 LINE"
);
}
);
width = 713;
}
);
leftKerningGroup = O;
note = Ohorn;
rightKerningGroup = O;
unicode = 01A0;
},
{
glyphname = Ohornacute;
lastChange = "2015-11-28 05:20:19 +0000";
layers = (
{
layerId = "55230DDF-46DB-445B-B73A-3B2EF2AFB87A";
name = Light;
paths = (
{
closed = 1;
nodes = (
"551 -10 OFFCURVE",
"660 127 OFFCURVE",
"660 350 CURVE SMOOTH",
"660 572 OFFCURVE",
"551 710 OFFCURVE",
"349 710 CURVE SMOOTH",
"146 710 OFFCURVE",
"38 572 OFFCURVE",
"38 350 CURVE SMOOTH",
"38 127 OFFCURVE",
"146 -10 OFFCURVE",
"349 -10 CURVE SMOOTH"
);
},
{
closed = 1;
nodes = (
"185 22 OFFCURVE",
"109 160 OFFCURVE",
"109 350 CURVE SMOOTH",
"109 539 OFFCURVE",
"185 678 OFFCURVE",
"349 678 CURVE SMOOTH",
"512 678 OFFCURVE",
"589 539 OFFCURVE",
"589 350 CURVE SMOOTH",
"589 160 OFFCURVE",
"512 22 OFFCURVE",
"349 22 CURVE SMOOTH"
);
},
{
closed = 1;
nodes = (
"412 864 LINE SMOOTH",
"430 875 OFFCURVE",
"439 887 OFFCURVE",
"439 900 CURVE SMOOTH",
"439 912 OFFCURVE",
"430 923 OFFCURVE",
"414 923 CURVE SMOOTH",
"396 923 OFFCURVE",
"382 911 OFFCURVE",
"375 904 CURVE",
"263 804 LINE",
"276 785 LINE"
);
},
{
closed = 1;
nodes = (
"687 567 OFFCURVE",
"714 626 OFFCURVE",
"714 669 CURVE SMOOTH",
"714 701 OFFCURVE",
"704 734 OFFCURVE",
"659 734 CURVE SMOOTH",
"626 734 OFFCURVE",
"612 712 OFFCURVE",
"612 689 CURVE SMOOTH",
"612 662 OFFCURVE",
"629 647 OFFCURVE",
"653 647 CURVE SMOOTH",
"659 647 OFFCURVE",
"667 648 OFFCURVE",
"673 652 CURVE",
"669 606 OFFCURVE",
"632 566 OFFCURVE",
"603 545 CURVE",
"620 522 LINE"
);
}
);
width = 713;
}
);
leftKerningGroup = O;
note = Ohornacute;
rightKerningGroup = O;
unicode = 1EDA;
},
{
glyphname = Ohorndotbelow;
lastChange = "2015-11-28 05:20:20 +0000";
layers = (
{
layerId = "55230DDF-46DB-445B-B73A-3B2EF2AFB87A";
name = Light;
paths = (
{
closed = 1;
nodes = (
"551 -10 OFFCURVE",
"660 127 OFFCURVE",
"660 350 CURVE SMOOTH",
"660 572 OFFCURVE",
"551 710 OFFCURVE",
"349 710 CURVE SMOOTH",
"146 710 OFFCURVE",
"38 572 OFFCURVE",
"38 350 CURVE SMOOTH",
"38 127 OFFCURVE",
"146 -10 OFFCURVE",
"349 -10 CURVE SMOOTH"
);
},
{
closed = 1;
nodes = (
"371 -142 OFFCURVE",
"387 -126 OFFCURVE",
"387 -102 CURVE SMOOTH",
"387 -77 OFFCURVE",
"371 -61 OFFCURVE",
"348 -61 CURVE SMOOTH",
"325 -61 OFFCURVE",
"309 -77 OFFCURVE",
"309 -102 CURVE SMOOTH",
"309 -126 OFFCURVE",
"325 -142 OFFCURVE",
"348 -142 CURVE SMOOTH"
);
},
{
closed = 1;
nodes = (
"185 22 OFFCURVE",
"109 160 OFFCURVE",
"109 350 CURVE SMOOTH",
"109 539 OFFCURVE",
"185 678 OFFCURVE",
"349 678 CURVE SMOOTH",
"512 678 OFFCURVE",
"589 539 OFFCURVE",
"589 350 CURVE SMOOTH",
"589 160 OFFCURVE",
"512 22 OFFCURVE",
"349 22 CURVE SMOOTH"
);
},
{
closed = 1;
nodes = (
"687 567 OFFCURVE",
"714 626 OFFCURVE",
"714 669 CURVE SMOOTH",
"714 701 OFFCURVE",
"704 734 OFFCURVE",
"659 734 CURVE SMOOTH",
"626 734 OFFCURVE",
"612 712 OFFCURVE",
"612 689 CURVE SMOOTH",
"612 662 OFFCURVE",
"629 647 OFFCURVE",
"653 647 CURVE SMOOTH",
"659 647 OFFCURVE",
"667 648 OFFCURVE",
"673 652 CURVE",
"669 606 OFFCURVE",
"632 566 OFFCURVE",
"603 545 CURVE",
"620 522 LINE"
);
}
);
width = 713;
}
);
leftKerningGroup = O;
note = Ohorndotbelow;
rightKerningGroup = O;
unicode = 1EE2;
},
{
glyphname = Ohorngrave;
lastChange = "2015-11-28 05:20:20 +0000";
layers = (
{
layerId = "55230DDF-46DB-445B-B73A-3B2EF2AFB87A";
name = Light;
paths = (
{
closed = 1;
nodes = (
"551 -10 OFFCURVE",
"660 127 OFFCURVE",
"660 350 CURVE SMOOTH",
"660 572 OFFCURVE",
"551 710 OFFCURVE",
"349 710 CURVE SMOOTH",
"146 710 OFFCURVE",
"38 572 OFFCURVE",
"38 350 CURVE SMOOTH",
"38 127 OFFCURVE",
"146 -10 OFFCURVE",
"349 -10 CURVE SMOOTH"
);
},
{
closed = 1;
nodes = (
"185 22 OFFCURVE",
"109 160 OFFCURVE",
"109 350 CURVE SMOOTH",
"109 539 OFFCURVE",
"185 678 OFFCURVE",
"349 678 CURVE SMOOTH",
"512 678 OFFCURVE",
"589 539 OFFCURVE",
"589 350 CURVE SMOOTH",
"589 160 OFFCURVE",
"512 22 OFFCURVE",
"349 22 CURVE SMOOTH"
);
},
{
closed = 1;
nodes = (
"435 804 LINE",
"322 904 LINE",
"314 913 OFFCURVE",
"301 923 OFFCURVE",
"284 923 CURVE SMOOTH",
"268 923 OFFCURVE",
"258 912 OFFCURVE",
"258 900 CURVE SMOOTH",
"258 887 OFFCURVE",
"268 875 OFFCURVE",
"286 864 CURVE SMOOTH",
"422 785 LINE"
);
},
{
closed = 1;
nodes = (
"687 567 OFFCURVE",
"714 626 OFFCURVE",
"714 669 CURVE SMOOTH",
"714 701 OFFCURVE",
"704 734 OFFCURVE",
"659 734 CURVE SMOOTH",
"626 734 OFFCURVE",
"612 712 OFFCURVE",
"612 689 CURVE SMOOTH",
"612 662 OFFCURVE",
"629 647 OFFCURVE",
"653 647 CURVE SMOOTH",
"659 647 OFFCURVE",
"667 648 OFFCURVE",
"673 652 CURVE",
"669 606 OFFCURVE",
"632 566 OFFCURVE",
"603 545 CURVE",
"620 522 LINE"
);
}
);
width = 713;
}
);
leftKerningGroup = O;
note = Ohorngrave;
rightKerningGroup = O;
unicode = 1EDC;
},
{
glyphname = Ohornhookabove;
lastChange = "2015-11-28 05:20:21 +0000";
layers = (
{
layerId = "55230DDF-46DB-445B-B73A-3B2EF2AFB87A";
name = Light;
paths = (
{
closed = 1;
nodes = (
"551 -10 OFFCURVE",
"660 127 OFFCURVE",
"660 350 CURVE SMOOTH",
"660 572 OFFCURVE",
"551 710 OFFCURVE",
"349 710 CURVE SMOOTH",
"146 710 OFFCURVE",
"38 572 OFFCURVE",
"38 350 CURVE SMOOTH",
"38 127 OFFCURVE",
"146 -10 OFFCURVE",
"349 -10 CURVE SMOOTH"
);
},
{
closed = 1;
nodes = (
"185 22 OFFCURVE",
"109 160 OFFCURVE",
"109 350 CURVE SMOOTH",
"109 539 OFFCURVE",
"185 678 OFFCURVE",
"349 678 CURVE SMOOTH",
"512 678 OFFCURVE",
"589 539 OFFCURVE",
"589 350 CURVE SMOOTH",
"589 160 OFFCURVE",
"512 22 OFFCURVE",
"349 22 CURVE SMOOTH"
);
},
{
closed = 1;
nodes = (
"360 778 LINE",
"371 840 LINE",
"422 845 OFFCURVE",
"451 870 OFFCURVE",
"451 913 CURVE SMOOTH",
"451 965 OFFCURVE",
"407 988 OFFCURVE",
"360 988 CURVE SMOOTH",
"331 988 OFFCURVE",
"304 980 OFFCURVE",
"286 971 CURVE",
"293 944 LINE",
"313 955 OFFCURVE",
"334 960 OFFCURVE",
"350 960 CURVE SMOOTH",
"389 960 OFFCURVE",
"408 940 OFFCURVE",
"408 915 CURVE SMOOTH",
"408 886 OFFCURVE",
"388 863 OFFCURVE",
"344 863 CURVE SMOOTH",
"324 863 LINE",
"329 778 LINE"
);
},
{
closed = 1;
nodes = (
"687 567 OFFCURVE",
"714 626 OFFCURVE",
"714 669 CURVE SMOOTH",
"714 701 OFFCURVE",
"704 734 OFFCURVE",
"659 734 CURVE SMOOTH",
"626 734 OFFCURVE",
"612 712 OFFCURVE",
"612 689 CURVE SMOOTH",
"612 662 OFFCURVE",
"629 647 OFFCURVE",
"653 647 CURVE SMOOTH",
"659 647 OFFCURVE",
"667 648 OFFCURVE",
"673 652 CURVE",
"669 606 OFFCURVE",
"632 566 OFFCURVE",
"603 545 CURVE",
"620 522 LINE"
);
}
);
width = 713;
}
);
leftKerningGroup = O;
note = Ohornhookabove;
rightKerningGroup = O;
unicode = 1EDE;
},
{
glyphname = Ohorntilde;
lastChange = "2015-11-28 05:20:19 +0000";
layers = (
{
layerId = "55230DDF-46DB-445B-B73A-3B2EF2AFB87A";
name = Light;
paths = (
{
closed = 1;
nodes = (
"551 -10 OFFCURVE",
"660 127 OFFCURVE",
"660 350 CURVE SMOOTH",
"660 572 OFFCURVE",
"551 710 OFFCURVE",
"349 710 CURVE SMOOTH",
"146 710 OFFCURVE",
"38 572 OFFCURVE",
"38 350 CURVE SMOOTH",
"38 127 OFFCURVE",
"146 -10 OFFCURVE",
"349 -10 CURVE SMOOTH"
);
},
{
closed = 1;
nodes = (
"185 22 OFFCURVE",
"109 160 OFFCURVE",
"109 350 CURVE SMOOTH",
"109 539 OFFCURVE",
"185 678 OFFCURVE",
"349 678 CURVE SMOOTH",
"512 678 OFFCURVE",
"589 539 OFFCURVE",
"589 350 CURVE SMOOTH",
"589 160 OFFCURVE",
"512 22 OFFCURVE",
"349 22 CURVE SMOOTH"
);
},
{
closed = 1;
nodes = (
"215 786 LINE",
"223 822 OFFCURVE",
"246 845 OFFCURVE",
"277 845 CURVE SMOOTH",
"318 845 OFFCURVE",
"371 787 OFFCURVE",
"418 787 CURVE SMOOTH",
"471 787 OFFCURVE",
"500 826 OFFCURVE",
"509 887 CURVE",
"484 887 LINE",
"474 845 OFFCURVE",
"451 825 OFFCURVE",
"420 825 CURVE SMOOTH",
"379 825 OFFCURVE",
"332 881 OFFCURVE",
"279 881 CURVE SMOOTH",
"232 881 OFFCURVE",
"198 852 OFFCURVE",
"189 786 CURVE"
);
},
{
closed = 1;
nodes = (
"687 567 OFFCURVE",
"714 626 OFFCURVE",
"714 669 CURVE SMOOTH",
"714 701 OFFCURVE",
"704 734 OFFCURVE",
"659 734 CURVE SMOOTH",
"626 734 OFFCURVE",
"612 712 OFFCURVE",
"612 689 CURVE SMOOTH",
"612 662 OFFCURVE",
"629 647 OFFCURVE",
"653 647 CURVE SMOOTH",
"659 647 OFFCURVE",
"667 648 OFFCURVE",
"673 652 CURVE",
"669 606 OFFCURVE",
"632 566 OFFCURVE",
"603 545 CURVE",
"620 522 LINE"
);
}
);
width = 713;
}
);
leftKerningGroup = O;
note = Ohorntilde;
rightKerningGroup = O;
unicode = 1EE0;
},
{
glyphname = Ohungarumlaut;
lastChange = "2015-11-28 05:20:21 +0000";
layers = (
{
layerId = "55230DDF-46DB-445B-B73A-3B2EF2AFB87A";
name = Light;
paths = (
{
closed = 1;
nodes = (
"551 -10 OFFCURVE",
"660 127 OFFCURVE",
"660 350 CURVE SMOOTH",
"660 572 OFFCURVE",
"551 710 OFFCURVE",
"349 710 CURVE SMOOTH",
"146 710 OFFCURVE",
"38 572 OFFCURVE",
"38 350 CURVE SMOOTH",
"38 127 OFFCURVE",
"146 -10 OFFCURVE",
"349 -10 CURVE SMOOTH"
);
},
{
closed = 1;
nodes = (
"185 22 OFFCURVE",
"109 160 OFFCURVE",
"109 350 CURVE SMOOTH",
"109 539 OFFCURVE",
"185 678 OFFCURVE",
"349 678 CURVE SMOOTH",
"512 678 OFFCURVE",
"589 539 OFFCURVE",
"589 350 CURVE SMOOTH",
"589 160 OFFCURVE",
"512 22 OFFCURVE",
"349 22 CURVE SMOOTH"
);
},
{
closed = 1;
nodes = (
"362 865 LINE SMOOTH",
"380 875 OFFCURVE",
"390 887 OFFCURVE",
"390 901 CURVE SMOOTH",
"390 913 OFFCURVE",
"380 924 OFFCURVE",
"364 924 CURVE SMOOTH",
"346 924 OFFCURVE",
"332 911 OFFCURVE",
"325 904 CURVE",
"213 804 LINE",
"226 786 LINE"
);
},
{
closed = 1;
nodes = (
"553 865 LINE SMOOTH",
"571 875 OFFCURVE",
"580 887 OFFCURVE",
"580 901 CURVE SMOOTH",
"580 913 OFFCURVE",
"571 924 OFFCURVE",
"554 924 CURVE SMOOTH",
"537 924 OFFCURVE",
"522 911 OFFCURVE",
"516 904 CURVE",
"404 804 LINE",
"417 786 LINE"
);
}
);
width = 698;
}
);
leftKerningGroup = O;
note = Ohungarumlaut;
rightKerningGroup = O;
unicode = 0150;
},
{
glyphname = Omacron;
lastChange = "2015-11-28 05:20:21 +0000";
layers = (
{
layerId = "55230DDF-46DB-445B-B73A-3B2EF2AFB87A";
name = Light;
paths = (
{
closed = 1;
nodes = (
"551 -10 OFFCURVE",
"660 127 OFFCURVE",
"660 350 CURVE SMOOTH",
"660 572 OFFCURVE",
"551 710 OFFCURVE",
"349 710 CURVE SMOOTH",
"146 710 OFFCURVE",
"38 572 OFFCURVE",
"38 350 CURVE SMOOTH",
"38 127 OFFCURVE",
"146 -10 OFFCURVE",
"349 -10 CURVE SMOOTH"
);
},
{
closed = 1;
nodes = (
"185 22 OFFCURVE",
"109 160 OFFCURVE",
"109 350 CURVE SMOOTH",
"109 539 OFFCURVE",
"185 678 OFFCURVE",
"349 678 CURVE SMOOTH",
"512 678 OFFCURVE",
"589 539 OFFCURVE",
"589 350 CURVE SMOOTH",
"589 160 OFFCURVE",
"512 22 OFFCURVE",
"349 22 CURVE SMOOTH"
);
},
{
closed = 1;
nodes = (
"505 800 LINE",
"505 831 LINE",
"191 831 LINE",
"191 800 LINE"
);
}
);
width = 698;
}
);
leftKerningGroup = O;
note = Omacron;
rightKerningGroup = O;
unicode = 014C;
},
{
glyphname = Oslash;
lastChange = "2015-11-28 05:20:19 +0000";
layers = (
{
layerId = "55230DDF-46DB-445B-B73A-3B2EF2AFB87A";
name = Light;
paths = (
{
closed = 1;
nodes = (
"551 -10 OFFCURVE",
"660 127 OFFCURVE",
"660 350 CURVE SMOOTH",
"660 572 OFFCURVE",
"551 710 OFFCURVE",
"349 710 CURVE SMOOTH",
"146 710 OFFCURVE",
"38 572 OFFCURVE",
"38 350 CURVE SMOOTH",
"38 127 OFFCURVE",
"146 -10 OFFCURVE",
"349 -10 CURVE SMOOTH"
);
},
{
closed = 1;
nodes = (
"595 700 LINE",
"567 719 LINE",
"86 -9 LINE",
"113 -28 LINE"
);
},
{
closed = 1;
nodes = (
"185 22 OFFCURVE",
"109 160 OFFCURVE",
"109 350 CURVE SMOOTH",
"109 539 OFFCURVE",
"185 678 OFFCURVE",
"349 678 CURVE SMOOTH",
"512 678 OFFCURVE",
"589 539 OFFCURVE",
"589 350 CURVE SMOOTH",
"589 160 OFFCURVE",
"512 22 OFFCURVE",
"349 22 CURVE SMOOTH"
);
}
);
width = 698;
}
);
leftKerningGroup = O;
note = Oslash;
rightKerningGroup = O;
unicode = 00D8;
},
{
glyphname = Oslashacute;
lastChange = "2015-11-28 05:20:21 +0000";
layers = (
{
layerId = "55230DDF-46DB-445B-B73A-3B2EF2AFB87A";
name = Light;
paths = (
{
closed = 1;
nodes = (
"551 -10 OFFCURVE",
"660 127 OFFCURVE",
"660 350 CURVE SMOOTH",
"660 572 OFFCURVE",
"551 710 OFFCURVE",
"349 710 CURVE SMOOTH",
"146 710 OFFCURVE",
"38 572 OFFCURVE",
"38 350 CURVE SMOOTH",
"38 127 OFFCURVE",
"146 -10 OFFCURVE",
"349 -10 CURVE SMOOTH"
);
},
{
closed = 1;
nodes = (
"595 700 LINE",
"567 719 LINE",
"86 -9 LINE",
"113 -28 LINE"
);
},
{
closed = 1;
nodes = (
"185 22 OFFCURVE",
"109 160 OFFCURVE",
"109 350 CURVE SMOOTH",
"109 539 OFFCURVE",
"185 678 OFFCURVE",
"349 678 CURVE SMOOTH",
"512 678 OFFCURVE",
"589 539 OFFCURVE",
"589 350 CURVE SMOOTH",
"589 160 OFFCURVE",
"512 22 OFFCURVE",
"349 22 CURVE SMOOTH"
);
},
{
closed = 1;
nodes = (
"425 865 LINE SMOOTH",
"443 876 OFFCURVE",
"452 888 OFFCURVE",
"452 901 CURVE SMOOTH",
"452 913 OFFCURVE",
"443 924 OFFCURVE",
"427 924 CURVE SMOOTH",
"409 924 OFFCURVE",
"395 912 OFFCURVE",
"388 905 CURVE",
"276 805 LINE",
"289 786 LINE"
);
}
);
width = 698;
}
);
leftKerningGroup = O;
note = Oslashacute;
rightKerningGroup = O;
unicode = 01FE;
},
{
glyphname = Otilde;
lastChange = "2015-11-28 05:20:20 +0000";
layers = (
{
layerId = "55230DDF-46DB-445B-B73A-3B2EF2AFB87A";
name = Light;
paths = (
{
closed = 1;
nodes = (
"551 -10 OFFCURVE",
"660 127 OFFCURVE",
"660 350 CURVE SMOOTH",
"660 572 OFFCURVE",
"551 710 OFFCURVE",
"349 710 CURVE SMOOTH",
"146 710 OFFCURVE",
"38 572 OFFCURVE",
"38 350 CURVE SMOOTH",
"38 127 OFFCURVE",
"146 -10 OFFCURVE",
"349 -10 CURVE SMOOTH"
);
},
{
closed = 1;
nodes = (
"185 22 OFFCURVE",
"109 160 OFFCURVE",
"109 350 CURVE SMOOTH",
"109 539 OFFCURVE",
"185 678 OFFCURVE",
"349 678 CURVE SMOOTH",
"512 678 OFFCURVE",
"589 539 OFFCURVE",
"589 350 CURVE SMOOTH",
"589 160 OFFCURVE",
"512 22 OFFCURVE",
"349 22 CURVE SMOOTH"
);
},
{
closed = 1;
nodes = (
"214 786 LINE",
"222 822 OFFCURVE",
"245 845 OFFCURVE",
"276 845 CURVE SMOOTH",
"317 845 OFFCURVE",
"370 787 OFFCURVE",
"417 787 CURVE SMOOTH",
"470 787 OFFCURVE",
"499 826 OFFCURVE",
"508 887 CURVE",
"483 887 LINE",
"473 845 OFFCURVE",
"450 825 OFFCURVE",
"419 825 CURVE SMOOTH",
"378 825 OFFCURVE",
"331 881 OFFCURVE",
"278 881 CURVE SMOOTH",
"231 881 OFFCURVE",
"197 852 OFFCURVE",
"188 786 CURVE"
);
}
);
width = 698;
}
);
leftKerningGroup = O;
note = Otilde;
rightKerningGroup = O;
unicode = 00D5;
},
{
glyphname = OE;
lastChange = "2015-11-28 05:20:20 +0000";
layers = (
{
layerId = "55230DDF-46DB-445B-B73A-3B2EF2AFB87A";
name = Light;
paths = (
{
closed = 1;
nodes = (
"409 -10 OFFCURVE",
"463 6 OFFCURVE",
"507 41 CURVE",
"507 0 LINE",
"915 0 LINE",
"928 134 LINE",
"911 134 LINE",
"900 115 OFFCURVE",
"880 58 OFFCURVE",
"877 31 CURVE",
"578 31 LINE",
"578 344 LINE",
"799 344 LINE",
"801 326 OFFCURVE",
"807 286 OFFCURVE",
"816 262 CURVE",
"830 262 LINE",
"830 457 LINE",
"816 457 LINE",
"807 434 OFFCURVE",
"801 393 OFFCURVE",
"799 375 CURVE",
"578 375 LINE",
"578 668 LINE",
"875 668 LINE",
"877 643 OFFCURVE",
"888 584 OFFCURVE",
"898 565 CURVE",
"916 565 LINE",
"916 700 LINE",
"507 700 LINE",
"507 656 LINE",
"465 691 OFFCURVE",
"409 710 OFFCURVE",
"340 710 CURVE SMOOTH",
"137 710 OFFCURVE",
"38 559 OFFCURVE",
"38 350 CURVE SMOOTH",
"38 140 OFFCURVE",
"137 -10 OFFCURVE",
"340 -10 CURVE SMOOTH"
);
},
{
closed = 1;
nodes = (
"187 22 OFFCURVE",
"110 160 OFFCURVE",
"110 350 CURVE SMOOTH",
"110 539 OFFCURVE",
"187 678 OFFCURVE",
"349 678 CURVE SMOOTH",
"416 678 OFFCURVE",
"471 649 OFFCURVE",
"507 608 CURVE",
"507 90 LINE",
"469 48 OFFCURVE",
"416 22 OFFCURVE",
"349 22 CURVE SMOOTH"
);
}
);
width = 979;
}
);
leftKerningGroup = O;
note = OE;
rightKerningGroup = E;
unicode = 0152;
},
{
glyphname = P;
lastChange = "2015-11-28 05:20:22 +0000";
layers = (
{
layerId = "55230DDF-46DB-445B-B73A-3B2EF2AFB87A";
name = Light;
paths = (
{
closed = 1;
nodes = (
"275 0 LINE",
"275 9 LINE",
"250 17 OFFCURVE",
"220 23 OFFCURVE",
"193 27 CURVE",
"193 279 LINE",
"351 279 LINE SMOOTH",
"499 279 OFFCURVE",
"563 370 OFFCURVE",
"563 492 CURVE SMOOTH",
"563 618 OFFCURVE",
"502 700 OFFCURVE",
"334 700 CURVE SMOOTH",
"43 700 LINE",
"43 690 LINE",
"68 682 OFFCURVE",
"95 676 OFFCURVE",
"122 672 CURVE",
"122 27 LINE",
"100 25 OFFCURVE",
"66 18 OFFCURVE",
"41 10 CURVE",
"41 0 LINE"
);
},
{
closed = 1;
nodes = (
"193 668 LINE",
"338 668 LINE SMOOTH",
"447 668 OFFCURVE",
"493 596 OFFCURVE",
"493 492 CURVE SMOOTH",
"493 390 OFFCURVE",
"448 310 OFFCURVE",
"338 310 CURVE SMOOTH",
"193 310 LINE"
);
}
);
width = 597;
}
);
note = P;
unicode = 0050;
},
{
glyphname = Thorn;
lastChange = "2015-11-28 05:20:21 +0000";
layers = (
{
layerId = "55230DDF-46DB-445B-B73A-3B2EF2AFB87A";
name = Light;
paths = (
{
closed = 1;
nodes = (
"275 0 LINE",
"275 9 LINE",
"250 17 OFFCURVE",
"221 23 OFFCURVE",
"194 27 CURVE",
"194 137 LINE",
"352 137 LINE SMOOTH",
"500 137 OFFCURVE",
"564 229 OFFCURVE",
"564 350 CURVE SMOOTH",
"564 470 OFFCURVE",
"506 558 OFFCURVE",
"351 558 CURVE SMOOTH",
"194 558 LINE",
"194 700 LINE",
"43 700 LINE",
"43 690 LINE",
"69 682 OFFCURVE",
"95 676 OFFCURVE",
"123 672 CURVE",
"123 27 LINE",
"101 25 OFFCURVE",
"67 18 OFFCURVE",
"41 10 CURVE",
"41 0 LINE"
);
},
{
closed = 1;
nodes = (
"194 527 LINE",
"331 527 LINE SMOOTH",
"446 527 OFFCURVE",
"493 459 OFFCURVE",
"493 351 CURVE SMOOTH",
"493 248 OFFCURVE",
"449 168 OFFCURVE",
"338 168 CURVE SMOOTH",
"194 168 LINE"
);
}
);
width = 595;
}
);
note = Thorn;
unicode = 00DE;
},
{
glyphname = Q;
lastChange = "2015-11-28 05:20:19 +0000";
layers = (
{
layerId = "55230DDF-46DB-445B-B73A-3B2EF2AFB87A";
name = Light;
paths = (
{
closed = 1;
nodes = (
"551 -10 OFFCURVE",
"660 127 OFFCURVE",
"660 350 CURVE SMOOTH",
"660 572 OFFCURVE",
"551 710 OFFCURVE",
"349 710 CURVE SMOOTH",
"146 710 OFFCURVE",
"38 572 OFFCURVE",
"38 350 CURVE SMOOTH",
"38 127 OFFCURVE",
"146 -10 OFFCURVE",
"349 -10 CURVE SMOOTH"
);
},
{
closed = 1;
nodes = (
"575 -132 LINE",
"472 -123 OFFCURVE",
"409 -71 OFFCURVE",
"401 5 CURVE",
"332 5 LINE",
"344 -86 OFFCURVE",
"424 -147 OFFCURVE",
"575 -159 CURVE"
);
},
{
closed = 1;
nodes = (
"187 22 OFFCURVE",
"109 160 OFFCURVE",
"109 350 CURVE SMOOTH",
"109 539 OFFCURVE",
"187 678 OFFCURVE",
"349 678 CURVE SMOOTH",
"511 678 OFFCURVE",
"589 539 OFFCURVE",
"589 350 CURVE SMOOTH",
"589 160 OFFCURVE",
"511 22 OFFCURVE",
"349 22 CURVE SMOOTH"
);
}
);
width = 698;
}
);
leftKerningGroup = O;
note = Q;
rightKerningGroup = O;
unicode = 0051;
},
{
glyphname = R;
lastChange = "2015-11-28 05:20:19 +0000";
layers = (
{
layerId = "55230DDF-46DB-445B-B73A-3B2EF2AFB87A";
name = Light;
paths = (
{
closed = 1;
nodes = (
"277 0 LINE",
"277 9 LINE",
"252 17 OFFCURVE",
"223 23 OFFCURVE",
"196 27 CURVE",
"196 301 LINE",
"357 301 LINE SMOOTH",
"500 301 OFFCURVE",
"568 378 OFFCURVE",
"568 502 CURVE SMOOTH",
"568 621 OFFCURVE",
"512 700 OFFCURVE",
"357 700 CURVE SMOOTH",
"45 700 LINE",
"45 690 LINE",
"71 682 OFFCURVE",
"97 676 OFFCURVE",
"125 672 CURVE",
"125 27 LINE",
"103 25 OFFCURVE",
"68 18 OFFCURVE",
"43 10 CURVE",
"43 0 LINE"
);
},
{
closed = 1;
nodes = (
"623 0 LINE",
"623 10 LINE",
"605 18 OFFCURVE",
"573 23 OFFCURVE",
"551 27 CURVE",
"390 309 LINE",
"324 309 LINE",
"496 0 LINE"
);
},
{
closed = 1;
nodes = (
"196 668 LINE",
"340 668 LINE SMOOTH",
"451 668 OFFCURVE",
"498 606 OFFCURVE",
"498 502 CURVE SMOOTH",
"498 400 OFFCURVE",
"452 332 OFFCURVE",
"340 332 CURVE SMOOTH",
"196 332 LINE"
);
}
);
width = 651;
}
);
note = R;
rightKerningGroup = R;
unicode = 0052;
},
{
glyphname = Racute;
lastChange = "2015-11-28 05:20:19 +0000";
layers = (
{
layerId = "55230DDF-46DB-445B-B73A-3B2EF2AFB87A";
name = Light;
paths = (
{
closed = 1;
nodes = (
"277 0 LINE",
"277 9 LINE",
"252 17 OFFCURVE",
"223 23 OFFCURVE",
"196 27 CURVE",
"196 301 LINE",
"357 301 LINE SMOOTH",
"500 301 OFFCURVE",
"568 378 OFFCURVE",
"568 502 CURVE SMOOTH",
"568 621 OFFCURVE",
"512 700 OFFCURVE",
"357 700 CURVE SMOOTH",
"45 700 LINE",
"45 690 LINE",
"71 682 OFFCURVE",
"97 676 OFFCURVE",
"125 672 CURVE",
"125 27 LINE",
"103 25 OFFCURVE",
"68 18 OFFCURVE",
"43 10 CURVE",
"43 0 LINE"
);
},
{
closed = 1;
nodes = (
"623 0 LINE",
"623 10 LINE",
"605 18 OFFCURVE",
"573 23 OFFCURVE",
"551 27 CURVE",
"390 309 LINE",
"324 309 LINE",
"496 0 LINE"
);
},
{
closed = 1;
nodes = (
"196 668 LINE",
"340 668 LINE SMOOTH",
"451 668 OFFCURVE",
"498 606 OFFCURVE",
"498 502 CURVE SMOOTH",
"498 400 OFFCURVE",
"452 332 OFFCURVE",
"340 332 CURVE SMOOTH",
"196 332 LINE"
);
},
{
closed = 1;
nodes = (
"386 865 LINE SMOOTH",
"404 876 OFFCURVE",
"413 888 OFFCURVE",
"413 901 CURVE SMOOTH",
"413 913 OFFCURVE",
"404 924 OFFCURVE",
"388 924 CURVE SMOOTH",
"370 924 OFFCURVE",
"356 912 OFFCURVE",
"349 905 CURVE",
"237 805 LINE",
"250 786 LINE"
);
}
);
width = 651;
}
);
note = Racute;
rightKerningGroup = R;
unicode = 0154;
},
{
glyphname = Rcaron;
lastChange = "2015-11-28 05:20:19 +0000";
layers = (
{
layerId = "55230DDF-46DB-445B-B73A-3B2EF2AFB87A";
name = Light;
paths = (
{
closed = 1;
nodes = (
"277 0 LINE",
"277 9 LINE",
"252 17 OFFCURVE",
"223 23 OFFCURVE",
"196 27 CURVE",
"196 301 LINE",
"357 301 LINE SMOOTH",
"500 301 OFFCURVE",
"568 378 OFFCURVE",
"568 502 CURVE SMOOTH",
"568 621 OFFCURVE",
"512 700 OFFCURVE",
"357 700 CURVE SMOOTH",
"45 700 LINE",
"45 690 LINE",
"71 682 OFFCURVE",
"97 676 OFFCURVE",
"125 672 CURVE",
"125 27 LINE",
"103 25 OFFCURVE",
"68 18 OFFCURVE",
"43 10 CURVE",
"43 0 LINE"
);
},
{
closed = 1;
nodes = (
"623 0 LINE",
"623 10 LINE",
"605 18 OFFCURVE",
"573 23 OFFCURVE",
"551 27 CURVE",
"390 309 LINE",
"324 309 LINE",
"496 0 LINE"
);
},
{
closed = 1;
nodes = (
"196 668 LINE",
"340 668 LINE SMOOTH",
"451 668 OFFCURVE",
"498 606 OFFCURVE",
"498 502 CURVE SMOOTH",
"498 400 OFFCURVE",
"452 332 OFFCURVE",
"340 332 CURVE SMOOTH",
"196 332 LINE"
);
},
{
closed = 1;
nodes = (
"338 786 LINE",
"369 829 OFFCURVE",
"422 876 OFFCURVE",
"461 903 CURVE",
"432 930 LINE",
"395 903 OFFCURVE",
"351 863 OFFCURVE",
"324 828 CURVE",
"319 828 LINE",
"292 863 OFFCURVE",
"248 903 OFFCURVE",
"211 930 CURVE",
"182 903 LINE",
"221 876 OFFCURVE",
"274 829 OFFCURVE",
"305 786 CURVE"
);
}
);
width = 651;
}
);
note = Rcaron;
rightKerningGroup = R;
unicode = 0158;
},
{
glyphname = Rcommaaccent;
lastChange = "2015-11-28 05:20:20 +0000";
layers = (
{
layerId = "55230DDF-46DB-445B-B73A-3B2EF2AFB87A";
name = Light;
paths = (
{
closed = 1;
nodes = (
"277 0 LINE",
"277 9 LINE",
"252 17 OFFCURVE",
"223 23 OFFCURVE",
"196 27 CURVE",
"196 301 LINE",
"357 301 LINE SMOOTH",
"500 301 OFFCURVE",
"568 378 OFFCURVE",
"568 502 CURVE SMOOTH",
"568 621 OFFCURVE",
"512 700 OFFCURVE",
"357 700 CURVE SMOOTH",
"45 700 LINE",
"45 690 LINE",
"71 682 OFFCURVE",
"97 676 OFFCURVE",
"125 672 CURVE",
"125 27 LINE",
"103 25 OFFCURVE",
"68 18 OFFCURVE",
"43 10 CURVE",
"43 0 LINE"
);
},
{
closed = 1;
nodes = (
"370 -244 OFFCURVE",
"395 -175 OFFCURVE",
"395 -127 CURVE SMOOTH",
"395 -91 OFFCURVE",
"379 -65 OFFCURVE",
"340 -65 CURVE SMOOTH",
"316 -65 OFFCURVE",
"294 -79 OFFCURVE",
"294 -108 CURVE SMOOTH",
"294 -133 OFFCURVE",
"313 -151 OFFCURVE",
"337 -151 CURVE SMOOTH",
"341 -151 OFFCURVE",
"345 -150 OFFCURVE",
"349 -149 CURVE",
"346 -189 OFFCURVE",
"330 -230 OFFCURVE",
"306 -259 CURVE",
"332 -280 LINE"
);
},
{
closed = 1;
nodes = (
"623 0 LINE",
"623 10 LINE",
"605 18 OFFCURVE",
"573 23 OFFCURVE",
"551 27 CURVE",
"390 309 LINE",
"324 309 LINE",
"496 0 LINE"
);
},
{
closed = 1;
nodes = (
"196 668 LINE",
"340 668 LINE SMOOTH",
"451 668 OFFCURVE",
"498 606 OFFCURVE",
"498 502 CURVE SMOOTH",
"498 400 OFFCURVE",
"452 332 OFFCURVE",
"340 332 CURVE SMOOTH",
"196 332 LINE"
);
}
);
width = 651;
}
);
note = Rcommaaccent;
rightKerningGroup = R;
unicode = 0156;
},
{
glyphname = Rdotbelow;
lastChange = "2015-11-28 05:20:20 +0000";
layers = (
{
layerId = "55230DDF-46DB-445B-B73A-3B2EF2AFB87A";
name = Light;
paths = (
{
closed = 1;
nodes = (
"277 0 LINE",
"277 9 LINE",
"252 17 OFFCURVE",
"223 23 OFFCURVE",
"196 27 CURVE",
"196 301 LINE",
"357 301 LINE SMOOTH",
"500 301 OFFCURVE",
"568 378 OFFCURVE",
"568 502 CURVE SMOOTH",
"568 621 OFFCURVE",
"512 700 OFFCURVE",
"357 700 CURVE SMOOTH",
"45 700 LINE",
"45 690 LINE",
"71 682 OFFCURVE",
"97 676 OFFCURVE",
"125 672 CURVE",
"125 27 LINE",
"103 25 OFFCURVE",
"68 18 OFFCURVE",
"43 10 CURVE",
"43 0 LINE"
);
},
{
closed = 1;
nodes = (
"362 -142 OFFCURVE",
"378 -126 OFFCURVE",
"378 -102 CURVE SMOOTH",
"378 -77 OFFCURVE",
"362 -61 OFFCURVE",
"339 -61 CURVE SMOOTH",
"316 -61 OFFCURVE",
"300 -77 OFFCURVE",
"300 -102 CURVE SMOOTH",
"300 -126 OFFCURVE",
"316 -142 OFFCURVE",
"339 -142 CURVE SMOOTH"
);
},
{
closed = 1;
nodes = (
"623 0 LINE",
"623 10 LINE",
"605 18 OFFCURVE",
"573 23 OFFCURVE",
"551 27 CURVE",
"390 309 LINE",
"324 309 LINE",
"496 0 LINE"
);
},
{
closed = 1;
nodes = (
"196 668 LINE",
"340 668 LINE SMOOTH",
"451 668 OFFCURVE",
"498 606 OFFCURVE",
"498 502 CURVE SMOOTH",
"498 400 OFFCURVE",
"452 332 OFFCURVE",
"340 332 CURVE SMOOTH",
"196 332 LINE"
);
}
);
width = 651;
}
);
note = Rdotbelow;
rightKerningGroup = R;
unicode = 1E5A;
},
{
glyphname = Rdotbelowmacron;
lastChange = "2015-11-28 05:20:21 +0000";
layers = (
{
layerId = "55230DDF-46DB-445B-B73A-3B2EF2AFB87A";
name = Light;
paths = (
{
closed = 1;
nodes = (
"277 0 LINE",
"277 9 LINE",
"252 17 OFFCURVE",
"223 23 OFFCURVE",
"196 27 CURVE",
"196 301 LINE",
"357 301 LINE SMOOTH",
"500 301 OFFCURVE",
"568 378 OFFCURVE",
"568 502 CURVE SMOOTH",
"568 621 OFFCURVE",
"512 700 OFFCURVE",
"357 700 CURVE SMOOTH",
"45 700 LINE",
"45 690 LINE",
"71 682 OFFCURVE",
"97 676 OFFCURVE",
"125 672 CURVE",
"125 27 LINE",
"103 25 OFFCURVE",
"68 18 OFFCURVE",
"43 10 CURVE",
"43 0 LINE"
);
},
{
closed = 1;
nodes = (
"363 -142 OFFCURVE",
"379 -126 OFFCURVE",
"379 -102 CURVE SMOOTH",
"379 -77 OFFCURVE",
"363 -61 OFFCURVE",
"339 -61 CURVE SMOOTH",
"316 -61 OFFCURVE",
"300 -77 OFFCURVE",
"300 -102 CURVE SMOOTH",
"300 -126 OFFCURVE",
"316 -142 OFFCURVE",
"339 -142 CURVE SMOOTH"
);
},
{
closed = 1;
nodes = (
"623 0 LINE",
"623 10 LINE",
"605 18 OFFCURVE",
"573 23 OFFCURVE",
"551 27 CURVE",
"390 309 LINE",
"324 309 LINE",
"496 0 LINE"
);
},
{
closed = 1;
nodes = (
"196 668 LINE",
"340 668 LINE SMOOTH",
"451 668 OFFCURVE",
"498 606 OFFCURVE",
"498 502 CURVE SMOOTH",
"498 400 OFFCURVE",
"452 332 OFFCURVE",
"340 332 CURVE SMOOTH",
"196 332 LINE"
);
},
{
closed = 1;
nodes = (
"455 785 LINE",
"455 816 LINE",
"127 816 LINE",
"127 785 LINE"
);
}
);
width = 651;
}
);
note = Rdotbelowmacron;
rightKerningGroup = R;
unicode = 1E5C;
},
{
glyphname = Rlinebelow;
lastChange = "2015-11-28 05:20:20 +0000";
layers = (
{
layerId = "55230DDF-46DB-445B-B73A-3B2EF2AFB87A";
name = Light;
paths = (
{
closed = 1;
nodes = (
"277 0 LINE",
"277 9 LINE",
"252 17 OFFCURVE",
"223 23 OFFCURVE",
"196 27 CURVE",
"196 301 LINE",
"357 301 LINE SMOOTH",
"500 301 OFFCURVE",
"568 378 OFFCURVE",
"568 502 CURVE SMOOTH",
"568 621 OFFCURVE",
"512 700 OFFCURVE",
"357 700 CURVE SMOOTH",
"45 700 LINE",
"45 690 LINE",
"71 682 OFFCURVE",
"97 676 OFFCURVE",
"125 672 CURVE",
"125 27 LINE",
"103 25 OFFCURVE",
"68 18 OFFCURVE",
"43 10 CURVE",
"43 0 LINE"
);
},
{
closed = 1;
nodes = (
"485 -102 LINE",
"485 -71 LINE",
"171 -71 LINE",
"171 -102 LINE"
);
},
{
closed = 1;
nodes = (
"623 0 LINE",
"623 10 LINE",
"605 18 OFFCURVE",
"573 23 OFFCURVE",
"551 27 CURVE",
"390 309 LINE",
"324 309 LINE",
"496 0 LINE"
);
},
{
closed = 1;
nodes = (
"196 668 LINE",
"340 668 LINE SMOOTH",
"451 668 OFFCURVE",
"498 606 OFFCURVE",
"498 502 CURVE SMOOTH",
"498 400 OFFCURVE",
"452 332 OFFCURVE",
"340 332 CURVE SMOOTH",
"196 332 LINE"
);
}
);
width = 651;
}
);
note = Rlinebelow;
rightKerningGroup = R;
unicode = 1E5E;
},
{
glyphname = S;
lastChange = "2015-11-28 05:20:16 +0000";
layers = (
{
layerId = "55230DDF-46DB-445B-B73A-3B2EF2AFB87A";
name = Light;
paths = (
{
closed = 1;
nodes = (
"393 -10 OFFCURVE",
"492 63 OFFCURVE",
"492 180 CURVE",
"491 422 OFFCURVE",
"119 391 OFFCURVE",
"119 557 CURVE SMOOTH",
"119 632 OFFCURVE",
"173 678 OFFCURVE",
"289 678 CURVE SMOOTH",
"346 678 OFFCURVE",
"392 661 OFFCURVE",
"422 632 CURVE",
"425 601 OFFCURVE",
"431 551 OFFCURVE",
"440 528 CURVE",
"458 528 LINE",
"467 639 LINE",
"423 686 OFFCURVE",
"359 710 OFFCURVE",
"270 710 CURVE SMOOTH",
"137 710 OFFCURVE",
"47 657 OFFCURVE",
"47 548 CURVE SMOOTH",
"47 331 OFFCURVE",
"420 375 OFFCURVE",
"420 169 CURVE SMOOTH",
"420 73 OFFCURVE",
"334 22 OFFCURVE",
"244 22 CURVE SMOOTH",
"167 22 OFFCURVE",
"111 53 OFFCURVE",
"78 94 CURVE",
"76 124 OFFCURVE",
"70 190 OFFCURVE",
"61 214 CURVE",
"43 214 LINE",
"34 81 LINE",
"75 31 OFFCURVE",
"155 -10 OFFCURVE",
"261 -10 CURVE SMOOTH"
);
}
);
width = 527;
}
);
leftKerningGroup = S;
note = S;
rightKerningGroup = S;
unicode = 0053;
},
{
glyphname = Sacute;
lastChange = "2015-11-28 05:20:21 +0000";
layers = (
{
layerId = "55230DDF-46DB-445B-B73A-3B2EF2AFB87A";
name = Light;
paths = (
{
closed = 1;
nodes = (
"393 -10 OFFCURVE",
"492 63 OFFCURVE",
"492 180 CURVE",
"491 422 OFFCURVE",
"119 391 OFFCURVE",
"119 557 CURVE SMOOTH",
"119 632 OFFCURVE",
"173 678 OFFCURVE",
"289 678 CURVE SMOOTH",
"346 678 OFFCURVE",
"392 661 OFFCURVE",
"422 632 CURVE",
"425 601 OFFCURVE",
"431 551 OFFCURVE",
"440 528 CURVE",
"458 528 LINE",
"467 639 LINE",
"423 686 OFFCURVE",
"359 710 OFFCURVE",
"270 710 CURVE SMOOTH",
"137 710 OFFCURVE",
"47 657 OFFCURVE",
"47 548 CURVE SMOOTH",
"47 331 OFFCURVE",
"420 375 OFFCURVE",
"420 169 CURVE SMOOTH",
"420 73 OFFCURVE",
"334 22 OFFCURVE",
"244 22 CURVE SMOOTH",
"167 22 OFFCURVE",
"111 53 OFFCURVE",
"78 94 CURVE",
"76 124 OFFCURVE",
"70 190 OFFCURVE",
"61 214 CURVE",
"43 214 LINE",
"34 81 LINE",
"75 31 OFFCURVE",
"155 -10 OFFCURVE",
"261 -10 CURVE SMOOTH"
);
},
{
closed = 1;
nodes = (
"349 865 LINE SMOOTH",
"367 876 OFFCURVE",
"376 888 OFFCURVE",
"376 901 CURVE SMOOTH",
"376 913 OFFCURVE",
"367 924 OFFCURVE",
"351 924 CURVE SMOOTH",
"333 924 OFFCURVE",
"319 912 OFFCURVE",
"312 905 CURVE",
"200 805 LINE",
"213 786 LINE"
);
}
);
width = 527;
}
);
leftKerningGroup = S;
note = Sacute;
rightKerningGroup = S;
unicode = 015A;
},
{
glyphname = Scaron;
lastChange = "2015-11-28 05:20:19 +0000";
layers = (
{
layerId = "55230DDF-46DB-445B-B73A-3B2EF2AFB87A";
name = Light;
paths = (
{
closed = 1;
nodes = (
"393 -10 OFFCURVE",
"492 63 OFFCURVE",
"492 180 CURVE",
"491 422 OFFCURVE",
"119 391 OFFCURVE",
"119 557 CURVE SMOOTH",
"119 632 OFFCURVE",
"173 678 OFFCURVE",
"289 678 CURVE SMOOTH",
"346 678 OFFCURVE",
"392 661 OFFCURVE",
"422 632 CURVE",
"425 601 OFFCURVE",
"431 551 OFFCURVE",
"440 528 CURVE",
"458 528 LINE",
"467 639 LINE",
"423 686 OFFCURVE",
"359 710 OFFCURVE",
"270 710 CURVE SMOOTH",
"137 710 OFFCURVE",
"47 657 OFFCURVE",
"47 548 CURVE SMOOTH",
"47 331 OFFCURVE",
"420 375 OFFCURVE",
"420 169 CURVE SMOOTH",
"420 73 OFFCURVE",
"334 22 OFFCURVE",
"244 22 CURVE SMOOTH",
"167 22 OFFCURVE",
"111 53 OFFCURVE",
"78 94 CURVE",
"76 124 OFFCURVE",
"70 190 OFFCURVE",
"61 214 CURVE",
"43 214 LINE",
"34 81 LINE",
"75 31 OFFCURVE",
"155 -10 OFFCURVE",
"261 -10 CURVE SMOOTH"
);
},
{
closed = 1;
nodes = (
"279 786 LINE",
"310 829 OFFCURVE",
"363 876 OFFCURVE",
"402 903 CURVE",
"373 930 LINE",
"336 903 OFFCURVE",
"292 863 OFFCURVE",
"265 828 CURVE",
"260 828 LINE",
"233 863 OFFCURVE",
"189 903 OFFCURVE",
"152 930 CURVE",
"123 903 LINE",
"162 876 OFFCURVE",
"215 829 OFFCURVE",
"246 786 CURVE"
);
}
);
width = 527;
}
);
leftKerningGroup = S;
note = Scaron;
rightKerningGroup = S;
unicode = 0160;
},
{
glyphname = Scedilla;
lastChange = "2015-11-28 05:20:19 +0000";
layers = (
{
layerId = "55230DDF-46DB-445B-B73A-3B2EF2AFB87A";
name = Light;
paths = (
{
closed = 1;
nodes = (
"393 -10 OFFCURVE",
"492 63 OFFCURVE",
"492 180 CURVE",
"491 422 OFFCURVE",
"119 391 OFFCURVE",
"119 557 CURVE SMOOTH",
"119 632 OFFCURVE",
"173 678 OFFCURVE",
"289 678 CURVE SMOOTH",
"346 678 OFFCURVE",
"392 661 OFFCURVE",
"422 632 CURVE",
"425 601 OFFCURVE",
"431 551 OFFCURVE",
"440 528 CURVE",
"458 528 LINE",
"467 639 LINE",
"423 686 OFFCURVE",
"359 710 OFFCURVE",
"270 710 CURVE SMOOTH",
"137 710 OFFCURVE",
"47 657 OFFCURVE",
"47 548 CURVE SMOOTH",
"47 331 OFFCURVE",
"420 375 OFFCURVE",
"420 169 CURVE SMOOTH",
"420 73 OFFCURVE",
"334 22 OFFCURVE",
"244 22 CURVE SMOOTH",
"167 22 OFFCURVE",
"111 53 OFFCURVE",
"78 94 CURVE",
"76 124 OFFCURVE",
"70 190 OFFCURVE",
"61 214 CURVE",
"43 214 LINE",
"34 81 LINE",
"75 31 OFFCURVE",
"155 -10 OFFCURVE",
"261 -10 CURVE SMOOTH"
);
},
{
closed = 1;
nodes = (
"307 -208 OFFCURVE",
"356 -182 OFFCURVE",
"356 -127 CURVE SMOOTH",
"356 -85 OFFCURVE",
"318 -66 OFFCURVE",
"263 -66 CURVE SMOOTH",
"254 -66 LINE",
"288 8 LINE",
"250 8 LINE",
"212 -68 LINE",
"233 -94 LINE",
"240 -93 OFFCURVE",
"249 -92 OFFCURVE",
"258 -92 CURVE SMOOTH",
"284 -92 OFFCURVE",
"314 -101 OFFCURVE",
"314 -127 CURVE SMOOTH",
"314 -163 OFFCURVE",
"284 -178 OFFCURVE",
"242 -178 CURVE SMOOTH",
"223 -178 OFFCURVE",
"202 -175 OFFCURVE",
"184 -169 CURVE",
"170 -194 LINE",
"192 -203 OFFCURVE",
"220 -208 OFFCURVE",
"244 -208 CURVE SMOOTH"
);
}
);
width = 527;
}
);
leftKerningGroup = S;
note = Scedilla;
rightKerningGroup = S;
unicode = 015E;
},
{
glyphname = Scircumflex;
lastChange = "2015-11-28 05:20:19 +0000";
layers = (
{
layerId = "55230DDF-46DB-445B-B73A-3B2EF2AFB87A";
name = Light;
paths = (
{
closed = 1;
nodes = (
"393 -10 OFFCURVE",
"492 63 OFFCURVE",
"492 180 CURVE",
"491 422 OFFCURVE",
"119 391 OFFCURVE",
"119 557 CURVE SMOOTH",
"119 632 OFFCURVE",
"173 678 OFFCURVE",
"289 678 CURVE SMOOTH",
"346 678 OFFCURVE",
"392 661 OFFCURVE",
"422 632 CURVE",
"425 601 OFFCURVE",
"431 551 OFFCURVE",
"440 528 CURVE",
"458 528 LINE",
"467 639 LINE",
"423 686 OFFCURVE",
"359 710 OFFCURVE",
"270 710 CURVE SMOOTH",
"137 710 OFFCURVE",
"47 657 OFFCURVE",
"47 548 CURVE SMOOTH",
"47 331 OFFCURVE",
"420 375 OFFCURVE",
"420 169 CURVE SMOOTH",
"420 73 OFFCURVE",
"334 22 OFFCURVE",
"244 22 CURVE SMOOTH",
"167 22 OFFCURVE",
"111 53 OFFCURVE",
"78 94 CURVE",
"76 124 OFFCURVE",
"70 190 OFFCURVE",
"61 214 CURVE",
"43 214 LINE",
"34 81 LINE",
"75 31 OFFCURVE",
"155 -10 OFFCURVE",
"261 -10 CURVE SMOOTH"
);
},
{
closed = 1;
nodes = (
"189 806 OFFCURVE",
"233 846 OFFCURVE",
"260 881 CURVE",
"265 881 LINE",
"292 846 OFFCURVE",
"336 806 OFFCURVE",
"373 779 CURVE",
"402 806 LINE",
"363 833 OFFCURVE",
"310 880 OFFCURVE",
"279 922 CURVE",
"246 922 LINE",
"215 880 OFFCURVE",
"162 833 OFFCURVE",
"123 806 CURVE",
"152 779 LINE"
);
}
);
width = 527;
}
);
leftKerningGroup = S;
note = Scircumflex;
rightKerningGroup = S;
unicode = 015C;
},
{
glyphname = Scommaaccent;
lastChange = "2015-11-28 05:20:20 +0000";
layers = (
{
layerId = "55230DDF-46DB-445B-B73A-3B2EF2AFB87A";
name = Light;
paths = (
{
closed = 1;
nodes = (
"393 -10 OFFCURVE",
"492 63 OFFCURVE",
"492 180 CURVE",
"491 422 OFFCURVE",
"119 391 OFFCURVE",
"119 557 CURVE SMOOTH",
"119 632 OFFCURVE",
"173 678 OFFCURVE",
"289 678 CURVE SMOOTH",
"346 678 OFFCURVE",
"392 661 OFFCURVE",
"422 632 CURVE",
"425 601 OFFCURVE",
"431 551 OFFCURVE",
"440 528 CURVE",
"458 528 LINE",
"467 639 LINE",
"423 686 OFFCURVE",
"359 710 OFFCURVE",
"270 710 CURVE SMOOTH",
"137 710 OFFCURVE",
"47 657 OFFCURVE",
"47 548 CURVE SMOOTH",
"47 331 OFFCURVE",
"420 375 OFFCURVE",
"420 169 CURVE SMOOTH",
"420 73 OFFCURVE",
"334 22 OFFCURVE",
"244 22 CURVE SMOOTH",
"167 22 OFFCURVE",
"111 53 OFFCURVE",
"78 94 CURVE",
"76 124 OFFCURVE",
"70 190 OFFCURVE",
"61 214 CURVE",
"43 214 LINE",
"34 81 LINE",
"75 31 OFFCURVE",
"155 -10 OFFCURVE",
"261 -10 CURVE SMOOTH"
);
},
{
closed = 1;
nodes = (
"289 -238 OFFCURVE",
"317 -168 OFFCURVE",
"317 -120 CURVE SMOOTH",
"317 -84 OFFCURVE",
"298 -55 OFFCURVE",
"259 -55 CURVE SMOOTH",
"233 -55 OFFCURVE",
"211 -74 OFFCURVE",
"211 -102 CURVE SMOOTH",
"211 -128 OFFCURVE",
"231 -146 OFFCURVE",
"254 -146 CURVE SMOOTH",
"258 -146 OFFCURVE",
"263 -146 OFFCURVE",
"268 -143 CURVE",
"265 -185 OFFCURVE",
"247 -224 OFFCURVE",
"223 -253 CURVE",
"251 -274 LINE"
);
}
);
width = 527;
}
);
leftKerningGroup = S;
note = Scommaaccent;
rightKerningGroup = S;
unicode = 0218;
},
{
glyphname = Sdotaccent;
lastChange = "2015-11-28 05:20:21 +0000";
layers = (
{
layerId = "55230DDF-46DB-445B-B73A-3B2EF2AFB87A";
name = Light;
paths = (
{
closed = 1;
nodes = (
"393 -10 OFFCURVE",
"492 63 OFFCURVE",
"492 180 CURVE",
"491 422 OFFCURVE",
"119 391 OFFCURVE",
"119 557 CURVE SMOOTH",
"119 632 OFFCURVE",
"173 678 OFFCURVE",
"289 678 CURVE SMOOTH",
"346 678 OFFCURVE",
"392 661 OFFCURVE",
"422 632 CURVE",
"425 601 OFFCURVE",
"431 551 OFFCURVE",
"440 528 CURVE",
"458 528 LINE",
"467 639 LINE",
"423 686 OFFCURVE",
"359 710 OFFCURVE",
"270 710 CURVE SMOOTH",
"137 710 OFFCURVE",
"47 657 OFFCURVE",
"47 548 CURVE SMOOTH",
"47 331 OFFCURVE",
"420 375 OFFCURVE",
"420 169 CURVE SMOOTH",
"420 73 OFFCURVE",
"334 22 OFFCURVE",
"244 22 CURVE SMOOTH",
"167 22 OFFCURVE",
"111 53 OFFCURVE",
"78 94 CURVE",
"76 124 OFFCURVE",
"70 190 OFFCURVE",
"61 214 CURVE",
"43 214 LINE",
"34 81 LINE",
"75 31 OFFCURVE",
"155 -10 OFFCURVE",
"261 -10 CURVE SMOOTH"
);
},
{
closed = 1;
nodes = (
"294 785 OFFCURVE",
"310 801 OFFCURVE",
"310 825 CURVE SMOOTH",
"310 850 OFFCURVE",
"294 866 OFFCURVE",
"271 866 CURVE SMOOTH",
"247 866 OFFCURVE",
"232 850 OFFCURVE",
"232 825 CURVE SMOOTH",
"232 801 OFFCURVE",
"247 785 OFFCURVE",
"271 785 CURVE SMOOTH"
);
}
);
width = 527;
}
);
leftKerningGroup = S;
note = Sdotaccent;
rightKerningGroup = S;
unicode = 1E60;
},
{
glyphname = Sdotbelow;
lastChange = "2015-11-28 05:20:20 +0000";
layers = (
{
layerId = "55230DDF-46DB-445B-B73A-3B2EF2AFB87A";
name = Light;
paths = (
{
closed = 1;
nodes = (
"393 -10 OFFCURVE",
"492 63 OFFCURVE",
"492 180 CURVE",
"491 422 OFFCURVE",
"119 391 OFFCURVE",
"119 557 CURVE SMOOTH",
"119 632 OFFCURVE",
"173 678 OFFCURVE",
"289 678 CURVE SMOOTH",
"346 678 OFFCURVE",
"392 661 OFFCURVE",
"422 632 CURVE",
"425 601 OFFCURVE",
"431 551 OFFCURVE",
"440 528 CURVE",
"458 528 LINE",
"467 639 LINE",
"423 686 OFFCURVE",
"359 710 OFFCURVE",
"270 710 CURVE SMOOTH",
"137 710 OFFCURVE",
"47 657 OFFCURVE",
"47 548 CURVE SMOOTH",
"47 331 OFFCURVE",
"420 375 OFFCURVE",
"420 169 CURVE SMOOTH",
"420 73 OFFCURVE",
"334 22 OFFCURVE",
"244 22 CURVE SMOOTH",
"167 22 OFFCURVE",
"111 53 OFFCURVE",
"78 94 CURVE",
"76 124 OFFCURVE",
"70 190 OFFCURVE",
"61 214 CURVE",
"43 214 LINE",
"34 81 LINE",
"75 31 OFFCURVE",
"155 -10 OFFCURVE",
"261 -10 CURVE SMOOTH"
);
},
{
closed = 1;
nodes = (
"280 -142 OFFCURVE",
"296 -126 OFFCURVE",
"296 -102 CURVE SMOOTH",
"296 -77 OFFCURVE",
"280 -61 OFFCURVE",
"257 -61 CURVE SMOOTH",
"234 -61 OFFCURVE",
"218 -77 OFFCURVE",
"218 -102 CURVE SMOOTH",
"218 -126 OFFCURVE",
"234 -142 OFFCURVE",
"257 -142 CURVE SMOOTH"
);
}
);
width = 527;
}
);
leftKerningGroup = S;
note = Sdotbelow;
rightKerningGroup = S;
unicode = 1E62;
},
{
glyphname = Germandbls;
lastChange = "2015-11-28 05:20:16 +0000";
layers = (
{
layerId = "55230DDF-46DB-445B-B73A-3B2EF2AFB87A";
name = Light;
paths = (
{
closed = 1;
nodes = (
"582 -10 OFFCURVE",
"654 88 OFFCURVE",
"654 202 CURVE SMOOTH",
"654 314 OFFCURVE",
"567 388 OFFCURVE",
"419 396 CURVE",
"570 555 LINE",
"548 628 OFFCURVE",
"471 710 OFFCURVE",
"342 710 CURVE SMOOTH",
"170 710 OFFCURVE",
"88 614 OFFCURVE",
"88 466 CURVE SMOOTH",
"88 27 LINE",
"59 23 OFFCURVE",
"31 17 OFFCURVE",
"6 10 CURVE",
"6 0 LINE",
"219 0 LINE",
"219 7 LINE",
"205 13 OFFCURVE",
"183 22 OFFCURVE",
"158 27 CURVE",
"158 487 LINE SMOOTH",
"158 603 OFFCURVE",
"222 678 OFFCURVE",
"336 678 CURVE SMOOTH",
"426 678 OFFCURVE",
"494 632 OFFCURVE",
"517 571 CURVE",
"345 389 LINE",
"345 366 LINE",
"395 366 LINE SMOOTH",
"521 366 OFFCURVE",
"584 298 OFFCURVE",
"584 202 CURVE SMOOTH",
"584 95 OFFCURVE",
"521 21 OFFCURVE",
"408 21 CURVE SMOOTH",
"359 21 OFFCURVE",
"305 30 OFFCURVE",
"257 51 CURVE",
"257 17 LINE",
"299 -1 OFFCURVE",
"351 -10 OFFCURVE",
"412 -10 CURVE SMOOTH"
);
}
);
width = 684;
}
);
note = uni1E9E;
unicode = 1E9E;
},
{
glyphname = Schwa;
lastChange = "2015-11-28 05:20:16 +0000";
layers = (
{
layerId = "55230DDF-46DB-445B-B73A-3B2EF2AFB87A";
name = Light;
paths = (
{
closed = 1;
nodes = (
"527 -10 OFFCURVE",
"657 111 OFFCURVE",
"657 344 CURVE SMOOTH",
"657 559 OFFCURVE",
"517 710 OFFCURVE",
"302 710 CURVE SMOOTH",
"186 710 OFFCURVE",
"108 673 OFFCURVE",
"64 639 CURVE",
"68 628 OFFCURVE",
"68 625 OFFCURVE",
"73 612 CURVE",
"136 654 OFFCURVE",
"207 675 OFFCURVE",
"287 675 CURVE SMOOTH",
"487 675 OFFCURVE",
"588 514 OFFCURVE",
"588 332 CURVE SMOOTH",
"588 169 OFFCURVE",
"510 21 OFFCURVE",
"321 21 CURVE SMOOTH",
"162 21 OFFCURVE",
"104 170 OFFCURVE",
"104 302 CURVE",
"596 302 LINE",
"596 336 LINE",
"37 336 LINE",
"37 311 LINE SMOOTH",
"37 138 OFFCURVE",
"124 -10 OFFCURVE",
"326 -10 CURVE SMOOTH"
);
}
);
width = 695;
}
);
note = uni018F;
unicode = 018F;
},
{
glyphname = T;
lastChange = "2015-11-28 05:20:16 +0000";
layers = (
{
layerId = "55230DDF-46DB-445B-B73A-3B2EF2AFB87A";
name = Light;
paths = (
{
closed = 1;
nodes = (
"432 0 LINE",
"432 9 LINE",
"407 17 OFFCURVE",
"375 23 OFFCURVE",
"348 27 CURVE",
"348 668 LINE",
"542 668 LINE",
"544 643 OFFCURVE",
"555 577 OFFCURVE",
"565 557 CURVE",
"582 557 LINE",
"582 700 LINE",
"43 700 LINE",
"43 557 LINE",
"60 557 LINE",
"70 577 OFFCURVE",
"81 643 OFFCURVE",
"83 668 CURVE",
"277 668 LINE",
"277 27 LINE",
"248 23 OFFCURVE",
"218 17 OFFCURVE",
"193 10 CURVE",
"193 0 LINE"
);
}
);
width = 626;
}
);
leftKerningGroup = T;
note = T;
rightKerningGroup = T;
unicode = 0054;
},
{
glyphname = Tbar;
lastChange = "2015-11-28 05:20:20 +0000";
layers = (
{
layerId = "55230DDF-46DB-445B-B73A-3B2EF2AFB87A";
name = Light;
paths = (
{
closed = 1;
nodes = (
"432 0 LINE",
"432 9 LINE",
"407 17 OFFCURVE",
"375 23 OFFCURVE",
"348 27 CURVE",
"348 668 LINE",
"542 668 LINE",
"544 643 OFFCURVE",
"555 577 OFFCURVE",
"565 557 CURVE",
"582 557 LINE",
"582 700 LINE",
"43 700 LINE",
"43 557 LINE",
"60 557 LINE",
"70 577 OFFCURVE",
"81 643 OFFCURVE",
"83 668 CURVE",
"277 668 LINE",
"277 27 LINE",
"248 23 OFFCURVE",
"218 17 OFFCURVE",
"193 10 CURVE",
"193 0 LINE"
);
},
{
closed = 1;
nodes = (
"501 332 LINE",
"501 363 LINE",
"127 363 LINE",
"127 332 LINE"
);
}
);
width = 626;
}
);
leftKerningGroup = T;
note = Tbar;
rightKerningGroup = T;
unicode = 0166;
},
{
glyphname = Tcaron;
lastChange = "2015-11-28 05:20:21 +0000";
layers = (
{
layerId = "55230DDF-46DB-445B-B73A-3B2EF2AFB87A";
name = Light;
paths = (
{
closed = 1;
nodes = (
"432 0 LINE",
"432 9 LINE",
"407 17 OFFCURVE",
"375 23 OFFCURVE",
"348 27 CURVE",
"348 668 LINE",
"542 668 LINE",
"544 643 OFFCURVE",
"555 577 OFFCURVE",
"565 557 CURVE",
"582 557 LINE",
"582 700 LINE",
"43 700 LINE",
"43 557 LINE",
"60 557 LINE",
"70 577 OFFCURVE",
"81 643 OFFCURVE",
"83 668 CURVE",
"277 668 LINE",
"277 27 LINE",
"248 23 OFFCURVE",
"218 17 OFFCURVE",
"193 10 CURVE",
"193 0 LINE"
);
},
{
closed = 1;
nodes = (
"328 786 LINE",
"359 829 OFFCURVE",
"412 876 OFFCURVE",
"451 903 CURVE",
"422 930 LINE",
"385 903 OFFCURVE",
"341 863 OFFCURVE",
"314 828 CURVE",
"309 828 LINE",
"282 863 OFFCURVE",
"238 903 OFFCURVE",
"201 930 CURVE",
"172 903 LINE",
"211 876 OFFCURVE",
"264 829 OFFCURVE",
"295 786 CURVE"
);
}
);
width = 626;
}
);
leftKerningGroup = T;
note = Tcaron;
rightKerningGroup = T;
unicode = 0164;
},
{
glyphname = Tcedilla;
lastChange = "2015-11-28 05:20:21 +0000";
layers = (
{
layerId = "55230DDF-46DB-445B-B73A-3B2EF2AFB87A";
name = Light;
paths = (
{
closed = 1;
nodes = (
"432 0 LINE",
"432 9 LINE",
"407 17 OFFCURVE",
"375 23 OFFCURVE",
"348 27 CURVE",
"348 668 LINE",
"542 668 LINE",
"544 643 OFFCURVE",
"555 577 OFFCURVE",
"565 557 CURVE",
"582 557 LINE",
"582 700 LINE",
"43 700 LINE",
"43 557 LINE",
"60 557 LINE",
"70 577 OFFCURVE",
"81 643 OFFCURVE",
"83 668 CURVE",
"277 668 LINE",
"277 27 LINE",
"248 23 OFFCURVE",
"218 17 OFFCURVE",
"193 10 CURVE",
"193 0 LINE"
);
},
{
closed = 1;
nodes = (
"351 -208 OFFCURVE",
"400 -182 OFFCURVE",
"400 -127 CURVE SMOOTH",
"400 -90 OFFCURVE",
"369 -67 OFFCURVE",
"321 -65 CURVE",
"313 -65 OFFCURVE",
"305 -65 OFFCURVE",
"297 -66 CURVE",
"332 8 LINE",
"294 8 LINE",
"256 -68 LINE",
"277 -94 LINE",
"284 -93 OFFCURVE",
"293 -92 OFFCURVE",
"301 -92 CURVE SMOOTH",
"328 -92 OFFCURVE",
"358 -101 OFFCURVE",
"358 -127 CURVE SMOOTH",
"358 -163 OFFCURVE",
"327 -178 OFFCURVE",
"286 -178 CURVE SMOOTH",
"267 -178 OFFCURVE",
"245 -175 OFFCURVE",
"227 -169 CURVE",
"213 -194 LINE",
"236 -203 OFFCURVE",
"264 -208 OFFCURVE",
"288 -208 CURVE SMOOTH"
);
}
);
width = 626;
}
);
leftKerningGroup = T;
note = Tcedilla;
rightKerningGroup = T;
unicode = 0162;
},
{
glyphname = Tcommaaccent;
lastChange = "2015-11-28 05:20:19 +0000";
layers = (
{
layerId = "55230DDF-46DB-445B-B73A-3B2EF2AFB87A";
name = Light;
paths = (
{
closed = 1;
nodes = (
"432 0 LINE",
"432 9 LINE",
"407 17 OFFCURVE",
"375 23 OFFCURVE",
"348 27 CURVE",
"348 668 LINE",
"542 668 LINE",
"544 643 OFFCURVE",
"555 577 OFFCURVE",
"565 557 CURVE",
"582 557 LINE",
"582 700 LINE",
"43 700 LINE",
"43 557 LINE",
"60 557 LINE",
"70 577 OFFCURVE",
"81 643 OFFCURVE",
"83 668 CURVE",
"277 668 LINE",
"277 27 LINE",
"248 23 OFFCURVE",
"218 17 OFFCURVE",
"193 10 CURVE",
"193 0 LINE"
);
},
{
closed = 1;
nodes = (
"338 -244 OFFCURVE",
"363 -175 OFFCURVE",
"363 -127 CURVE SMOOTH",
"363 -91 OFFCURVE",
"347 -65 OFFCURVE",
"308 -65 CURVE SMOOTH",
"284 -65 OFFCURVE",
"262 -79 OFFCURVE",
"262 -108 CURVE SMOOTH",
"262 -133 OFFCURVE",
"281 -151 OFFCURVE",
"305 -151 CURVE SMOOTH",
"309 -151 OFFCURVE",
"313 -150 OFFCURVE",
"317 -149 CURVE",
"314 -189 OFFCURVE",
"298 -230 OFFCURVE",
"274 -259 CURVE",
"300 -280 LINE"
);
}
);
width = 626;
}
);
leftKerningGroup = T;
note = Tcommaaccent;
rightKerningGroup = T;
unicode = 021A;
},
{
glyphname = Tdotbelow;
lastChange = "2015-11-28 05:20:20 +0000";
layers = (
{
layerId = "55230DDF-46DB-445B-B73A-3B2EF2AFB87A";
name = Light;
paths = (
{
closed = 1;
nodes = (
"432 0 LINE",
"432 9 LINE",
"407 17 OFFCURVE",
"375 23 OFFCURVE",
"348 27 CURVE",
"348 668 LINE",
"542 668 LINE",
"544 643 OFFCURVE",
"555 577 OFFCURVE",
"565 557 CURVE",
"582 557 LINE",
"582 700 LINE",
"43 700 LINE",
"43 557 LINE",
"60 557 LINE",
"70 577 OFFCURVE",
"81 643 OFFCURVE",
"83 668 CURVE",
"277 668 LINE",
"277 27 LINE",
"248 23 OFFCURVE",
"218 17 OFFCURVE",
"193 10 CURVE",
"193 0 LINE"
);
},
{
closed = 1;
nodes = (
"335 -142 OFFCURVE",
"351 -126 OFFCURVE",
"351 -102 CURVE SMOOTH",
"351 -77 OFFCURVE",
"335 -61 OFFCURVE",
"312 -61 CURVE SMOOTH",
"289 -61 OFFCURVE",
"273 -77 OFFCURVE",
"273 -102 CURVE SMOOTH",
"273 -126 OFFCURVE",
"289 -142 OFFCURVE",
"312 -142 CURVE SMOOTH"
);
}
);
width = 626;
}
);
leftKerningGroup = T;
note = Tdotbelow;
rightKerningGroup = T;
unicode = 1E6C;
},
{
glyphname = Tlinebelow;
lastChange = "2015-11-28 05:20:21 +0000";
layers = (
{
layerId = "55230DDF-46DB-445B-B73A-3B2EF2AFB87A";
name = Light;
paths = (
{
closed = 1;
nodes = (
"432 0 LINE",
"432 9 LINE",
"407 17 OFFCURVE",
"375 23 OFFCURVE",
"348 27 CURVE",
"348 668 LINE",
"542 668 LINE",
"544 643 OFFCURVE",
"555 577 OFFCURVE",
"565 557 CURVE",
"582 557 LINE",
"582 700 LINE",
"43 700 LINE",
"43 557 LINE",
"60 557 LINE",
"70 577 OFFCURVE",
"81 643 OFFCURVE",
"83 668 CURVE",
"277 668 LINE",
"277 27 LINE",
"248 23 OFFCURVE",
"218 17 OFFCURVE",
"193 10 CURVE",
"193 0 LINE"
);
},
{
closed = 1;
nodes = (
"469 -102 LINE",
"469 -71 LINE",
"155 -71 LINE",
"155 -102 LINE"
);
}
);
width = 626;
}
);
leftKerningGroup = T;
note = Tlinebelow;
rightKerningGroup = T;
unicode = 1E6E;
},
{
glyphname = U;
lastChange = "2015-11-28 05:20:16 +0000";
layers = (
{
layerId = "55230DDF-46DB-445B-B73A-3B2EF2AFB87A";
name = Light;
paths = (
{
closed = 1;
nodes = (
"546 -10 OFFCURVE",
"635 57 OFFCURVE",
"635 211 CURVE SMOOTH",
"635 671 LINE",
"659 675 OFFCURVE",
"689 681 OFFCURVE",
"718 690 CURVE",
"718 700 LINE",
"515 700 LINE",
"515 690 LINE",
"541 682 OFFCURVE",
"569 676 OFFCURVE",
"597 673 CURVE",
"597 202 LINE SMOOTH",
"597 67 OFFCURVE",
"509 22 OFFCURVE",
"399 22 CURVE SMOOTH",
"284 22 OFFCURVE",
"194 63 OFFCURVE",
"194 202 CURVE SMOOTH",
"194 672 LINE",
"223 676 OFFCURVE",
"251 682 OFFCURVE",
"275 690 CURVE",
"275 700 LINE",
"42 700 LINE",
"42 690 LINE",
"67 682 OFFCURVE",
"96 676 OFFCURVE",
"123 672 CURVE",
"123 211 LINE SMOOTH",
"123 54 OFFCURVE",
"221 -10 OFFCURVE",
"381 -10 CURVE SMOOTH"
);
}
);
width = 760;
}
);
leftKerningGroup = U;
note = U;
rightKerningGroup = U;
unicode = 0055;
},
{
glyphname = Uacute;
lastChange = "2015-11-28 05:20:19 +0000";
layers = (
{
layerId = "55230DDF-46DB-445B-B73A-3B2EF2AFB87A";
name = Light;
paths = (
{
closed = 1;
nodes = (
"546 -10 OFFCURVE",
"635 57 OFFCURVE",
"635 211 CURVE SMOOTH",
"635 671 LINE",
"659 675 OFFCURVE",
"689 681 OFFCURVE",
"718 690 CURVE",
"718 700 LINE",
"515 700 LINE",
"515 690 LINE",
"541 682 OFFCURVE",
"569 676 OFFCURVE",
"597 673 CURVE",
"597 202 LINE SMOOTH",
"597 67 OFFCURVE",
"509 22 OFFCURVE",
"399 22 CURVE SMOOTH",
"284 22 OFFCURVE",
"194 63 OFFCURVE",
"194 202 CURVE SMOOTH",
"194 672 LINE",
"223 676 OFFCURVE",
"251 682 OFFCURVE",
"275 690 CURVE",
"275 700 LINE",
"42 700 LINE",
"42 690 LINE",
"67 682 OFFCURVE",
"96 676 OFFCURVE",
"123 672 CURVE",
"123 211 LINE SMOOTH",
"123 54 OFFCURVE",
"221 -10 OFFCURVE",
"381 -10 CURVE SMOOTH"
);
},
{
closed = 1;
nodes = (
"456 865 LINE SMOOTH",
"474 876 OFFCURVE",
"483 888 OFFCURVE",
"483 901 CURVE SMOOTH",
"483 913 OFFCURVE",
"474 924 OFFCURVE",
"458 924 CURVE SMOOTH",
"440 924 OFFCURVE",
"426 912 OFFCURVE",
"419 905 CURVE",
"307 805 LINE",
"320 786 LINE"
);
}
);
width = 760;
}
);
leftKerningGroup = U;
note = Uacute;
rightKerningGroup = U;
unicode = 00DA;
},
{
glyphname = Ubreve;
lastChange = "2015-11-28 05:20:19 +0000";
layers = (
{
layerId = "55230DDF-46DB-445B-B73A-3B2EF2AFB87A";
name = Light;
paths = (
{
closed = 1;
nodes = (
"546 -10 OFFCURVE",
"635 57 OFFCURVE",
"635 211 CURVE SMOOTH",
"635 671 LINE",
"659 675 OFFCURVE",
"689 681 OFFCURVE",
"718 690 CURVE",
"718 700 LINE",
"515 700 LINE",
"515 690 LINE",
"541 682 OFFCURVE",
"569 676 OFFCURVE",
"597 673 CURVE",
"597 202 LINE SMOOTH",
"597 67 OFFCURVE",
"509 22 OFFCURVE",
"399 22 CURVE SMOOTH",
"284 22 OFFCURVE",
"194 63 OFFCURVE",
"194 202 CURVE SMOOTH",
"194 672 LINE",
"223 676 OFFCURVE",
"251 682 OFFCURVE",
"275 690 CURVE",
"275 700 LINE",
"42 700 LINE",
"42 690 LINE",
"67 682 OFFCURVE",
"96 676 OFFCURVE",
"123 672 CURVE",
"123 211 LINE SMOOTH",
"123 54 OFFCURVE",
"221 -10 OFFCURVE",
"381 -10 CURVE SMOOTH"
);
},
{
closed = 1;
nodes = (
"463 774 OFFCURVE",
"521 811 OFFCURVE",
"530 894 CURVE",
"484 894 LINE",
"475 817 OFFCURVE",
"424 806 OFFCURVE",
"383 806 CURVE SMOOTH",
"342 806 OFFCURVE",
"290 817 OFFCURVE",
"282 894 CURVE",
"236 894 LINE",
"245 811 OFFCURVE",
"303 774 OFFCURVE",
"383 774 CURVE SMOOTH"
);
}
);
width = 760;
}
);
leftKerningGroup = U;
note = Ubreve;
rightKerningGroup = U;
unicode = 016C;
},
{
glyphname = Ucaron;
lastChange = "2015-11-28 05:20:21 +0000";
layers = (
{
layerId = "55230DDF-46DB-445B-B73A-3B2EF2AFB87A";
name = Light;
paths = (
{
closed = 1;
nodes = (
"546 -10 OFFCURVE",
"635 57 OFFCURVE",
"635 211 CURVE SMOOTH",
"635 671 LINE",
"659 675 OFFCURVE",
"689 681 OFFCURVE",
"718 690 CURVE",
"718 700 LINE",
"515 700 LINE",
"515 690 LINE",
"541 682 OFFCURVE",
"569 676 OFFCURVE",
"597 673 CURVE",
"597 202 LINE SMOOTH",
"597 67 OFFCURVE",
"509 22 OFFCURVE",
"399 22 CURVE SMOOTH",
"284 22 OFFCURVE",
"194 63 OFFCURVE",
"194 202 CURVE SMOOTH",
"194 672 LINE",
"223 676 OFFCURVE",
"251 682 OFFCURVE",
"275 690 CURVE",
"275 700 LINE",
"42 700 LINE",
"42 690 LINE",
"67 682 OFFCURVE",
"96 676 OFFCURVE",
"123 672 CURVE",
"123 211 LINE SMOOTH",
"123 54 OFFCURVE",
"221 -10 OFFCURVE",
"381 -10 CURVE SMOOTH"
);
},
{
closed = 1;
nodes = (
"394 786 LINE",
"425 829 OFFCURVE",
"478 876 OFFCURVE",
"517 903 CURVE",
"488 930 LINE",
"451 903 OFFCURVE",
"407 863 OFFCURVE",
"380 828 CURVE",
"375 828 LINE",
"348 863 OFFCURVE",
"304 903 OFFCURVE",
"267 930 CURVE",
"238 903 LINE",
"277 876 OFFCURVE",
"330 829 OFFCURVE",
"361 786 CURVE"
);
}
);
width = 760;
}
);
leftKerningGroup = U;
note = Ucaron;
rightKerningGroup = U;
unicode = 01D3;
},
{
glyphname = Ucircumflex;
lastChange = "2015-11-28 05:20:20 +0000";
layers = (
{
layerId = "55230DDF-46DB-445B-B73A-3B2EF2AFB87A";
name = Light;
paths = (
{
closed = 1;
nodes = (
"546 -10 OFFCURVE",
"635 57 OFFCURVE",
"635 211 CURVE SMOOTH",
"635 671 LINE",
"659 675 OFFCURVE",
"689 681 OFFCURVE",
"718 690 CURVE",
"718 700 LINE",
"515 700 LINE",
"515 690 LINE",
"541 682 OFFCURVE",
"569 676 OFFCURVE",
"597 673 CURVE",
"597 202 LINE SMOOTH",
"597 67 OFFCURVE",
"509 22 OFFCURVE",
"399 22 CURVE SMOOTH",
"284 22 OFFCURVE",
"194 63 OFFCURVE",
"194 202 CURVE SMOOTH",
"194 672 LINE",
"223 676 OFFCURVE",
"251 682 OFFCURVE",
"275 690 CURVE",
"275 700 LINE",
"42 700 LINE",
"42 690 LINE",
"67 682 OFFCURVE",
"96 676 OFFCURVE",
"123 672 CURVE",
"123 211 LINE SMOOTH",
"123 54 OFFCURVE",
"221 -10 OFFCURVE",
"381 -10 CURVE SMOOTH"
);
},
{
closed = 1;
nodes = (
"306 806 OFFCURVE",
"350 846 OFFCURVE",
"377 881 CURVE",
"382 881 LINE",
"409 846 OFFCURVE",
"453 806 OFFCURVE",
"490 779 CURVE",
"519 806 LINE",
"480 833 OFFCURVE",
"427 880 OFFCURVE",
"396 922 CURVE",
"363 922 LINE",
"332 880 OFFCURVE",
"279 833 OFFCURVE",
"240 806 CURVE",
"269 779 LINE"
);
}
);
width = 760;
}
);
leftKerningGroup = U;
note = Ucircumflex;
rightKerningGroup = U;
unicode = 00DB;
},
{
glyphname = Udieresis;
lastChange = "2015-11-28 05:20:19 +0000";
layers = (
{
layerId = "55230DDF-46DB-445B-B73A-3B2EF2AFB87A";
name = Light;
paths = (
{
closed = 1;
nodes = (
"546 -10 OFFCURVE",
"635 57 OFFCURVE",
"635 211 CURVE SMOOTH",
"635 671 LINE",
"659 675 OFFCURVE",
"689 681 OFFCURVE",
"718 690 CURVE",
"718 700 LINE",
"515 700 LINE",
"515 690 LINE",
"541 682 OFFCURVE",
"569 676 OFFCURVE",
"597 673 CURVE",
"597 202 LINE SMOOTH",
"597 67 OFFCURVE",
"509 22 OFFCURVE",
"399 22 CURVE SMOOTH",
"284 22 OFFCURVE",
"194 63 OFFCURVE",
"194 202 CURVE SMOOTH",
"194 672 LINE",
"223 676 OFFCURVE",
"251 682 OFFCURVE",
"275 690 CURVE",
"275 700 LINE",
"42 700 LINE",
"42 690 LINE",
"67 682 OFFCURVE",
"96 676 OFFCURVE",
"123 672 CURVE",
"123 211 LINE SMOOTH",
"123 54 OFFCURVE",
"221 -10 OFFCURVE",
"381 -10 CURVE SMOOTH"
);
},
{
closed = 1;
nodes = (
"303 785 OFFCURVE",
"319 801 OFFCURVE",
"319 825 CURVE SMOOTH",
"319 850 OFFCURVE",
"303 866 OFFCURVE",
"280 866 CURVE SMOOTH",
"257 866 OFFCURVE",
"241 850 OFFCURVE",
"241 825 CURVE SMOOTH",
"241 801 OFFCURVE",
"257 785 OFFCURVE",
"280 785 CURVE SMOOTH"
);
},
{
closed = 1;
nodes = (
"516 785 OFFCURVE",
"532 801 OFFCURVE",
"532 825 CURVE SMOOTH",
"532 850 OFFCURVE",
"516 866 OFFCURVE",
"493 866 CURVE SMOOTH",
"470 866 OFFCURVE",
"454 850 OFFCURVE",
"454 825 CURVE SMOOTH",
"454 801 OFFCURVE",
"470 785 OFFCURVE",
"493 785 CURVE SMOOTH"
);
}
);
width = 760;
}
);
leftKerningGroup = U;
note = Udieresis;
rightKerningGroup = U;
unicode = 00DC;
},
{
glyphname = Udieresisacute;
lastChange = "2015-11-28 05:20:21 +0000";
layers = (
{
layerId = "55230DDF-46DB-445B-B73A-3B2EF2AFB87A";
name = Light;
paths = (
{
closed = 1;
nodes = (
"546 -10 OFFCURVE",
"635 57 OFFCURVE",
"635 211 CURVE SMOOTH",
"635 671 LINE",
"659 675 OFFCURVE",
"689 681 OFFCURVE",
"718 690 CURVE",
"718 700 LINE",
"515 700 LINE",
"515 690 LINE",
"541 682 OFFCURVE",
"569 676 OFFCURVE",
"597 673 CURVE",
"597 202 LINE SMOOTH",
"597 67 OFFCURVE",
"509 22 OFFCURVE",
"399 22 CURVE SMOOTH",
"284 22 OFFCURVE",
"194 63 OFFCURVE",
"194 202 CURVE SMOOTH",
"194 672 LINE",
"223 676 OFFCURVE",
"251 682 OFFCURVE",
"275 690 CURVE",
"275 700 LINE",
"42 700 LINE",
"42 690 LINE",
"67 682 OFFCURVE",
"96 676 OFFCURVE",
"123 672 CURVE",
"123 211 LINE SMOOTH",
"123 54 OFFCURVE",
"221 -10 OFFCURVE",
"381 -10 CURVE SMOOTH"
);
},
{
closed = 1;
nodes = (
"303 785 OFFCURVE",
"319 801 OFFCURVE",
"319 825 CURVE SMOOTH",
"319 849 OFFCURVE",
"303 866 OFFCURVE",
"280 866 CURVE SMOOTH",
"257 866 OFFCURVE",
"241 849 OFFCURVE",
"241 825 CURVE SMOOTH",
"241 801 OFFCURVE",
"257 785 OFFCURVE",
"280 785 CURVE SMOOTH"
);
},
{
closed = 1;
nodes = (
"517 785 OFFCURVE",
"533 801 OFFCURVE",
"533 825 CURVE SMOOTH",
"533 849 OFFCURVE",
"517 866 OFFCURVE",
"493 866 CURVE SMOOTH",
"470 866 OFFCURVE",
"454 849 OFFCURVE",
"454 825 CURVE SMOOTH",
"454 801 OFFCURVE",
"470 785 OFFCURVE",
"493 785 CURVE SMOOTH"
);
},
{
closed = 1;
nodes = (
"503 968 LINE SMOOTH",
"521 978 OFFCURVE",
"530 990 OFFCURVE",
"530 1003 CURVE SMOOTH",
"530 1016 OFFCURVE",
"520 1027 OFFCURVE",
"504 1027 CURVE SMOOTH",
"486 1027 OFFCURVE",
"473 1013 OFFCURVE",
"466 1007 CURVE SMOOTH",
"362 914 LINE",
"375 895 LINE"
);
}
);
width = 760;
}
);
leftKerningGroup = U;
note = Udieresisacute;
rightKerningGroup = U;
unicode = 01D7;
},
{
glyphname = Udieresiscaron;
lastChange = "2015-11-28 05:20:22 +0000";
layers = (
{
layerId = "55230DDF-46DB-445B-B73A-3B2EF2AFB87A";
name = Light;
paths = (
{
closed = 1;
nodes = (
"546 -10 OFFCURVE",
"635 57 OFFCURVE",
"635 211 CURVE SMOOTH",
"635 671 LINE",
"659 675 OFFCURVE",
"689 681 OFFCURVE",
"718 690 CURVE",
"718 700 LINE",
"515 700 LINE",
"515 690 LINE",
"541 682 OFFCURVE",
"569 676 OFFCURVE",
"597 673 CURVE",
"597 202 LINE SMOOTH",
"597 67 OFFCURVE",
"509 22 OFFCURVE",
"399 22 CURVE SMOOTH",
"284 22 OFFCURVE",
"194 63 OFFCURVE",
"194 202 CURVE SMOOTH",
"194 672 LINE",
"223 676 OFFCURVE",
"251 682 OFFCURVE",
"275 690 CURVE",
"275 700 LINE",
"42 700 LINE",
"42 690 LINE",
"67 682 OFFCURVE",
"96 676 OFFCURVE",
"123 672 CURVE",
"123 211 LINE SMOOTH",
"123 54 OFFCURVE",
"221 -10 OFFCURVE",
"381 -10 CURVE SMOOTH"
);
},
{
closed = 1;
nodes = (
"303 785 OFFCURVE",
"319 801 OFFCURVE",
"319 825 CURVE SMOOTH",
"319 849 OFFCURVE",
"303 866 OFFCURVE",
"280 866 CURVE SMOOTH",
"257 866 OFFCURVE",
"241 849 OFFCURVE",
"241 825 CURVE SMOOTH",
"241 801 OFFCURVE",
"257 785 OFFCURVE",
"280 785 CURVE SMOOTH"
);
},
{
closed = 1;
nodes = (
"517 785 OFFCURVE",
"533 801 OFFCURVE",
"533 825 CURVE SMOOTH",
"533 849 OFFCURVE",
"517 866 OFFCURVE",
"493 866 CURVE SMOOTH",
"470 866 OFFCURVE",
"454 849 OFFCURVE",
"454 825 CURVE SMOOTH",
"454 801 OFFCURVE",
"470 785 OFFCURVE",
"493 785 CURVE SMOOTH"
);
},
{
closed = 1;
nodes = (
"403 879 LINE",
"434 922 OFFCURVE",
"488 969 OFFCURVE",
"526 996 CURVE",
"497 1023 LINE",
"460 996 OFFCURVE",
"417 956 OFFCURVE",
"389 921 CURVE",
"384 921 LINE",
"357 956 OFFCURVE",
"313 996 OFFCURVE",
"277 1023 CURVE",
"247 996 LINE",
"286 969 OFFCURVE",
"339 922 OFFCURVE",
"370 879 CURVE"
);
}
);
width = 760;
}
);
leftKerningGroup = U;
note = Udieresiscaron;
rightKerningGroup = U;
unicode = 01D9;
},
{
glyphname = Udieresisgrave;
lastChange = "2015-11-28 05:20:20 +0000";
layers = (
{
layerId = "55230DDF-46DB-445B-B73A-3B2EF2AFB87A";
name = Light;
paths = (
{
closed = 1;
nodes = (
"546 -10 OFFCURVE",
"635 57 OFFCURVE",
"635 211 CURVE SMOOTH",
"635 671 LINE",
"659 675 OFFCURVE",
"689 681 OFFCURVE",
"718 690 CURVE",
"718 700 LINE",
"515 700 LINE",
"515 690 LINE",
"541 682 OFFCURVE",
"569 676 OFFCURVE",
"597 673 CURVE",
"597 202 LINE SMOOTH",
"597 67 OFFCURVE",
"509 22 OFFCURVE",
"399 22 CURVE SMOOTH",
"284 22 OFFCURVE",
"194 63 OFFCURVE",
"194 202 CURVE SMOOTH",
"194 672 LINE",
"223 676 OFFCURVE",
"251 682 OFFCURVE",
"275 690 CURVE",
"275 700 LINE",
"42 700 LINE",
"42 690 LINE",
"67 682 OFFCURVE",
"96 676 OFFCURVE",
"123 672 CURVE",
"123 211 LINE SMOOTH",
"123 54 OFFCURVE",
"221 -10 OFFCURVE",
"381 -10 CURVE SMOOTH"
);
},
{
closed = 1;
nodes = (
"303 785 OFFCURVE",
"319 801 OFFCURVE",
"319 825 CURVE SMOOTH",
"319 849 OFFCURVE",
"303 866 OFFCURVE",
"280 866 CURVE SMOOTH",
"257 866 OFFCURVE",
"241 849 OFFCURVE",
"241 825 CURVE SMOOTH",
"241 801 OFFCURVE",
"257 785 OFFCURVE",
"280 785 CURVE SMOOTH"
);
},
{
closed = 1;
nodes = (
"432 903 LINE",
"338 990 LINE",
"332 996 OFFCURVE",
"318 1009 OFFCURVE",
"300 1009 CURVE SMOOTH",
"284 1009 OFFCURVE",
"274 998 OFFCURVE",
"274 986 CURVE SMOOTH",
"274 973 OFFCURVE",
"283 960 OFFCURVE",
"301 950 CURVE SMOOTH",
"419 884 LINE"
);
},
{
closed = 1;
nodes = (
"517 785 OFFCURVE",
"533 801 OFFCURVE",
"533 825 CURVE SMOOTH",
"533 849 OFFCURVE",
"517 866 OFFCURVE",
"493 866 CURVE SMOOTH",
"470 866 OFFCURVE",
"454 849 OFFCURVE",
"454 825 CURVE SMOOTH",
"454 801 OFFCURVE",
"470 785 OFFCURVE",
"493 785 CURVE SMOOTH"
);
}
);
width = 760;
}
);
leftKerningGroup = U;
note = Udieresisgrave;
rightKerningGroup = U;
unicode = 01DB;
},
